Exo2-Medium.ufo
<glyph name="exclam" format="2">
  <advance width="277.3764705882353"/>
  <unicode hex="0021"/>
  <outline>
    <contour>
      <point x="186.88235294117646" y="695.0" type="line"/>
      <point x="90.49411764705883" y="695.0" type="line"/>
      <point x="90.49411764705883" y="395.78823529411767" type="line"/>
      <point x="100.32941176470588" y="212.57647058823528" type="line"/>
      <point x="177.04705882352943" y="212.57647058823528" type="line"/>
      <point x="186.88235294117646" y="395.78823529411767" type="line"/>
    </contour>
    <contour>
      <point x="151.1529411764706" y="124.30588235294118" type="curve" smooth="yes"/>
      <point x="127.2235294117647" y="124.30588235294118" type="line" smooth="yes"/>
      <point x="100.94117647058823" y="124.30588235294118"/>
      <point x="91.71764705882353" y="115.08235294117647"/>
      <point x="91.71764705882353" y="88.8" type="curve" smooth="yes"/>
      <point x="91.71764705882353" y="35.50588235294118" type="line" smooth="yes"/>
      <point x="91.71764705882353" y="9.223529411764705"/>
      <point x="100.94117647058823" y="0.0"/>
      <point x="127.2235294117647" y="0.0" type="curve" smooth="yes"/>
      <point x="151.1529411764706" y="0.0" type="line" smooth="yes"/>
      <point x="177.43529411764706" y="0.0"/>
      <point x="186.65882352941176" y="9.223529411764705"/>
      <point x="186.65882352941176" y="35.50588235294118" type="curve" smooth="yes"/>
      <point x="186.65882352941176" y="88.8" type="line" smooth="yes"/>
      <point x="186.65882352941176" y="115.08235294117647"/>
      <point x="177.43529411764706" y="124.30588235294118"/>
    </contour>
  </outline>
</glyph>
<glyph name="quotedbl" format="2">
  <advance width="358.3411764705882"/>
  <unicode hex="0022"/>
  <outline>
    <contour>
      <point x="292.1058823529412" y="690.0" type="line"/>
      <point x="214.12941176470588" y="690.0" type="line"/>
      <point x="220.48235294117646" y="474.16470588235296" type="line"/>
      <point x="285.7529411764706" y="474.16470588235296" type="line"/>
    </contour>
    <contour>
      <point x="145.08235294117648" y="690.0" type="line"/>
      <point x="67.10588235294118" y="690.0" type="line"/>
      <point x="72.58823529411765" y="474.16470588235296" type="line"/>
      <point x="138.72941176470587" y="474.16470588235296" type="line"/>
    </contour>
  </outline>
</glyph>
<glyph name="numbersign" format="2">
  <advance width="687.8941176470588"/>
  <unicode hex="0023"/>
  <outline>
    <contour>
      <point x="316.6941176470588" y="690.0" type="line"/>
      <point x="240.3294117647059" y="690.0" type="line"/>
      <point x="120.32941176470588" y="0.0" type="line"/>
      <point x="196.69411764705882" y="0.0" type="line"/>
    </contour>
    <contour>
      <point x="567.6941176470589" y="690.0" type="line"/>
      <point x="491.32941176470587" y="690.0" type="line"/>
      <point x="371.32941176470587" y="0.0" type="line"/>
      <point x="447.6941176470588" y="0.0" type="line"/>
    </contour>
    <contour>
      <point x="646.1764705882352" y="505.05882352941177" type="line"/>
      <point x="94.68235294117648" y="505.05882352941177" type="line"/>
      <point x="82.84705882352941" y="443.88235294117646" type="line"/>
      <point x="634.3411764705883" y="443.88235294117646" type="line"/>
    </contour>
    <contour>
      <point x="604.1764705882352" y="270.8941176470588" type="line"/>
      <point x="52.68235294117647" y="270.8941176470588" type="line"/>
      <point x="40.84705882352941" y="209.71764705882353" type="line"/>
      <point x="592.3411764705883" y="209.71764705882353" type="line"/>
    </contour>
  </outline>
</glyph>
<glyph name="percent" format="2">
  <advance width="896.0588235294117"/>
  <unicode hex="0025"/>
  <outline>
    <contour>
      <point x="206.64705882352942" y="702.8705882352941" type="curve" smooth="yes"/>
      <point x="85.94117647058823" y="702.8705882352941"/>
      <point x="44.45882352941177" y="645.8352941176471"/>
      <point x="44.45882352941177" y="498.0" type="curve" smooth="yes"/>
      <point x="44.45882352941177" y="351.0352941176471"/>
      <point x="85.94117647058823" y="293.1294117647059"/>
      <point x="206.64705882352942" y="293.1294117647059" type="curve" smooth="yes"/>
      <point x="328.22352941176473" y="293.1294117647059"/>
      <point x="369.70588235294116" y="351.0352941176471"/>
      <point x="369.70588235294116" y="498.0" type="curve" smooth="yes"/>
      <point x="369.70588235294116" y="645.8352941176471"/>
      <point x="328.22352941176473" y="702.8705882352941"/>
    </contour>
    <contour>
      <point x="205.7764705882353" y="642.9529411764706" type="curve" smooth="yes"/>
      <point x="274.78823529411767" y="642.9529411764706"/>
      <point x="295.3411764705882" y="605.9764705882353"/>
      <point x="295.3411764705882" y="498.0" type="curve" smooth="yes"/>
      <point x="295.3411764705882" y="389.15294117647056"/>
      <point x="274.78823529411767" y="353.0470588235294"/>
      <point x="205.7764705882353" y="353.0470588235294" type="curve" smooth="yes"/>
      <point x="138.50588235294117" y="353.0470588235294"/>
      <point x="117.95294117647059" y="389.15294117647056"/>
      <point x="117.95294117647059" y="498.0" type="curve" smooth="yes"/>
      <point x="117.95294117647059" y="605.9764705882353"/>
      <point x="138.50588235294117" y="642.9529411764706"/>
    </contour>
    <contour>
      <point x="700.7058823529412" y="690.0" type="line"/>
      <point x="633.1764705882352" y="690.0" type="line"/>
      <point x="192.35294117647058" y="0.0" type="line"/>
      <point x="259.88235294117646" y="0.0" type="line"/>
    </contour>
    <contour>
      <point x="688.5411764705882" y="400.1294117647059" type="curve" smooth="yes"/>
      <point x="567.8352941176471" y="400.1294117647059"/>
      <point x="526.3529411764706" y="342.22352941176473"/>
      <point x="526.3529411764706" y="195.25882352941176" type="curve" smooth="yes"/>
      <point x="526.3529411764706" y="47.423529411764704"/>
      <point x="567.8352941176471" y="-9.611764705882353"/>
      <point x="688.5411764705882" y="-9.611764705882353" type="curve" smooth="yes"/>
      <point x="809.2470588235294" y="-9.611764705882353"/>
      <point x="850.7294117647059" y="47.423529411764704"/>
      <point x="850.7294117647059" y="195.25882352941176" type="curve" smooth="yes"/>
      <point x="850.7294117647059" y="342.22352941176473"/>
      <point x="809.2470588235294" y="400.1294117647059"/>
    </contour>
    <contour>
      <point x="687.6705882352941" y="339.3411764705882" type="curve" smooth="yes"/>
      <point x="755.8117647058823" y="339.3411764705882"/>
      <point x="777.2352941176471" y="304.9764705882353"/>
      <point x="777.2352941176471" y="195.25882352941176" type="curve" smooth="yes"/>
      <point x="777.2352941176471" y="85.54117647058824"/>
      <point x="755.8117647058823" y="50.305882352941175"/>
      <point x="687.6705882352941" y="50.305882352941175" type="curve" smooth="yes"/>
      <point x="619.5294117647059" y="50.305882352941175"/>
      <point x="598.9764705882353" y="85.54117647058824"/>
      <point x="599.8470588235294" y="195.25882352941176" type="curve" smooth="yes"/>
      <point x="598.9764705882353" y="304.9764705882353"/>
      <point x="619.5294117647059" y="339.3411764705882"/>
    </contour>
  </outline>
</glyph>
<glyph name="ampersand" format="2">
  <advance width="769.9411764705883"/>
  <unicode hex="0026"/>
  <outline>
    <contour>
      <point x="345.6823529411765" y="700.6117647058824" type="curve" smooth="yes"/>
      <point x="161.71764705882353" y="700.6117647058824"/>
      <point x="84.32941176470588" y="681.0"/>
      <point x="84.32941176470588" y="521.0" type="curve" smooth="yes"/>
      <point x="84.32941176470588" y="421.25882352941176"/>
      <point x="115.2" y="367.8705882352941"/>
      <point x="199.58823529411765" y="360.0" type="curve"/>
      <point x="199.58823529411765" y="356.0" type="line"/>
      <point x="98.2" y="347.0"/>
      <point x="64.32941176470588" y="280.0"/>
      <point x="64.32941176470588" y="174.87058823529412" type="curve" smooth="yes"/>
      <point x="64.32941176470588" y="35.870588235294115"/>
      <point x="122.07058823529412" y="-10.611764705882353"/>
      <point x="266.81176470588235" y="-10.611764705882353" type="curve" smooth="yes"/>
      <point x="383.7176470588235" y="-10.611764705882353"/>
      <point x="451.2705882352941" y="17.905882352941177"/>
      <point x="515.435294117647" y="98.62352941176471" type="curve"/>
      <point x="501.43529411764706" y="159.89411764705883" type="line"/>
      <point x="449.7529411764706" y="103.62352941176471"/>
      <point x="383.2352941176471" y="76.81176470588235"/>
      <point x="291.8" y="75.94117647058823" type="curve" smooth="yes"/>
      <point x="197.88235294117646" y="75.94117647058823"/>
      <point x="169.5529411764706" y="102.62352941176471"/>
      <point x="169.5529411764706" y="192.28235294117647" type="curve" smooth="yes"/>
      <point x="169.5529411764706" y="290.7176470588235"/>
      <point x="204.4" y="319.1411764705882"/>
      <point x="306.3529411764706" y="319.1411764705882" type="curve" smooth="yes"/>
      <point x="703.4470588235295" y="319.1411764705882" type="line"/>
      <point x="703.8352941176471" y="394.98823529411766" type="line"/>
      <point x="311.5764705882353" y="394.98823529411766" type="line" smooth="yes"/>
      <point x="217.27058823529413" y="394.98823529411766"/>
      <point x="186.0705882352941" y="418.0235294117647"/>
      <point x="186.0705882352941" y="506.94117647058823" type="curve" smooth="yes"/>
      <point x="186.0705882352941" y="603.7647058823529"/>
      <point x="224.04705882352943" y="618.4117647058823"/>
      <point x="342.94117647058823" y="618.4117647058823" type="curve" smooth="yes"/>
      <point x="392.38823529411764" y="618.4117647058823"/>
      <point x="466.01176470588234" y="617.4117647058823"/>
      <point x="493.7176470588235" y="615.4117647058823" type="curve"/>
      <point x="505.5529411764706" y="690.0" type="line"/>
      <point x="445.29411764705884" y="699.6117647058824"/>
      <point x="387.81176470588235" y="700.6117647058824"/>
    </contour>
    <contour>
      <point x="581.1176470588235" y="517.9058823529411" type="line"/>
      <point x="500.43529411764706" y="517.9058823529411" type="line"/>
      <point x="490.08235294117645" y="362.1294117647059" type="line"/>
      <point x="490.08235294117645" y="107.18823529411765" type="line" smooth="yes"/>
      <point x="490.08235294117645" y="33.48235294117647"/>
      <point x="533.9176470588235" y="-9.48235294117647"/>
      <point x="614.8823529411765" y="-9.48235294117647" type="curve" smooth="yes"/>
      <point x="641.4588235294118" y="-9.48235294117647"/>
      <point x="692.9058823529411" y="-4.870588235294117"/>
      <point x="724.2588235294118" y="4.352941176470588" type="curve"/>
      <point x="713.4235294117647" y="75.2" type="line"/>
      <point x="641.964705882353" y="75.2" type="line" smooth="yes"/>
      <point x="597.0588235294117" y="75.2"/>
      <point x="581.1176470588235" y="91.75294117647059"/>
      <point x="581.1176470588235" y="137.78823529411764" type="curve" smooth="yes"/>
    </contour>
  </outline>
</glyph>
<glyph name="quotesingle" format="2">
  <advance width="211.31764705882352"/>
  <unicode hex="0027"/>
  <outline>
    <contour>
      <point x="145.08235294117648" y="690.0" type="line"/>
      <point x="67.10588235294118" y="690.0" type="line"/>
      <point x="72.58823529411765" y="474.16470588235296" type="line"/>
      <point x="138.72941176470587" y="474.16470588235296" type="line"/>
    </contour>
  </outline>
</glyph>
<glyph name="parenleft" format="2">
  <advance width="360.22352941176473"/>
  <unicode hex="0028"/>
  <outline>
    <contour>
      <point x="319.05882352941177" y="790.0" type="line"/>
      <point x="134.2941176470588" y="721.8352941176471"/>
      <point x="50.71764705882353" y="571.8352941176471"/>
      <point x="50.71764705882353" y="312.0" type="curve" smooth="yes"/>
      <point x="50.71764705882353" y="54.16470588235294"/>
      <point x="134.2941176470588" y="-95.83529411764705"/>
      <point x="319.05882352941177" y="-165.0" type="curve"/>
      <point x="330.8941176470588" y="-120.01176470588236" type="line"/>
      <point x="200.43529411764706" y="-53.07058823529412"/>
      <point x="145.49411764705883" y="91.92941176470588"/>
      <point x="145.49411764705883" y="313.0" type="curve" smooth="yes"/>
      <point x="145.49411764705883" y="538.0705882352942"/>
      <point x="200.43529411764706" y="682.0705882352942"/>
      <point x="330.8941176470588" y="745.0117647058823" type="curve"/>
    </contour>
  </outline>
</glyph>
<glyph name="parenright" format="2">
  <advance width="360.22352941176473"/>
  <unicode hex="0029"/>
  <outline>
    <contour>
      <point x="41.16470588235294" y="790.0" type="curve"/>
      <point x="29.32941176470588" y="745.0117647058823" type="line"/>
      <point x="159.78823529411764" y="682.0705882352942"/>
      <point x="214.72941176470587" y="538.0705882352942"/>
      <point x="214.72941176470587" y="313.0" type="curve" smooth="yes"/>
      <point x="214.72941176470587" y="91.92941176470588"/>
      <point x="159.78823529411764" y="-53.07058823529412"/>
      <point x="29.32941176470588" y="-120.01176470588236" type="curve"/>
      <point x="41.16470588235294" y="-165.0" type="line"/>
      <point x="225.9294117647059" y="-95.83529411764705"/>
      <point x="309.50588235294117" y="54.16470588235294"/>
      <point x="309.50588235294117" y="312.0" type="curve" smooth="yes"/>
      <point x="309.50588235294117" y="571.8352941176471"/>
      <point x="225.9294117647059" y="721.8352941176471"/>
    </contour>
  </outline>
</glyph>
<glyph name="asterisk" format="2">
  <advance width="449.5176470588235"/>
  <unicode hex="002A"/>
  <outline>
    <contour>
      <point x="253.8" y="690.8705882352941" type="line"/>
      <point x="195.8470588235294" y="690.8705882352941" type="line"/>
      <point x="204.0705882352941" y="529.1647058823529" type="line"/>
      <point x="102.23529411764706" y="401.16470588235296" type="line"/>
      <point x="149.09411764705882" y="367.2705882352941" type="line"/>
      <point x="224.25882352941176" y="489.52941176470586" type="line"/>
      <point x="300.4235294117647" y="366.2705882352941" type="line"/>
      <point x="346.2823529411765" y="400.16470588235296" type="line"/>
      <point x="244.4470588235294" y="529.1647058823529" type="line"/>
    </contour>
    <contour>
      <point x="68.68235294117648" y="603.3176470588236" type="line"/>
      <point x="50.23529411764706" y="549.1058823529412" type="line"/>
      <point x="174.36470588235295" y="516.2" type="line"/>
      <point x="186.2" y="532.035294117647" type="line"/>
      <point x="187.2" y="556.7058823529412" type="line"/>
    </contour>
    <contour>
      <point x="380.9647058823529" y="603.0588235294117" type="line"/>
      <point x="262.3176470588235" y="556.7058823529412" type="line"/>
      <point x="262.3176470588235" y="532.035294117647" type="line"/>
      <point x="275.0235294117647" y="516.2" type="line"/>
      <point x="399.4117647058824" y="547.9764705882353" type="line"/>
    </contour>
  </outline>
</glyph>
<glyph name="plus" format="2">
  <advance width="550.3882352941176"/>
  <unicode hex="002B"/>
  <outline>
    <contour>
      <point x="495.4470588235294" y="334.98823529411766" type="line"/>
      <point x="54.07058823529412" y="334.98823529411766" type="line"/>
      <point x="54.07058823529412" y="263.36470588235295" type="line"/>
      <point x="495.4470588235294" y="263.36470588235295" type="line"/>
    </contour>
    <contour>
      <point x="311.50588235294117" y="509.8" type="line"/>
      <point x="237.14117647058825" y="509.8" type="line"/>
      <point x="238.14117647058825" y="88.55294117647058" type="line"/>
      <point x="311.3764705882353" y="88.55294117647058" type="line"/>
    </contour>
  </outline>
</glyph>
<glyph name="comma" format="2">
  <advance width="231.50588235294117"/>
  <unicode hex="002C"/>
  <outline>
    <contour>
      <point x="130.76470588235293" y="124.30588235294118" type="curve" smooth="yes"/>
      <point x="102.61176470588235" y="124.30588235294118" type="line" smooth="yes"/>
      <point x="77.2" y="124.30588235294118"/>
      <point x="67.10588235294118" y="115.08235294117647"/>
      <point x="65.49411764705883" y="88.8" type="curve" smooth="yes"/>
      <point x="65.36470588235294" y="30.894117647058824" type="line" smooth="yes"/>
      <point x="65.23529411764706" y="11.83529411764706"/>
      <point x="75.32941176470588" y="0.0"/>
      <point x="92.38823529411765" y="0.0" type="curve"/>
      <point x="92.38823529411765" y="-48.38823529411765"/>
      <point x="88.7764705882353" y="-80.70588235294117"/>
      <point x="81.4235294117647" y="-121.5764705882353" type="curve"/>
      <point x="127.37647058823529" y="-134.41176470588235" type="line"/>
      <point x="150.56470588235294" y="-88.44705882352942"/>
      <point x="164.4" y="-36.44705882352941"/>
      <point x="165.4" y="24.8" type="curve" smooth="yes"/>
      <point x="164.65882352941176" y="88.8" type="line" smooth="yes"/>
      <point x="165.4" y="115.08235294117647"/>
      <point x="157.04705882352943" y="124.30588235294118"/>
    </contour>
  </outline>
</glyph>
<glyph name="hyphen" format="2">
  <advance width="442.08235294117645"/>
  <unicode hex="002D"/>
  <outline>
    <contour>
      <point x="372.6235294117647" y="289.8588235294118" type="line"/>
      <point x="69.45882352941176" y="289.8588235294118" type="line"/>
      <point x="69.45882352941176" y="216.49411764705883" type="line"/>
      <point x="372.6235294117647" y="216.49411764705883" type="line"/>
    </contour>
  </outline>
</glyph>
<glyph name="period" format="2">
  <advance width="232.98823529411766"/>
  <unicode hex="002E"/>
  <outline>
    <contour>
      <point x="132.3764705882353" y="124.30588235294118" type="curve" smooth="yes"/>
      <point x="100.61176470588235" y="124.30588235294118" type="line" smooth="yes"/>
      <point x="74.32941176470588" y="124.30588235294118"/>
      <point x="65.10588235294118" y="115.08235294117647"/>
      <point x="65.10588235294118" y="88.8" type="curve" smooth="yes"/>
      <point x="65.10588235294118" y="35.50588235294118" type="line" smooth="yes"/>
      <point x="65.10588235294118" y="9.223529411764705"/>
      <point x="74.32941176470588" y="0.0"/>
      <point x="100.61176470588235" y="0.0" type="curve" smooth="yes"/>
      <point x="132.3764705882353" y="0.0" type="line" smooth="yes"/>
      <point x="158.65882352941176" y="0.0"/>
      <point x="167.88235294117646" y="9.223529411764705"/>
      <point x="167.88235294117646" y="35.50588235294118" type="curve" smooth="yes"/>
      <point x="167.88235294117646" y="88.8" type="line" smooth="yes"/>
      <point x="167.88235294117646" y="115.08235294117647"/>
      <point x="158.65882352941176" y="124.30588235294118"/>
    </contour>
  </outline>
</glyph>
<glyph name="slash" format="2">
  <advance width="521.8588235294118"/>
  <unicode hex="002F"/>
  <outline>
    <contour>
      <point x="496.91764705882355" y="690.0" type="line"/>
      <point x="417.94117647058823" y="690.0" type="line"/>
      <point x="24.941176470588236" y="-66.83529411764705" type="line"/>
      <point x="103.91764705882353" y="-66.83529411764705" type="line"/>
    </contour>
  </outline>
</glyph>
<glyph name="zero" format="2">
  <advance width="606.635294117647"/>
  <unicode hex="0030"/>
  <outline>
    <contour>
      <point x="303.3176470588235" y="702.8705882352941" type="curve" smooth="yes"/>
      <point x="123.16470588235295" y="702.8705882352941"/>
      <point x="61.32941176470588" y="599.3176470588236"/>
      <point x="61.32941176470588" y="345.0" type="curve" smooth="yes"/>
      <point x="61.32941176470588" y="90.68235294117648"/>
      <point x="123.16470588235295" y="-12.870588235294118"/>
      <point x="303.3176470588235" y="-12.870588235294118" type="curve" smooth="yes"/>
      <point x="483.47058823529414" y="-12.870588235294118"/>
      <point x="545.3058823529411" y="90.68235294117648"/>
      <point x="545.3058823529411" y="345.0" type="curve" smooth="yes"/>
      <point x="545.3058823529411" y="599.3176470588236"/>
      <point x="483.47058823529414" y="702.8705882352941"/>
    </contour>
    <contour>
      <point x="302.4470588235294" y="616.3176470588236" type="curve" smooth="yes"/>
      <point x="413.1058823529412" y="616.3176470588236"/>
      <point x="447.91764705882355" y="544.2705882352941"/>
      <point x="447.91764705882355" y="345.0" type="curve" smooth="yes"/>
      <point x="447.91764705882355" y="145.72941176470587"/>
      <point x="413.1058823529412" y="73.68235294117648"/>
      <point x="302.4470588235294" y="73.68235294117648" type="curve" smooth="yes"/>
      <point x="193.52941176470588" y="73.68235294117648"/>
      <point x="158.71764705882353" y="145.72941176470587"/>
      <point x="158.71764705882353" y="345.0" type="curve" smooth="yes"/>
      <point x="158.71764705882353" y="544.2705882352941"/>
      <point x="193.52941176470588" y="616.3176470588236"/>
    </contour>
  </outline>
</glyph>
<glyph name="one" format="2">
  <advance width="402.3764705882353"/>
  <unicode hex="0031"/>
  <outline>
    <contour>
      <point x="292.78823529411767" y="690.0" type="line"/>
      <point x="192.91764705882352" y="690.0" type="line"/>
      <point x="19.58823529411765" y="619.6117647058824" type="line"/>
      <point x="32.423529411764704" y="545.2823529411764" type="line"/>
      <point x="197.65882352941176" y="596.0941176470589" type="line"/>
      <point x="193.91764705882352" y="575.0"/>
      <point x="192.91764705882352" y="554.6470588235294"/>
      <point x="192.91764705882352" y="533.5529411764705" type="curve" smooth="yes"/>
      <point x="192.91764705882352" y="0.0" type="line"/>
      <point x="292.78823529411767" y="0.0" type="line"/>
    </contour>
  </outline>
</glyph>
<glyph name="two" format="2">
  <advance width="563.0941176470589"/>
  <unicode hex="0032"/>
  <outline>
    <contour>
      <point x="272.70588235294116" y="702.0" type="curve" smooth="yes"/>
      <point x="209.74117647058824" y="702.0"/>
      <point x="153.42352941176472" y="698.0"/>
      <point x="59.294117647058826" y="676.7411764705882" type="curve"/>
      <point x="65.29411764705883" y="598.6705882352941" type="line"/>
      <point x="152.03529411764706" y="611.4470588235295"/>
      <point x="199.03529411764706" y="613.7058823529412"/>
      <point x="263.77647058823527" y="613.7058823529412" type="curve" smooth="yes"/>
      <point x="340.01176470588234" y="613.7058823529412"/>
      <point x="383.50588235294117" y="606.3176470588236"/>
      <point x="385.7647058823529" y="545.0117647058823" type="curve" smooth="yes"/>
      <point x="387.8941176470588" y="482.0352941176471"/>
      <point x="346.8941176470588" y="414.74117647058824"/>
      <point x="260.8588235294118" y="321.54117647058825" type="curve" smooth="yes"/>
      <point x="68.74117647058823" y="105.48235294117647" type="line" smooth="yes"/>
      <point x="57.03529411764706" y="92.7764705882353"/>
      <point x="54.16470588235294" y="80.07058823529411"/>
      <point x="54.16470588235294" y="62.752941176470586" type="curve" smooth="yes"/>
      <point x="54.16470588235294" y="0.0" type="line"/>
      <point x="510.8" y="0.0" type="line"/>
      <point x="510.8" y="96.87058823529412" type="line"/>
      <point x="285.38823529411764" y="96.87058823529412" type="line" smooth="yes"/>
      <point x="250.61176470588236" y="96.87058823529412"/>
      <point x="209.74117647058824" y="96.0"/>
      <point x="174.96470588235294" y="92.51764705882353" type="curve"/>
      <point x="366.91764705882355" y="303.9294117647059" type="line" smooth="yes"/>
      <point x="458.1764705882353" y="404.9647058823529"/>
      <point x="486.7647058823529" y="465.6470588235294"/>
      <point x="486.7647058823529" y="550.9411764705883" type="curve" smooth="yes"/>
      <point x="486.7647058823529" y="676.7764705882353"/>
      <point x="405.05882352941177" y="702.0"/>
    </contour>
  </outline>
</glyph>
<glyph name="three" format="2">
  <advance width="557.2235294117647"/>
  <unicode hex="0033"/>
  <outline>
    <contour>
      <point x="260.05882352941177" y="702.8705882352941" type="curve" smooth="yes"/>
      <point x="194.83529411764707" y="702.8705882352941"/>
      <point x="131.38823529411764" y="696.8705882352941"/>
      <point x="62.294117647058826" y="685.0" type="curve"/>
      <point x="69.29411764705883" y="606.9294117647058" type="line"/>
      <point x="116.03529411764706" y="611.1882352941177"/>
      <point x="179.7764705882353" y="614.5764705882353"/>
      <point x="245.38823529411764" y="614.5764705882353" type="curve" smooth="yes"/>
      <point x="346.3058823529412" y="614.5764705882353"/>
      <point x="377.2470588235294" y="602.8588235294118"/>
      <point x="378.50588235294117" y="519.364705882353" type="curve" smooth="yes"/>
      <point x="379.3764705882353" y="455.9764705882353"/>
      <point x="368.8588235294118" y="401.7647058823529"/>
      <point x="263.81176470588235" y="401.3764705882353" type="curve" smooth="yes"/>
      <point x="136.5529411764706" y="400.98823529411766" type="line"/>
      <point x="136.5529411764706" y="322.91764705882355" type="line"/>
      <point x="263.81176470588235" y="322.78823529411767" type="line" smooth="yes"/>
      <point x="371.98823529411766" y="322.6588235294118"/>
      <point x="393.8941176470588" y="276.74117647058824"/>
      <point x="393.8941176470588" y="203.31764705882352" type="curve" smooth="yes"/>
      <point x="393.8941176470588" y="107.14117647058823"/>
      <point x="353.8235294117647" y="76.29411764705883"/>
      <point x="246.58823529411765" y="76.29411764705883" type="curve" smooth="yes"/>
      <point x="183.5529411764706" y="76.29411764705883"/>
      <point x="126.61176470588235" y="79.68235294117648"/>
      <point x="56.55294117647059" y="85.68235294117648" type="curve"/>
      <point x="50.55294117647059" y="5.0" type="line"/>
      <point x="120.7764705882353" y="-4.870588235294117"/>
      <point x="196.87058823529412" y="-12.870588235294118"/>
      <point x="272.09411764705885" y="-12.870588235294118" type="curve" smooth="yes"/>
      <point x="436.67058823529413" y="-12.870588235294118"/>
      <point x="495.0235294117647" y="51.64705882352941"/>
      <point x="492.8941176470588" y="192.0" type="curve" smooth="yes"/>
      <point x="490.8941176470588" y="287.83529411764704"/>
      <point x="463.50588235294117" y="350.0"/>
      <point x="374.47058823529414" y="365.0" type="curve"/>
      <point x="374.47058823529414" y="369.0" type="line"/>
      <point x="453.11764705882354" y="384.25882352941176"/>
      <point x="474.7647058823529" y="453.16470588235296"/>
      <point x="474.7647058823529" y="543.0" type="curve" smooth="yes"/>
      <point x="474.7647058823529" y="664.8705882352941"/>
      <point x="410.4470588235294" y="702.8705882352941"/>
    </contour>
  </outline>
</glyph>
<glyph name="four" format="2">
  <advance width="618.5058823529412"/>
  <unicode hex="0034"/>
  <outline>
    <contour>
      <point x="334.11764705882354" y="690.0" type="line"/>
      <point x="235.85882352941178" y="690.0" type="line"/>
      <point x="45.07058823529412" y="276.61176470588236" type="line" smooth="yes"/>
      <point x="20.71764705882353" y="222.2"/>
      <point x="54.423529411764704" y="163.78823529411764"/>
      <point x="114.5764705882353" y="163.78823529411764" type="curve" smooth="yes"/>
      <point x="486.52941176470586" y="163.78823529411764" type="line"/>
      <point x="576.564705882353" y="173.88235294117646" type="line"/>
      <point x="576.564705882353" y="244.98823529411766" type="line"/>
      <point x="171.94117647058823" y="244.98823529411766" type="line" smooth="yes"/>
      <point x="149.2941176470588" y="244.98823529411766"/>
      <point x="136.03529411764706" y="257.8"/>
      <point x="148.16470588235293" y="284.4117647058824" type="curve" smooth="yes"/>
    </contour>
    <contour>
      <point x="486.7294117647059" y="557.3882352941176" type="line"/>
      <point x="409.52941176470586" y="557.3882352941176" type="line"/>
      <point x="392.08235294117645" y="444.74117647058824" type="line"/>
      <point x="392.08235294117645" y="0.0" type="line"/>
      <point x="486.7294117647059" y="0.0" type="line"/>
    </contour>
  </outline>
</glyph>
<glyph name="five" format="2">
  <advance width="538.1882352941177"/>
  <unicode hex="0035"/>
  <outline>
    <contour>
      <point x="464.11764705882354" y="690.0" type="line"/>
      <point x="92.68235294117648" y="690.0" type="line"/>
      <point x="76.94117647058823" y="394.1294117647059" type="line" smooth="yes"/>
      <point x="75.94117647058823" y="370.45882352941175"/>
      <point x="91.51764705882353" y="352.2705882352941"/>
      <point x="114.31764705882352" y="350.52941176470586" type="curve" smooth="yes"/>
      <point x="165.75294117647059" y="346.1764705882353" type="line" smooth="yes"/>
      <point x="331.0705882352941" y="333.11764705882354"/>
      <point x="388.7294117647059" y="328.3411764705882"/>
      <point x="386.11764705882354" y="207.35294117647058" type="curve" smooth="yes"/>
      <point x="384.3764705882353" y="121.21176470588236"/>
      <point x="360.7294117647059" y="77.03529411764706"/>
      <point x="235.42352941176472" y="77.03529411764706" type="curve" smooth="yes"/>
      <point x="189.42352941176472" y="77.03529411764706"/>
      <point x="122.4235294117647" y="83.4235294117647"/>
      <point x="60.55294117647059" y="94.07058823529411" type="curve"/>
      <point x="49.32941176470588" y="12.51764705882353" type="line"/>
      <point x="125.16470588235295" y="-3.8705882352941177"/>
      <point x="202.48235294117646" y="-12.0"/>
      <point x="259.18823529411765" y="-12.0" type="curve" smooth="yes"/>
      <point x="448.3176470588235" y="-12.0"/>
      <point x="484.11764705882354" y="96.74117647058823"/>
      <point x="484.11764705882354" y="207.35294117647058" type="curve" smooth="yes"/>
      <point x="484.98823529411766" y="351.7529411764706"/>
      <point x="419.49411764705883" y="409.5764705882353"/>
      <point x="242.12941176470588" y="424.7647058823529" type="curve" smooth="yes"/>
      <point x="164.49411764705883" y="431.7294117647059" type="line"/>
      <point x="173.88235294117646" y="604.4470588235295" type="line"/>
      <point x="460.2470588235294" y="604.4470588235295" type="line"/>
    </contour>
  </outline>
</glyph>
<glyph name="six" format="2">
  <advance width="573.5764705882353"/>
  <unicode hex="0036"/>
  <outline>
    <contour>
      <point x="334.0" y="702.0" type="curve" smooth="yes"/>
      <point x="151.87058823529412" y="702.0"/>
      <point x="63.588235294117645" y="652.7411764705882"/>
      <point x="63.588235294117645" y="332.47058823529414" type="curve" smooth="yes"/>
      <point x="63.588235294117645" y="66.03529411764706"/>
      <point x="103.16470588235295" y="-12.0"/>
      <point x="299.9647058823529" y="-12.0" type="curve" smooth="yes"/>
      <point x="487.54117647058825" y="-12.0"/>
      <point x="521.3764705882353" y="83.05882352941177"/>
      <point x="521.3764705882353" y="226.0235294117647" type="curve" smooth="yes"/>
      <point x="521.3764705882353" y="391.5764705882353"/>
      <point x="476.50588235294117" y="452.3176470588235"/>
      <point x="330.8941176470588" y="452.3176470588235" type="curve" smooth="yes"/>
      <point x="234.89411764705883" y="452.3176470588235"/>
      <point x="185.3764705882353" y="425.3176470588235"/>
      <point x="120.24705882352941" y="330.22352941176473" type="curve"/>
      <point x="124.24705882352941" y="280.2705882352941" type="line"/>
      <point x="200.11764705882354" y="351.7294117647059"/>
      <point x="240.31764705882352" y="371.11764705882354"/>
      <point x="304.5176470588235" y="371.11764705882354" type="curve" smooth="yes"/>
      <point x="400.6941176470588" y="371.11764705882354"/>
      <point x="425.8588235294118" y="331.2705882352941"/>
      <point x="425.8588235294118" y="225.54117647058823" type="curve" smooth="yes"/>
      <point x="425.8588235294118" y="127.4"/>
      <point x="412.43529411764706" y="73.55294117647058"/>
      <point x="300.9647058823529" y="73.55294117647058" type="curve" smooth="yes"/>
      <point x="170.65882352941176" y="73.55294117647058"/>
      <point x="161.8470588235294" y="129.69411764705882"/>
      <point x="161.8470588235294" y="329.47058823529414" type="curve" smooth="yes"/>
      <point x="161.8470588235294" y="579.1176470588235"/>
      <point x="204.52941176470588" y="617.1882352941177"/>
      <point x="334.0" y="617.1882352941177" type="curve" smooth="yes"/>
      <point x="396.18823529411765" y="617.1882352941177"/>
      <point x="423.54117647058825" y="617.1882352941177"/>
      <point x="469.3764705882353" y="613.6705882352941" type="curve"/>
      <point x="477.3764705882353" y="686.5176470588235" type="line"/>
      <point x="419.8" y="702.0"/>
      <point x="362.3529411764706" y="702.0"/>
    </contour>
  </outline>
</glyph>
<glyph name="seven" format="2">
  <advance width="513.7058823529412"/>
  <unicode hex="0037"/>
  <outline>
    <contour>
      <point x="430.22352941176473" y="690.0" type="curve" smooth="yes"/>
      <point x="36.68235294117647" y="690.0" type="line"/>
      <point x="41.294117647058826" y="605.3176470588236" type="line"/>
      <point x="377.67058823529413" y="605.3176470588236" type="line"/>
      <point x="368.4470588235294" y="587.964705882353"/>
      <point x="360.83529411764704" y="569.8705882352941"/>
      <point x="355.09411764705885" y="551.6470588235294" type="curve" smooth="yes"/>
      <point x="165.69411764705882" y="0.0" type="line"/>
      <point x="265.56470588235294" y="0.0" type="line"/>
      <point x="478.50588235294117" y="625.4941176470588" type="line" smooth="yes"/>
      <point x="491.11764705882354" y="665.0705882352942"/>
      <point x="472.8" y="690.0"/>
    </contour>
  </outline>
</glyph>
<glyph name="eight" format="2">
  <advance width="606.6470588235294"/>
  <unicode hex="0038"/>
  <outline>
    <contour>
      <point x="303.38823529411764" y="700.6117647058824" type="curve" smooth="yes"/>
      <point x="126.32941176470588" y="700.6117647058824"/>
      <point x="81.58823529411765" y="644.6117647058824"/>
      <point x="81.58823529411765" y="518.0" type="curve" smooth="yes"/>
      <point x="81.58823529411765" y="430.3176470588235"/>
      <point x="109.71764705882353" y="368.0"/>
      <point x="179.71764705882353" y="360.0" type="curve"/>
      <point x="179.71764705882353" y="356.0" type="line"/>
      <point x="92.23529411764706" y="347.0"/>
      <point x="65.84705882352941" y="277.6823529411765"/>
      <point x="65.84705882352941" y="172.0" type="curve" smooth="yes"/>
      <point x="65.84705882352941" y="47.09411764705882"/>
      <point x="114.45882352941176" y="-10.611764705882353"/>
      <point x="303.38823529411764" y="-10.611764705882353" type="curve" smooth="yes"/>
      <point x="495.3176470588235" y="-10.611764705882353"/>
      <point x="540.8" y="47.09411764705882"/>
      <point x="540.8" y="172.0" type="curve" smooth="yes"/>
      <point x="540.8" y="277.6823529411765"/>
      <point x="514.4117647058823" y="347.0"/>
      <point x="426.9294117647059" y="356.0" type="curve"/>
      <point x="426.9294117647059" y="360.0" type="line"/>
      <point x="496.9294117647059" y="368.0"/>
      <point x="525.0588235294117" y="430.3176470588235"/>
      <point x="525.0588235294117" y="518.0" type="curve" smooth="yes"/>
      <point x="525.0588235294117" y="644.6117647058824"/>
      <point x="481.4470588235294" y="699.8705882352941"/>
    </contour>
    <contour>
      <point x="305.25882352941176" y="318.2705882352941" type="curve" smooth="yes"/>
      <point x="419.47058823529414" y="318.2705882352941"/>
      <point x="445.2823529411765" y="293.78823529411767"/>
      <point x="445.2823529411765" y="193.76470588235293" type="curve" smooth="yes"/>
      <point x="445.2823529411765" y="104.27058823529411"/>
      <point x="419.7294117647059" y="75.2"/>
      <point x="304.25882352941176" y="75.2" type="curve" smooth="yes"/>
      <point x="188.1764705882353" y="75.2"/>
      <point x="160.49411764705883" y="104.27058823529411"/>
      <point x="160.49411764705883" y="193.76470588235293" type="curve" smooth="yes"/>
      <point x="160.49411764705883" y="291.78823529411767"/>
      <point x="187.91764705882352" y="317.2705882352941"/>
    </contour>
    <contour>
      <point x="304.25882352941176" y="620.1529411764706" type="curve" smooth="yes"/>
      <point x="411.47058823529414" y="620.1529411764706"/>
      <point x="433.8941176470588" y="593.0823529411765"/>
      <point x="433.8941176470588" y="508.4235294117647" type="curve" smooth="yes"/>
      <point x="433.8941176470588" y="421.47058823529414"/>
      <point x="414.47058823529414" y="397.7294117647059"/>
      <point x="305.25882352941176" y="397.7294117647059" type="curve" smooth="yes"/>
      <point x="198.30588235294118" y="397.7294117647059"/>
      <point x="172.75294117647059" y="420.3411764705882"/>
      <point x="172.75294117647059" y="508.4235294117647" type="curve" smooth="yes"/>
      <point x="172.75294117647059" y="593.0823529411765"/>
      <point x="197.30588235294118" y="620.1529411764706"/>
    </contour>
  </outline>
</glyph>
<glyph name="nine" format="2">
  <advance width="573.7058823529412"/>
  <unicode hex="0039"/>
  <outline>
    <contour>
      <point x="276.9647058823529" y="702.0" type="curve" smooth="yes"/>
      <point x="110.61176470588235" y="702.0"/>
      <point x="52.2" y="623.8352941176471"/>
      <point x="53.07058823529412" y="462.6823529411765" type="curve" smooth="yes"/>
      <point x="53.07058823529412" y="335.83529411764704"/>
      <point x="97.45882352941176" y="237.68235294117648"/>
      <point x="239.81176470588235" y="237.68235294117648" type="curve" smooth="yes"/>
      <point x="335.6823529411765" y="237.68235294117648"/>
      <point x="385.2" y="264.6823529411765"/>
      <point x="450.32941176470587" y="359.77647058823527" type="curve"/>
      <point x="446.32941176470587" y="408.8588235294118" type="line"/>
      <point x="370.45882352941175" y="338.2705882352941"/>
      <point x="331.1294117647059" y="318.01176470588234"/>
      <point x="267.05882352941177" y="318.01176470588234" type="curve" smooth="yes"/>
      <point x="173.27058823529413" y="318.01176470588234"/>
      <point x="146.8470588235294" y="369.3764705882353"/>
      <point x="147.71764705882353" y="463.29411764705884" type="curve" smooth="yes"/>
      <point x="146.8470588235294" y="562.6941176470589"/>
      <point x="167.65882352941176" y="617.3176470588236"/>
      <point x="276.09411764705885" y="617.3176470588236" type="curve" smooth="yes"/>
      <point x="406.21176470588233" y="617.3176470588236"/>
      <point x="411.3411764705882" y="560.435294117647"/>
      <point x="411.3411764705882" y="356.22352941176473" type="curve" smooth="yes"/>
      <point x="411.3411764705882" y="126.25882352941176"/>
      <point x="372.5882352941176" y="73.68235294117648"/>
      <point x="237.4470588235294" y="73.68235294117648" type="curve" smooth="yes"/>
      <point x="166.38823529411764" y="73.68235294117648"/>
      <point x="141.42352941176472" y="73.94117647058823"/>
      <point x="92.58823529411765" y="77.2" type="curve"/>
      <point x="84.58823529411765" y="3.4823529411764707" type="line"/>
      <point x="147.90588235294118" y="-12.0"/>
      <point x="206.2235294117647" y="-12.0"/>
      <point x="238.31764705882352" y="-12.0" type="curve" smooth="yes"/>
      <point x="432.11764705882354" y="-12.0"/>
      <point x="506.98823529411766" y="45.705882352941174"/>
      <point x="507.8588235294118" y="353.1294117647059" type="curve" smooth="yes"/>
      <point x="507.8588235294118" y="619.6117647058824"/>
      <point x="478.9294117647059" y="702.0"/>
    </contour>
  </outline>
</glyph>
<glyph name="less" format="2">
  <advance width="527.9411764705883"/>
  <unicode hex="003C"/>
  <outline>
    <contour>
      <point x="459.74117647058824" y="509.0235294117647" type="line"/>
      <point x="51.07058823529412" y="336.47058823529414" type="line"/>
      <point x="51.07058823529412" y="260.49411764705883" type="line"/>
      <point x="459.74117647058824" y="90.45882352941176" type="line"/>
      <point x="459.74117647058824" y="167.30588235294118" type="line"/>
      <point x="134.27058823529413" y="298.4823529411765" type="line"/>
      <point x="459.74117647058824" y="432.1764705882353" type="line"/>
    </contour>
  </outline>
</glyph>
<glyph name="equal" format="2">
  <advance width="584.6470588235294"/>
  <unicode hex="003D"/>
  <outline>
    <contour>
      <point x="513.4470588235295" y="434.8588235294118" type="line"/>
      <point x="71.2" y="434.8588235294118" type="line"/>
      <point x="71.2" y="363.2352941176471" type="line"/>
      <point x="513.4470588235295" y="363.2352941176471" type="line"/>
    </contour>
    <contour>
      <point x="513.4470588235295" y="223.72941176470587" type="line"/>
      <point x="71.2" y="223.72941176470587" type="line"/>
      <point x="71.2" y="152.10588235294117" type="line"/>
      <point x="513.4470588235295" y="152.10588235294117" type="line"/>
    </contour>
  </outline>
</glyph>
<glyph name="greater" format="2">
  <advance width="527.9411764705883"/>
  <unicode hex="003E"/>
  <outline>
    <contour>
      <point x="68.2" y="509.0235294117647" type="line"/>
      <point x="68.2" y="432.1764705882353" type="line"/>
      <point x="393.67058823529413" y="298.4823529411765" type="line"/>
      <point x="68.2" y="167.30588235294118" type="line"/>
      <point x="68.2" y="90.45882352941176" type="line"/>
      <point x="476.8705882352941" y="260.49411764705883" type="line"/>
      <point x="476.8705882352941" y="336.47058823529414" type="line"/>
    </contour>
  </outline>
</glyph>
<glyph name="question" format="2">
  <advance width="504.38823529411764"/>
  <unicode hex="003F"/>
  <outline>
    <contour>
      <point x="260.83529411764704" y="712.0" type="curve" smooth="yes"/>
      <point x="140.38823529411764" y="712.0"/>
      <point x="107.90588235294118" y="702.2588235294118"/>
      <point x="37.811764705882354" y="690.5176470588235" type="curve"/>
      <point x="42.811764705882354" y="621.1529411764706" type="line"/>
      <point x="109.81176470588235" y="626.6705882352941"/>
      <point x="140.68235294117648" y="629.9294117647058"/>
      <point x="239.94117647058823" y="629.9294117647058" type="curve" smooth="yes"/>
      <point x="327.3411764705882" y="629.9294117647058"/>
      <point x="364.8" y="600.9882352941177"/>
      <point x="362.18823529411765" y="539.5882352941177" type="curve" smooth="yes"/>
      <point x="358.70588235294116" y="435.0235294117647"/>
      <point x="197.56470588235294" y="395.25882352941176"/>
      <point x="201.91764705882352" y="212.57647058823528" type="curve"/>
      <point x="284.2470588235294" y="212.57647058823528" type="line"/>
      <point x="291.21176470588233" y="384.3529411764706"/>
      <point x="464.67058823529413" y="407.4823529411765"/>
      <point x="464.67058823529413" y="557.0" type="curve" smooth="yes"/>
      <point x="464.67058823529413" y="663.0"/>
      <point x="396.67058823529413" y="712.0"/>
    </contour>
    <contour>
      <point x="255.35294117647058" y="124.30588235294118" type="curve" smooth="yes"/>
      <point x="230.5529411764706" y="124.30588235294118" type="line" smooth="yes"/>
      <point x="204.27058823529413" y="124.30588235294118"/>
      <point x="195.04705882352943" y="115.08235294117647"/>
      <point x="195.04705882352943" y="88.8" type="curve" smooth="yes"/>
      <point x="195.04705882352943" y="35.50588235294118" type="line" smooth="yes"/>
      <point x="195.04705882352943" y="9.223529411764705"/>
      <point x="204.27058823529413" y="0.0"/>
      <point x="230.5529411764706" y="0.0" type="curve" smooth="yes"/>
      <point x="255.35294117647058" y="0.0" type="line" smooth="yes"/>
      <point x="281.63529411764705" y="0.0"/>
      <point x="290.8588235294118" y="9.223529411764705"/>
      <point x="290.8588235294118" y="35.50588235294118" type="curve" smooth="yes"/>
      <point x="290.8588235294118" y="88.8" type="line" smooth="yes"/>
      <point x="290.8588235294118" y="115.08235294117647"/>
      <point x="281.63529411764705" y="124.30588235294118"/>
    </contour>
  </outline>
</glyph>
<glyph name="at" format="2">
  <advance width="722.6"/>
  <unicode hex="0040"/>
  <outline>
    <contour>
      <point x="498.7647058823529" y="587.8941176470588" type="curve" smooth="yes"/>
      <point x="354.4117647058824" y="587.8941176470588" type="line" smooth="yes"/>
      <point x="99.71764705882353" y="586.7647058823529"/>
      <point x="71.36470588235294" y="548.6705882352941"/>
      <point x="71.36470588235294" y="266.61176470588236" type="curve" smooth="yes"/>
      <point x="71.36470588235294" y="-22.96470588235294"/>
      <point x="103.58823529411765" y="-62.31764705882353"/>
      <point x="390.8588235294118" y="-60.05882352941177" type="curve" smooth="yes"/>
      <point x="477.8235294117647" y="-60.05882352941177"/>
      <point x="564.7882352941176" y="-56.44705882352941"/>
      <point x="650.8823529411765" y="-50.96470588235294" type="curve"/>
      <point x="650.8823529411765" y="21.141176470588235" type="line"/>
      <point x="389.8588235294118" y="21.141176470588235" type="line" smooth="yes"/>
      <point x="187.4" y="21.141176470588235"/>
      <point x="163.27058823529413" y="26.823529411764707"/>
      <point x="163.27058823529413" y="266.74117647058824" type="curve" smooth="yes"/>
      <point x="163.27058823529413" y="497.6588235294118"/>
      <point x="185.78823529411764" y="507.56470588235294"/>
      <point x="354.54117647058825" y="507.56470588235294" type="curve" smooth="yes"/>
      <point x="480.3529411764706" y="507.56470588235294" type="line" smooth="yes"/>
      <point x="542.8470588235294" y="507.6941176470588"/>
      <point x="561.6235294117647" y="490.81176470588235"/>
      <point x="561.6235294117647" y="437.81176470588235" type="curve" smooth="yes"/>
      <point x="561.6235294117647" y="400.15294117647056" type="line"/>
      <point x="361.54117647058825" y="400.15294117647056" type="line" smooth="yes"/>
      <point x="285.18823529411765" y="400.15294117647056"/>
      <point x="246.6705882352941" y="360.8"/>
      <point x="246.6705882352941" y="296.05882352941177" type="curve" smooth="yes"/>
      <point x="246.6705882352941" y="245.54117647058823" type="line" smooth="yes"/>
      <point x="246.6705882352941" y="164.61176470588236"/>
      <point x="301.3764705882353" y="124.0"/>
      <point x="378.50588235294117" y="124.0" type="curve" smooth="yes"/>
      <point x="460.8" y="124.0"/>
      <point x="536.2941176470588" y="169.64705882352942"/>
      <point x="571.2" y="206.51764705882354" type="curve"/>
      <point x="580.5529411764705" y="132.48235294117646" type="line"/>
      <point x="653.2705882352941" y="132.48235294117646" type="line"/>
      <point x="653.2705882352941" y="441.29411764705884" type="line" smooth="yes"/>
      <point x="653.2705882352941" y="548.8"/>
      <point x="597.1764705882352" y="587.8941176470588"/>
    </contour>
    <contour>
      <point x="561.6235294117647" y="341.36470588235295" type="line"/>
      <point x="561.6235294117647" y="263.21176470588233" type="line"/>
      <point x="518.5529411764705" y="221.56470588235294"/>
      <point x="450.0235294117647" y="200.71764705882353"/>
      <point x="397.52941176470586" y="200.8470588235294" type="curve" smooth="yes"/>
      <point x="358.6470588235294" y="200.9764705882353"/>
      <point x="336.83529411764704" y="216.91764705882352"/>
      <point x="336.83529411764704" y="263.08235294117645" type="curve" smooth="yes"/>
      <point x="336.83529411764704" y="283.8705882352941" type="line" smooth="yes"/>
      <point x="336.83529411764704" y="321.5529411764706"/>
      <point x="351.4235294117647" y="335.36470588235295"/>
      <point x="396.36470588235295" y="337.36470588235295" type="curve" smooth="yes"/>
    </contour>
  </outline>
</glyph>
<glyph name="B" format="2">
  <advance width="621.5764705882353"/>
  <unicode hex="0042"/>
  <outline>
    <contour>
      <point x="313.54117647058825" y="698.0" type="curve" smooth="yes"/>
      <point x="209.61176470588236" y="698.0"/>
      <point x="154.5529411764706" y="697.0"/>
      <point x="83.84705882352941" y="690.0" type="curve"/>
      <point x="97.84705882352941" y="610.1882352941177" type="line"/>
      <point x="141.0" y="613.9294117647058"/>
      <point x="209.0" y="613.1882352941177"/>
      <point x="309.18823529411765" y="613.1882352941177" type="curve" smooth="yes"/>
      <point x="413.1411764705882" y="613.1882352941177"/>
      <point x="448.6" y="592.8941176470588"/>
      <point x="448.6" y="505.81176470588235" type="curve" smooth="yes"/>
      <point x="448.6" y="418.0235294117647"/>
      <point x="416.4" y="395.98823529411766"/>
      <point x="322.22352941176473" y="395.8588235294118" type="curve" smooth="yes"/>
      <point x="96.84705882352941" y="395.8588235294118" type="line"/>
      <point x="96.84705882352941" y="319.1411764705882" type="line"/>
      <point x="323.09411764705885" y="319.1411764705882" type="line" smooth="yes"/>
      <point x="429.6588235294118" y="318.01176470588234"/>
      <point x="465.11764705882354" y="290.7176470588235"/>
      <point x="465.11764705882354" y="189.41176470588235" type="curve" smooth="yes"/>
      <point x="465.11764705882354" y="97.97647058823529"/>
      <point x="431.78823529411767" y="76.81176470588235"/>
      <point x="328.74117647058824" y="76.81176470588235" type="curve" smooth="yes"/>
      <point x="217.16470588235293" y="76.81176470588235"/>
      <point x="127.58823529411765" y="77.81176470588235"/>
      <point x="97.84705882352941" y="79.81176470588235" type="curve"/>
      <point x="83.84705882352941" y="0.0" type="line"/>
      <point x="163.5529411764706" y="-7.0"/>
      <point x="224.74117647058824" y="-8.0"/>
      <point x="344.4117647058824" y="-8.0" type="curve" smooth="yes"/>
      <point x="503.0235294117647" y="-8.0"/>
      <point x="565.9882352941177" y="30.0"/>
      <point x="565.9882352941177" y="172.0" type="curve" smooth="yes"/>
      <point x="565.9882352941177" y="282.0"/>
      <point x="531.1176470588235" y="347.0"/>
      <point x="428.11764705882354" y="356.0" type="curve"/>
      <point x="428.11764705882354" y="360.0" type="line"/>
      <point x="510.98823529411766" y="368.0"/>
      <point x="545.1176470588235" y="419.0"/>
      <point x="545.1176470588235" y="518.0" type="curve" smooth="yes"/>
      <point x="545.1176470588235" y="660.0"/>
      <point x="484.3764705882353" y="698.0"/>
    </contour>
    <contour>
      <point x="181.9764705882353" y="690.0" type="line"/>
      <point x="83.84705882352941" y="690.0" type="line"/>
      <point x="83.84705882352941" y="0.0" type="line"/>
      <point x="181.9764705882353" y="0.0" type="line"/>
    </contour>
  </outline>
</glyph>
<glyph name="D" format="2">
  <advance width="665.0941176470589"/>
  <unicode hex="0044"/>
  <anchor x="323.61176470588236" y="-12.0" name="bottom"/>
  <anchor x="317.0352941176471" y="733.035294117647" name="top"/>
  <outline>
    <contour>
      <point x="332.8705882352941" y="699.0" type="curve" smooth="yes"/>
      <point x="236.2941176470588" y="699.0"/>
      <point x="156.81176470588235" y="695.0"/>
      <point x="83.84705882352941" y="690.0" type="curve"/>
      <point x="127.8" y="610.1882352941177" type="line"/>
      <point x="189.31764705882352" y="610.4470588235295"/>
      <point x="251.2235294117647" y="612.4470588235295"/>
      <point x="332.8705882352941" y="612.4470588235295" type="curve" smooth="yes"/>
      <point x="458.8235294117647" y="612.4470588235295"/>
      <point x="500.4117647058824" y="546.4705882352941"/>
      <point x="500.4117647058824" y="345.0" type="curve" smooth="yes"/>
      <point x="500.4117647058824" y="143.52941176470588"/>
      <point x="458.8235294117647" y="78.4235294117647"/>
      <point x="332.8705882352941" y="78.4235294117647" type="curve" smooth="yes"/>
      <point x="249.61176470588236" y="78.4235294117647"/>
      <point x="180.87058823529412" y="80.4235294117647"/>
      <point x="126.44705882352942" y="82.29411764705883" type="curve"/>
      <point x="83.84705882352941" y="0.0" type="line"/>
      <point x="156.94117647058823" y="-5.0"/>
      <point x="237.03529411764706" y="-9.0"/>
      <point x="332.8705882352941" y="-9.0" type="curve" smooth="yes"/>
      <point x="533.5411764705882" y="-9.0"/>
      <point x="605.635294117647" y="77.16470588235295"/>
      <point x="605.635294117647" y="345.0" type="curve" smooth="yes"/>
      <point x="605.635294117647" y="612.8352941176471"/>
      <point x="533.5411764705882" y="699.0"/>
    </contour>
    <contour>
      <point x="183.71764705882353" y="690.0" type="line"/>
      <point x="83.84705882352941" y="690.0" type="line"/>
      <point x="83.84705882352941" y="0.0" type="line"/>
      <point x="183.71764705882353" y="0.0" type="line"/>
    </contour>
  </outline>
</glyph>
<glyph name="E" format="2">
  <advance width="562.3176470588236"/>
  <unicode hex="0045"/>
  <guideline x="146.49411764705883" y="544.2117647058824" angle="0.0"/>
  <anchor x="300.4823529411765" y="0.0" name="bottom"/>
  <anchor x="513.0235294117647" y="5.741176470588235" name="ogonek"/>
  <anchor x="310.0" y="744.1058823529412" name="top"/>
  <outline>
    <contour>
      <point x="217.28235294117647" y="691.7411764705882" type="curve" smooth="yes"/>
      <point x="132.16470588235293" y="691.7411764705882"/>
      <point x="78.71764705882353" y="644.3882352941176"/>
      <point x="77.84705882352941" y="567.9764705882353" type="curve" smooth="yes"/>
      <point x="77.84705882352941" y="122.02352941176471" type="line" smooth="yes"/>
      <point x="78.71764705882353" y="45.61176470588235"/>
      <point x="131.2941176470588" y="-1.7411764705882353"/>
      <point x="217.28235294117647" y="-1.7411764705882353" type="curve" smooth="yes"/>
      <point x="316.15294117647056" y="-1.7411764705882353"/>
      <point x="421.98823529411766" y="-1.7411764705882353"/>
      <point x="513.0235294117647" y="5.741176470588235" type="curve"/>
      <point x="508.4117647058824" y="82.94117647058823" type="line"/>
      <point x="233.6" y="82.94117647058823" type="line" smooth="yes"/>
      <point x="194.30588235294118" y="82.94117647058823"/>
      <point x="178.58823529411765" y="100.4"/>
      <point x="178.58823529411765" y="146.65882352941176" type="curve" smooth="yes"/>
      <point x="178.58823529411765" y="542.4705882352941" type="line" smooth="yes"/>
      <point x="178.58823529411765" y="588.7294117647059"/>
      <point x="194.30588235294118" y="606.1882352941177"/>
      <point x="233.6" y="606.1882352941177" type="curve" smooth="yes"/>
      <point x="508.4117647058824" y="606.1882352941177" type="line"/>
      <point x="513.0235294117647" y="684.2588235294118" type="line"/>
      <point x="421.98823529411766" y="691.7411764705882"/>
      <point x="316.15294117647056" y="691.7411764705882"/>
    </contour>
    <contour>
      <point x="95.71764705882353" y="403.63529411764705" type="line"/>
      <point x="95.71764705882353" y="323.3058823529412" type="line"/>
      <point x="470.0235294117647" y="323.43529411764706" type="line"/>
      <point x="470.0235294117647" y="403.50588235294117" type="line"/>
    </contour>
  </outline>
</glyph>
<glyph name="F" format="2">
  <advance width="540.4470588235295"/>
  <unicode hex="0046"/>
  <outline>
    <contour>
      <point x="221.1529411764706" y="691.7411764705882" type="curve" smooth="yes"/>
      <point x="136.03529411764706" y="691.7411764705882"/>
      <point x="81.71764705882353" y="645.2588235294118"/>
      <point x="81.71764705882353" y="562.7529411764706" type="curve" smooth="yes"/>
      <point x="81.71764705882353" y="0.0" type="line"/>
      <point x="182.45882352941177" y="0.0" type="line"/>
      <point x="182.45882352941177" y="542.4705882352941" type="line" smooth="yes"/>
      <point x="182.45882352941177" y="588.7294117647059"/>
      <point x="199.91764705882352" y="606.1882352941177"/>
      <point x="246.1764705882353" y="606.1882352941177" type="curve" smooth="yes"/>
      <point x="501.8" y="606.1882352941177" type="line"/>
      <point x="507.2823529411765" y="683.3882352941176" type="line"/>
      <point x="419.11764705882354" y="691.7411764705882"/>
      <point x="317.15294117647056" y="691.7411764705882"/>
    </contour>
    <contour>
      <point x="98.71764705882353" y="392.67058823529413" type="line"/>
      <point x="98.71764705882353" y="311.47058823529414" type="line"/>
      <point x="464.2823529411765" y="311.6" type="line"/>
      <point x="464.2823529411765" y="392.54117647058825" type="line"/>
    </contour>
  </outline>
</glyph>
<glyph name="I" format="2">
  <advance width="267.56470588235294"/>
  <unicode hex="0049"/>
  <anchor x="130.6705882352941" y="0.0" name="bottom"/>
  <anchor x="172.4" y="0.0" name="ogonek"/>
  <anchor x="134.1529411764706" y="733.035294117647" name="top"/>
  <outline>
    <contour>
      <point x="183.71764705882353" y="690.0" type="line"/>
      <point x="83.84705882352941" y="690.0" type="line"/>
      <point x="83.84705882352941" y="0.0" type="line"/>
      <point x="183.71764705882353" y="0.0" type="line"/>
    </contour>
  </outline>
</glyph>
<glyph name="J" format="2">
  <advance width="343.15294117647056"/>
  <unicode hex="004A"/>
  <anchor x="208.35294117647058" y="-0.12941176470588237" name="bottom"/>
  <anchor x="212.35294117647058" y="733.6823529411764" name="top"/>
  <outline>
    <contour>
      <point x="262.3058823529412" y="690.0" type="line"/>
      <point x="162.43529411764706" y="690.0" type="line"/>
      <point x="162.43529411764706" y="146.47058823529412" type="line" smooth="yes"/>
      <point x="162.43529411764706" y="100.36470588235294"/>
      <point x="138.14117647058825" y="76.07058823529411"/>
      <point x="87.68235294117648" y="76.07058823529411" type="curve" smooth="yes"/>
      <point x="39.258823529411764" y="76.07058823529411" type="line"/>
      <point x="28.423529411764704" y="4.352941176470588" type="line"/>
      <point x="51.64705882352941" y="-3.8705882352941177"/>
      <point x="98.8" y="-9.48235294117647"/>
      <point x="126.37647058823529" y="-9.48235294117647" type="curve" smooth="yes"/>
      <point x="213.6" y="-9.611764705882353"/>
      <point x="262.3058823529412" y="46.31764705882353"/>
      <point x="262.3058823529412" y="150.69411764705882" type="curve" smooth="yes"/>
    </contour>
  </outline>
</glyph>
<glyph name="K" format="2">
  <advance width="596.8235294117648"/>
  <unicode hex="004B"/>
  <anchor x="297.18823529411765" y="0.0" name="bottom"/>
  <anchor x="300.67058823529413" y="726.564705882353" name="top"/>
  <outline>
    <contour>
      <point x="566.8470588235294" y="690.0" type="line"/>
      <point x="457.6235294117647" y="690.0" type="line"/>
      <point x="227.51764705882354" y="360.8705882352941" type="line"/>
      <point x="468.52941176470586" y="0.0" type="line"/>
      <point x="580.364705882353" y="0.0" type="line"/>
      <point x="377.63529411764705" y="304.6588235294118" type="line" smooth="yes"/>
      <point x="366.15294117647056" y="322.49411764705883"/>
      <point x="350.18823529411765" y="340.0705882352941"/>
      <point x="330.38823529411764" y="357.25882352941176" type="curve"/>
      <point x="330.38823529411764" y="360.1294117647059" type="line"/>
      <point x="349.3176470588235" y="378.05882352941177"/>
      <point x="359.18823529411765" y="388.8"/>
      <point x="371.54117647058825" y="407.63529411764705" type="curve" smooth="yes"/>
    </contour>
    <contour>
      <point x="183.58823529411765" y="690.0" type="line"/>
      <point x="83.84705882352941" y="690.0" type="line"/>
      <point x="83.84705882352941" y="0.0" type="line"/>
      <point x="183.58823529411765" y="0.0" type="line"/>
      <point x="183.58823529411765" y="248.2" type="line" smooth="yes"/>
      <point x="183.58823529411765" y="283.81176470588235"/>
      <point x="177.49411764705883" y="322.38823529411764"/>
      <point x="169.27058823529413" y="361.0" type="curve"/>
      <point x="179.10588235294117" y="400.3529411764706"/>
      <point x="183.58823529411765" y="437.2823529411765"/>
      <point x="183.58823529411765" y="478.3764705882353" type="curve" smooth="yes"/>
    </contour>
    <contour>
      <point x="279.63529411764705" y="399.7294117647059" type="line"/>
      <point x="149.43529411764706" y="399.7294117647059" type="line"/>
      <point x="149.43529411764706" y="319.4" type="line"/>
      <point x="279.63529411764705" y="319.4" type="line"/>
    </contour>
  </outline>
</glyph>
<glyph name="L" format="2">
  <advance width="514.8352941176471"/>
  <unicode hex="004C"/>
  <anchor x="301.3529411764706" y="0.0" name="bottom"/>
  <anchor x="133.41176470588235" y="733.6823529411764" name="top"/>
  <outline>
    <contour>
      <point x="181.58823529411765" y="690.0" type="line"/>
      <point x="81.71764705882353" y="690.0" type="line"/>
      <point x="81.71764705882353" y="134.21176470588236" type="line" smooth="yes"/>
      <point x="81.71764705882353" y="56.05882352941177"/>
      <point x="118.62352941176471" y="-1.7411764705882353"/>
      <point x="228.98823529411766" y="-1.7411764705882353" type="curve" smooth="yes"/>
      <point x="318.3764705882353" y="-1.7411764705882353"/>
      <point x="408.7647058823529" y="-0.8705882352941177"/>
      <point x="494.67058823529413" y="6.6117647058823525" type="curve"/>
      <point x="490.3176470588235" y="83.81176470588235" type="line"/>
      <point x="245.30588235294118" y="83.81176470588235" type="line" smooth="yes"/>
      <point x="199.04705882352943" y="83.81176470588235"/>
      <point x="181.58823529411765" y="101.27058823529411"/>
      <point x="181.58823529411765" y="147.52941176470588" type="curve" smooth="yes"/>
    </contour>
  </outline>
</glyph>
<glyph name="M" format="2">
  <advance width="880.9882352941177"/>
  <unicode hex="004D"/>
  <anchor x="439.3176470588235" y="0.0" name="bottom"/>
  <anchor x="442.0235294117647" y="733.035294117647" name="top"/>
  <outline>
    <contour>
      <point x="741.8941176470588" y="690.0" type="curve" smooth="yes"/>
      <point x="632.8588235294118" y="690.0" type="line" smooth="yes"/>
      <point x="609.4470588235295" y="690.0"/>
      <point x="595.7411764705882" y="678.2941176470588"/>
      <point x="589.3882352941176" y="655.7529411764706" type="curve" smooth="yes"/>
      <point x="472.5176470588235" y="252.87058823529412" type="line" smooth="yes"/>
      <point x="463.1294117647059" y="220.0"/>
      <point x="456.3529411764706" y="190.61176470588236"/>
      <point x="448.70588235294116" y="158.61176470588236" type="curve"/>
      <point x="431.4117647058824" y="158.61176470588236" type="line"/>
      <point x="423.7647058823529" y="190.48235294117646"/>
      <point x="417.11764705882354" y="219.87058823529412"/>
      <point x="407.7294117647059" y="251.74117647058824" type="curve" smooth="yes"/>
      <point x="290.7294117647059" y="655.7529411764706" type="line" smooth="yes"/>
      <point x="284.3764705882353" y="678.2941176470588"/>
      <point x="271.54117647058825" y="690.0"/>
      <point x="249.0" y="690.0" type="curve" smooth="yes"/>
      <point x="138.2235294117647" y="690.0" type="line" smooth="yes"/>
      <point x="111.81176470588235" y="690.0"/>
      <point x="97.97647058823529" y="675.2941176470588"/>
      <point x="97.10588235294118" y="648.8823529411765" type="curve" smooth="yes"/>
      <point x="70.58823529411765" y="0.0" type="line"/>
      <point x="170.45882352941177" y="0.0" type="line"/>
      <point x="193.49411764705883" y="607.0588235294117" type="line"/>
      <point x="212.27058823529413" y="607.0588235294117" type="line"/>
      <point x="352.9529411764706" y="116.01176470588236" type="line" smooth="yes"/>
      <point x="359.3058823529412" y="93.47058823529412"/>
      <point x="373.88235294117646" y="81.76470588235294"/>
      <point x="397.29411764705884" y="81.76470588235294" type="curve" smooth="yes"/>
      <point x="483.6941176470588" y="81.76470588235294" type="line" smooth="yes"/>
      <point x="507.1058823529412" y="81.76470588235294"/>
      <point x="520.8117647058823" y="93.47058823529412"/>
      <point x="527.1647058823529" y="116.01176470588236" type="curve" smooth="yes"/>
      <point x="666.9764705882353" y="607.0588235294117" type="line"/>
      <point x="686.6235294117647" y="607.0588235294117" type="line"/>
      <point x="711.4" y="0.0" type="line"/>
      <point x="811.2705882352941" y="0.0" type="line"/>
      <point x="783.0117647058823" y="648.8823529411765" type="line" smooth="yes"/>
      <point x="782.1411764705882" y="675.2941176470588"/>
      <point x="768.3058823529411" y="690.0"/>
    </contour>
  </outline>
</glyph>
<glyph name="N" format="2">
  <advance width="708.0235294117647"/>
  <unicode hex="004E"/>
  <anchor x="362.2823529411765" y="0.0" name="bottom"/>
  <anchor x="364.9647058823529" y="733.035294117647" name="top"/>
  <outline>
    <contour>
      <point x="624.1764705882352" y="690.0" type="line"/>
      <point x="525.1764705882352" y="690.0" type="line"/>
      <point x="525.1764705882352" y="205.1529411764706" type="line" smooth="yes"/>
      <point x="525.1764705882352" y="169.05882352941177"/>
      <point x="526.9176470588235" y="133.83529411764707"/>
      <point x="529.5294117647059" y="97.74117647058823" type="curve"/>
      <point x="514.5882352941177" y="97.74117647058823" type="line"/>
      <point x="499.5882352941176" y="132.57647058823528"/>
      <point x="480.36470588235295" y="172.63529411764705"/>
      <point x="467.1058823529412" y="201.3764705882353" type="curve" smooth="yes"/>
      <point x="257.70588235294116" y="658.9764705882353" type="line" smooth="yes"/>
      <point x="248.48235294117646" y="680.035294117647"/>
      <point x="236.38823529411764" y="690.0"/>
      <point x="214.45882352941177" y="690.0" type="curve" smooth="yes"/>
      <point x="122.3529411764706" y="690.0" type="line" smooth="yes"/>
      <point x="97.55294117647058" y="690.0"/>
      <point x="83.84705882352941" y="677.1647058823529"/>
      <point x="83.84705882352941" y="651.4941176470588" type="curve" smooth="yes"/>
      <point x="83.84705882352941" y="0.0" type="line"/>
      <point x="183.71764705882353" y="0.0" type="line"/>
      <point x="183.71764705882353" y="500.6235294117647" type="line" smooth="yes"/>
      <point x="183.71764705882353" y="532.3294117647059"/>
      <point x="182.8470588235294" y="564.9058823529411"/>
      <point x="179.36470588235295" y="596.6117647058824" type="curve"/>
      <point x="193.04705882352943" y="596.6117647058824" type="line"/>
      <point x="200.69411764705882" y="567.5176470588235"/>
      <point x="221.52941176470588" y="527.2352941176471"/>
      <point x="233.52941176470588" y="500.7529411764706" type="curve" smooth="yes"/>
      <point x="449.05882352941177" y="31.023529411764706" type="line" smooth="yes"/>
      <point x="458.2823529411765" y="9.964705882352941"/>
      <point x="470.3764705882353" y="0.0"/>
      <point x="492.3058823529412" y="0.0" type="curve" smooth="yes"/>
      <point x="586.5411764705882" y="0.0" type="line" smooth="yes"/>
      <point x="611.3411764705883" y="0.0"/>
      <point x="624.1764705882352" y="12.83529411764706"/>
      <point x="624.1764705882352" y="38.50588235294118" type="curve" smooth="yes"/>
    </contour>
  </outline>
</glyph>
<glyph name="Q" format="2">
  <advance width="670.7058823529412"/>
  <unicode hex="0051"/>
  <outline>
    <contour>
      <point x="335.3529411764706" y="702.8705882352941" type="curve" smooth="yes"/>
      <point x="131.5529411764706" y="702.8705882352941"/>
      <point x="59.45882352941177" y="615.8352941176471"/>
      <point x="59.45882352941177" y="345.0" type="curve" smooth="yes"/>
      <point x="59.45882352941177" y="74.16470588235295"/>
      <point x="131.5529411764706" y="-12.870588235294118"/>
      <point x="335.3529411764706" y="-12.870588235294118" type="curve" smooth="yes"/>
      <point x="539.1529411764706" y="-12.870588235294118"/>
      <point x="611.2470588235294" y="74.16470588235295"/>
      <point x="611.2470588235294" y="345.0" type="curve" smooth="yes"/>
      <point x="611.2470588235294" y="615.8352941176471"/>
      <point x="539.1529411764706" y="702.8705882352941"/>
    </contour>
    <contour>
      <point x="292.77647058823527" y="-41.423529411764704" type="curve"/>
      <point x="265.9764705882353" y="-102.43529411764706" type="line"/>
      <point x="339.77647058823527" y="-143.6"/>
      <point x="427.0" y="-185.56470588235294"/>
      <point x="534.1529411764706" y="-208.88235294117646" type="curve"/>
      <point x="566.4" y="-109.01176470588236" type="line"/>
      <point x="465.56470588235294" y="-94.88235294117646"/>
      <point x="374.8" y="-73.23529411764706"/>
    </contour>
    <contour>
      <point x="335.3529411764706" y="613.7058823529412" type="curve" smooth="yes"/>
      <point x="464.43529411764706" y="613.7058823529412"/>
      <point x="506.0235294117647" y="548.6"/>
      <point x="506.0235294117647" y="345.0" type="curve" smooth="yes"/>
      <point x="506.0235294117647" y="141.4"/>
      <point x="464.43529411764706" y="76.29411764705883"/>
      <point x="335.3529411764706" y="76.29411764705883" type="curve" smooth="yes"/>
      <point x="206.27058823529413" y="76.29411764705883"/>
      <point x="164.68235294117648" y="141.4"/>
      <point x="164.68235294117648" y="345.0" type="curve" smooth="yes"/>
      <point x="164.68235294117648" y="548.6"/>
      <point x="206.27058823529413" y="613.7058823529412"/>
    </contour>
  </outline>
</glyph>
<glyph name="R" format="2">
  <advance width="620.0588235294117"/>
  <unicode hex="0052"/>
  <anchor x="317.67058823529413" y="0.0" name="bottom"/>
  <anchor x="303.0" y="733.035294117647" name="top"/>
  <outline>
    <contour>
      <point x="324.8705882352941" y="698.8705882352941" type="curve" smooth="yes"/>
      <point x="212.2941176470588" y="698.8705882352941"/>
      <point x="159.94117647058823" y="697.8705882352941"/>
      <point x="83.84705882352941" y="690.0" type="curve"/>
      <point x="97.84705882352941" y="611.0588235294117" type="line"/>
      <point x="126.58823529411765" y="611.3176470588236"/>
      <point x="210.81176470588235" y="613.1882352941177"/>
      <point x="323.1294117647059" y="613.1882352941177" type="curve" smooth="yes"/>
      <point x="419.6588235294118" y="613.1882352941177"/>
      <point x="451.7294117647059" y="587.7647058823529"/>
      <point x="451.7294117647059" y="492.6823529411765" type="curve" smooth="yes"/>
      <point x="451.7294117647059" y="397.8588235294118"/>
      <point x="419.6588235294118" y="370.6941176470588"/>
      <point x="323.1294117647059" y="369.56470588235294" type="curve" smooth="yes"/>
      <point x="96.84705882352941" y="369.56470588235294" type="line"/>
      <point x="93.84705882352941" y="286.2705882352941" type="line"/>
      <point x="132.38823529411764" y="285.1411764705882"/>
      <point x="200.58823529411765" y="283.88235294117646"/>
      <point x="325.16470588235296" y="283.88235294117646" type="curve" smooth="yes"/>
      <point x="369.45882352941175" y="283.88235294117646"/>
      <point x="396.01176470588234" y="264.9764705882353"/>
      <point x="412.0470588235294" y="215.38823529411764" type="curve" smooth="yes"/>
      <point x="471.2470588235294" y="0.0" type="line"/>
      <point x="577.6" y="0.0" type="line"/>
      <point x="512.9176470588235" y="217.51764705882354" type="line" smooth="yes"/>
      <point x="497.78823529411767" y="278.3176470588235"/>
      <point x="459.7294117647059" y="308.4823529411765"/>
      <point x="425.6" y="317.74117647058824" type="curve"/>
      <point x="425.6" y="322.61176470588236" type="line"/>
      <point x="517.9529411764706" y="334.74117647058824"/>
      <point x="552.6" y="390.3176470588235"/>
      <point x="552.6" y="498.77647058823527" type="curve" smooth="yes"/>
      <point x="552.6" y="654.3882352941176"/>
      <point x="487.4117647058824" y="698.8705882352941"/>
    </contour>
    <contour>
      <point x="182.8470588235294" y="690.0" type="line"/>
      <point x="83.84705882352941" y="690.0" type="line"/>
      <point x="83.84705882352941" y="0.0" type="line"/>
      <point x="182.8470588235294" y="0.0" type="line"/>
    </contour>
  </outline>
</glyph>
<glyph name="T" format="2">
  <advance width="584.0235294117647"/>
  <unicode hex="0054"/>
  <anchor x="290.70588235294116" y="0.0" name="bottom"/>
  <anchor x="289.83529411764704" y="345.0" name="center"/>
  <anchor x="291.70588235294116" y="733.035294117647" name="top"/>
  <outline>
    <contour>
      <point x="341.88235294117646" y="690.0" type="line"/>
      <point x="241.14117647058825" y="690.0" type="line"/>
      <point x="241.14117647058825" y="0.0" type="line"/>
      <point x="341.88235294117646" y="0.0" type="line"/>
    </contour>
    <contour>
      <point x="560.5058823529412" y="690.0" type="line"/>
      <point x="23.51764705882353" y="690.0" type="line"/>
      <point x="23.51764705882353" y="600.964705882353" type="line"/>
      <point x="560.5058823529412" y="600.964705882353" type="line"/>
    </contour>
  </outline>
</glyph>
<glyph name="U" format="2">
  <advance width="666.1294117647059"/>
  <unicode hex="0055"/>
  <anchor x="330.5176470588235" y="0.0" name="bottom"/>
  <anchor x="374.0" y="-9.0" name="ogonek"/>
  <anchor x="334.1294117647059" y="733.035294117647" name="top"/>
  <outline>
    <contour>
      <point x="587.2823529411764" y="690.0" type="line"/>
      <point x="486.54117647058825" y="690.0" type="line"/>
      <point x="486.54117647058825" y="266.3176470588235" type="line" smooth="yes"/>
      <point x="486.54117647058825" y="123.88235294117646"/>
      <point x="446.08235294117645" y="76.29411764705883"/>
      <point x="333.1294117647059" y="76.29411764705883" type="curve" smooth="yes"/>
      <point x="218.30588235294118" y="76.29411764705883"/>
      <point x="178.71764705882353" y="123.88235294117646"/>
      <point x="178.71764705882353" y="266.3176470588235" type="curve" smooth="yes"/>
      <point x="178.71764705882353" y="690.0" type="line"/>
      <point x="78.84705882352941" y="690.0" type="line"/>
      <point x="78.84705882352941" y="266.3176470588235" type="line" smooth="yes"/>
      <point x="78.84705882352941" y="63.870588235294115"/>
      <point x="147.94117647058823" y="-12.870588235294118"/>
      <point x="337.4823529411765" y="-12.870588235294118" type="curve" smooth="yes"/>
      <point x="519.9294117647058" y="-12.870588235294118"/>
      <point x="587.2823529411764" y="63.870588235294115"/>
      <point x="587.2823529411764" y="266.3176470588235" type="curve" smooth="yes"/>
    </contour>
  </outline>
</glyph>
<glyph name="V" format="2">
  <advance width="612.0235294117647"/>
  <unicode hex="0056"/>
  <outline>
    <contour>
      <point x="597.3411764705883" y="690.0" type="line"/>
      <point x="493.7294117647059" y="690.0" type="line"/>
      <point x="339.3529411764706" y="152.71764705882353" type="line" smooth="yes"/>
      <point x="332.09411764705885" y="127.71764705882353"/>
      <point x="324.9647058823529" y="101.84705882352941"/>
      <point x="319.5764705882353" y="76.84705882352941" type="curve"/>
      <point x="293.3176470588235" y="76.84705882352941" type="line"/>
      <point x="287.05882352941177" y="101.84705882352941"/>
      <point x="280.8" y="127.58823529411765"/>
      <point x="273.54117647058825" y="152.58823529411765" type="curve" smooth="yes"/>
      <point x="118.29411764705883" y="690.0" type="line"/>
      <point x="14.682352941176472" y="690.0" type="line"/>
      <point x="219.34117647058824" y="28.152941176470588" type="line" smooth="yes"/>
      <point x="223.95294117647057" y="11.83529411764706"/>
      <point x="238.52941176470588" y="0.0"/>
      <point x="256.7176470588235" y="0.0" type="curve" smooth="yes"/>
      <point x="355.3058823529412" y="0.0" type="line" smooth="yes"/>
      <point x="373.49411764705883" y="0.0"/>
      <point x="388.0705882352941" y="11.83529411764706"/>
      <point x="392.6823529411765" y="28.152941176470588" type="curve" smooth="yes"/>
    </contour>
  </outline>
</glyph>
<glyph name="X" format="2">
  <advance width="614.7647058823529"/>
  <unicode hex="0058"/>
  <outline>
    <contour>
      <point x="579.435294117647" y="690.0" type="line"/>
      <point x="471.08235294117645" y="690.0" type="line"/>
      <point x="299.90588235294115" y="356.5176470588235" type="line"/>
      <point x="483.21176470588233" y="0.0" type="line"/>
      <point x="592.435294117647" y="0.0" type="line"/>
      <point x="402.16470588235296" y="356.5176470588235" type="line"/>
    </contour>
    <contour>
      <point x="142.81176470588235" y="690.0" type="line"/>
      <point x="35.32941176470588" y="690.0" type="line"/>
      <point x="211.72941176470587" y="356.5176470588235" type="line"/>
      <point x="22.32941176470588" y="0.0" type="line"/>
      <point x="130.68235294117648" y="0.0" type="line"/>
      <point x="313.98823529411766" y="356.5176470588235" type="line"/>
    </contour>
    <contour>
      <point x="364.43529411764706" y="396.3764705882353" type="line"/>
      <point x="247.14117647058825" y="396.3764705882353" type="line"/>
      <point x="247.14117647058825" y="319.52941176470586" type="line"/>
      <point x="364.43529411764706" y="319.52941176470586" type="line"/>
    </contour>
  </outline>
</glyph>
<glyph name="Y" format="2">
  <advance width="574.0823529411765"/>
  <unicode hex="0059"/>
  <anchor x="284.9294117647059" y="0.0" name="bottom"/>
  <anchor x="288.4117647058824" y="720.8470588235294" name="top"/>
  <outline>
    <contour>
      <point x="564.1411764705882" y="690.0" type="line"/>
      <point x="459.52941176470586" y="690.0" type="line"/>
      <point x="321.3176470588235" y="406.49411764705883" type="line" smooth="yes"/>
      <point x="309.4470588235294" y="382.01176470588234"/>
      <point x="299.8" y="352.78823529411767"/>
      <point x="291.2823529411765" y="327.3058823529412" type="curve"/>
      <point x="283.67058823529413" y="327.3058823529412" type="line"/>
      <point x="275.0235294117647" y="352.78823529411767"/>
      <point x="265.50588235294117" y="382.01176470588234"/>
      <point x="253.50588235294117" y="406.6235294117647" type="curve" smooth="yes"/>
      <point x="115.29411764705883" y="690.0" type="line"/>
      <point x="8.941176470588236" y="690.0" type="line"/>
      <point x="241.9764705882353" y="230.8470588235294" type="line"/>
      <point x="332.9764705882353" y="230.8470588235294" type="line"/>
    </contour>
    <contour>
      <point x="336.9764705882353" y="299.2823529411765" type="line"/>
      <point x="237.10588235294117" y="299.2823529411765" type="line"/>
      <point x="237.10588235294117" y="0.0" type="line"/>
      <point x="336.9764705882353" y="0.0" type="line"/>
    </contour>
  </outline>
</glyph>
<glyph name="Z" format="2">
  <advance width="567.5764705882353"/>
  <unicode hex="005A"/>
  <anchor x="291.9294117647059" y="0.0" name="bottom"/>
  <anchor x="281.61176470588236" y="733.035294117647" name="top"/>
  <outline>
    <contour>
      <point x="405.22352941176473" y="606.1882352941177" type="line"/>
      <point x="47.64705882352941" y="84.81176470588235" type="line"/>
      <point x="157.48235294117646" y="83.81176470588235" type="line"/>
      <point x="514.1882352941177" y="605.1882352941177" type="line"/>
    </contour>
    <contour>
      <point x="520.9294117647058" y="84.81176470588235" type="line"/>
      <point x="47.64705882352941" y="84.81176470588235" type="line"/>
      <point x="47.64705882352941" y="0.0" type="line"/>
      <point x="520.9294117647058" y="0.0" type="line"/>
    </contour>
    <contour>
      <point x="514.1882352941177" y="690.0" type="line"/>
      <point x="53.258823529411764" y="690.0" type="line"/>
      <point x="53.258823529411764" y="605.1882352941177" type="line"/>
      <point x="514.1882352941177" y="605.1882352941177" type="line"/>
    </contour>
  </outline>
</glyph>
<glyph name="bracketleft" format="2">
  <advance width="332.0235294117647"/>
  <unicode hex="005B"/>
  <outline>
    <contour>
      <point x="292.47058823529414" y="768.0" type="line"/>
      <point x="146.57647058823528" y="768.0" type="line" smooth="yes"/>
      <point x="112.90588235294118" y="768.0"/>
      <point x="88.58823529411765" y="743.6823529411764"/>
      <point x="88.58823529411765" y="710.0117647058823" type="curve" smooth="yes"/>
      <point x="88.58823529411765" y="-107.01176470588236" type="line" smooth="yes"/>
      <point x="88.58823529411765" y="-148.51764705882354"/>
      <point x="112.90588235294118" y="-165.0"/>
      <point x="146.57647058823528" y="-165.0" type="curve" smooth="yes"/>
      <point x="292.47058823529414" y="-165.0" type="line"/>
      <point x="292.47058823529414" y="-102.08235294117647" type="line"/>
      <point x="195.10588235294117" y="-102.08235294117647" type="line" smooth="yes"/>
      <point x="186.36470588235295" y="-102.08235294117647"/>
      <point x="179.6235294117647" y="-95.34117647058824"/>
      <point x="179.6235294117647" y="-85.72941176470589" type="curve" smooth="yes"/>
      <point x="179.6235294117647" y="688.7294117647059" type="line" smooth="yes"/>
      <point x="179.6235294117647" y="698.3411764705883"/>
      <point x="186.36470588235295" y="705.0823529411765"/>
      <point x="195.10588235294117" y="705.0823529411765" type="curve" smooth="yes"/>
      <point x="292.47058823529414" y="705.0823529411765" type="line"/>
    </contour>
  </outline>
</glyph>
<glyph name="backslash" format="2">
  <advance width="522.7294117647059"/>
  <unicode hex="005C"/>
  <outline>
    <contour>
      <point x="104.78823529411764" y="690.0" type="line"/>
      <point x="24.941176470588236" y="690.0" type="line"/>
      <point x="417.94117647058823" y="-66.83529411764705" type="line"/>
      <point x="497.78823529411767" y="-66.83529411764705" type="line"/>
    </contour>
  </outline>
</glyph>
<glyph name="bracketright" format="2">
  <advance width="332.0235294117647"/>
  <unicode hex="005D"/>
  <outline>
    <contour>
      <point x="184.57647058823528" y="768.0" type="curve" smooth="yes"/>
      <point x="39.55294117647059" y="768.0" type="line"/>
      <point x="39.55294117647059" y="705.0823529411765" type="line"/>
      <point x="136.04705882352943" y="705.0823529411765" type="line" smooth="yes"/>
      <point x="145.65882352941176" y="705.0823529411765"/>
      <point x="152.4" y="698.3411764705883"/>
      <point x="152.4" y="688.7294117647059" type="curve" smooth="yes"/>
      <point x="152.4" y="-85.72941176470589" type="line" smooth="yes"/>
      <point x="152.4" y="-95.34117647058824"/>
      <point x="145.65882352941176" y="-102.08235294117647"/>
      <point x="136.04705882352943" y="-102.08235294117647" type="curve" smooth="yes"/>
      <point x="39.55294117647059" y="-102.08235294117647" type="line"/>
      <point x="39.55294117647059" y="-165.0" type="line"/>
      <point x="184.57647058823528" y="-165.0" type="line" smooth="yes"/>
      <point x="219.11764705882354" y="-165.0"/>
      <point x="243.43529411764706" y="-140.68235294117648"/>
      <point x="243.43529411764706" y="-107.01176470588236" type="curve" smooth="yes"/>
      <point x="243.43529411764706" y="710.0117647058823" type="line" smooth="yes"/>
      <point x="243.43529411764706" y="743.6823529411764"/>
      <point x="219.11764705882354" y="768.0"/>
    </contour>
  </outline>
</glyph>
<glyph name="asciicircum" format="2">
  <advance width="432.91764705882355"/>
  <unicode hex="005E"/>
  <outline>
    <contour>
      <point x="252.12668235294117" y="605.3791764705882" type="line"/>
      <point x="181.9366588235294" y="605.3791764705882" type="line"/>
      <point x="30.0" y="392.02082352941176" type="line"/>
      <point x="69.09501176470589" y="368.33665882352943" type="line"/>
      <point x="213.03167058823527" y="540.6" type="line"/>
      <point x="221.03167058823527" y="540.6" type="line"/>
      <point x="364.02082352941176" y="368.33665882352943" type="line"/>
      <point x="402.8950117647059" y="392.02082352941176" type="line"/>
    </contour>
  </outline>
</glyph>
<glyph name="underscore" format="2">
  <advance width="438.83529411764704"/>
  <unicode hex="005F"/>
  <outline>
    <contour>
      <point x="438.83529411764704" y="0.0" type="line"/>
      <point x="0.0" y="0.0" type="line"/>
      <point x="0.0" y="-73.36470588235294" type="line"/>
      <point x="438.83529411764704" y="-73.36470588235294" type="line"/>
    </contour>
  </outline>
</glyph>
<glyph name="grave" format="2">
  <advance width="321.7891529411765"/>
  <unicode hex="0060"/>
  <anchor x="204.48416470588234" y="541.9266823529412" name="_top"/>
  <outline>
    <contour>
      <point x="88.02352941176471" y="726.2823529411764" type="line"/>
      <point x="33.45882352941177" y="651.8235294117648" type="line"/>
      <point x="232.6" y="535.2" type="line"/>
      <point x="264.88235294117646" y="579.5411764705882" type="line"/>
    </contour>
  </outline>
</glyph>
<glyph name="a" format="2">
  <advance width="551.0588235294117"/>
  <unicode hex="0061"/>
  <anchor x="264.22352941176473" y="-12.0" name="bottom"/>
  <anchor x="478.3411764705882" y="0.0" name="ogonek"/>
  <anchor x="274.83529411764704" y="552.7764705882353" name="top"/>
  <outline>
    <contour>
      <point x="307.0352941176471" y="500.70588235294116" type="curve" smooth="yes"/>
      <point x="239.24705882352941" y="500.70588235294116"/>
      <point x="138.5529411764706" y="489.5764705882353"/>
      <point x="70.2" y="477.9647058823529" type="curve"/>
      <point x="79.29411764705883" y="406.8588235294118" type="line"/>
      <point x="154.64705882352942" y="413.2470588235294"/>
      <point x="238.38823529411764" y="418.50588235294117"/>
      <point x="286.01176470588234" y="418.50588235294117" type="curve" smooth="yes"/>
      <point x="361.43529411764706" y="418.50588235294117"/>
      <point x="382.08235294117645" y="399.84705882352944"/>
      <point x="382.9529411764706" y="339.7176470588235" type="curve" smooth="yes"/>
      <point x="382.9529411764706" y="118.09411764705882" type="line"/>
      <point x="389.0470588235294" y="106.0" type="line"/>
      <point x="403.7529411764706" y="0.0" type="line"/>
      <point x="480.08235294117645" y="0.0" type="line"/>
      <point x="480.08235294117645" y="339.7176470588235" type="line" smooth="yes"/>
      <point x="480.08235294117645" y="462.70588235294116"/>
      <point x="420.3764705882353" y="500.70588235294116"/>
    </contour>
    <contour>
      <point x="436.5764705882353" y="302.18823529411765" type="line"/>
      <point x="187.09411764705882" y="302.18823529411765" type="line" smooth="yes"/>
      <point x="99.29411764705883" y="302.18823529411765"/>
      <point x="48.588235294117645" y="257.70588235294116"/>
      <point x="48.588235294117645" y="180.48235294117646" type="curve" smooth="yes"/>
      <point x="48.588235294117645" y="128.9294117647059" type="line" smooth="yes"/>
      <point x="48.588235294117645" y="39.61176470588235"/>
      <point x="109.38823529411765" y="-9.48235294117647"/>
      <point x="197.96470588235294" y="-9.48235294117647" type="curve" smooth="yes"/>
      <point x="306.0235294117647" y="-9.48235294117647"/>
      <point x="385.6470588235294" y="62.83529411764706"/>
      <point x="412.32941176470587" y="100.48235294117647" type="curve"/>
      <point x="412.32941176470587" y="170.75294117647059" type="line"/>
      <point x="351.36470588235295" y="100.08235294117647"/>
      <point x="269.8705882352941" y="72.58823529411765"/>
      <point x="217.98823529411766" y="72.84705882352941" type="curve" smooth="yes"/>
      <point x="168.52941176470588" y="72.97647058823529"/>
      <point x="146.71764705882353" y="92.91764705882353"/>
      <point x="146.71764705882353" y="141.11764705882354" type="curve" smooth="yes"/>
      <point x="146.71764705882353" y="166.5529411764706" type="line" smooth="yes"/>
      <point x="146.71764705882353" y="204.4"/>
      <point x="160.30588235294118" y="226.69411764705882"/>
      <point x="205.3764705882353" y="228.56470588235294" type="curve" smooth="yes"/>
      <point x="435.5764705882353" y="229.08235294117648" type="line"/>
    </contour>
  </outline>
</glyph>
<glyph name="b" format="2">
  <advance width="572.8"/>
  <unicode hex="0062"/>
  <outline>
    <contour>
      <point x="344.47058823529414" y="500.70588235294116" type="curve" smooth="yes"/>
      <point x="275.8588235294118" y="500.70588235294116"/>
      <point x="208.3764705882353" y="468.67058823529413"/>
      <point x="151.30588235294118" y="404.8" type="curve"/>
      <point x="158.27058823529413" y="340.88235294117646" type="line"/>
      <point x="216.76470588235293" y="386.11764705882354"/>
      <point x="257.83529411764704" y="416.7647058823529"/>
      <point x="309.6470588235294" y="416.7647058823529" type="curve" smooth="yes"/>
      <point x="400.9764705882353" y="416.7647058823529"/>
      <point x="420.3411764705882" y="373.1764705882353"/>
      <point x="421.21176470588233" y="246.09411764705882" type="curve" smooth="yes"/>
      <point x="420.3411764705882" y="113.78823529411764"/>
      <point x="387.1411764705882" y="70.2"/>
      <point x="299.22352941176473" y="69.32941176470588" type="curve" smooth="yes"/>
      <point x="254.28235294117647" y="68.45882352941176"/>
      <point x="199.54117647058823" y="74.45882352941176"/>
      <point x="150.43529411764706" y="90.10588235294118" type="curve"/>
      <point x="72.84705882352941" y="23.352941176470587" type="line"/>
      <point x="136.88235294117646" y="0.0"/>
      <point x="233.09411764705882" y="-12.0"/>
      <point x="300.9647058823529" y="-12.0" type="curve" smooth="yes"/>
      <point x="473.1764705882353" y="-12.0"/>
      <point x="521.0823529411765" y="82.37647058823529"/>
      <point x="521.0823529411765" y="246.09411764705882" type="curve" smooth="yes"/>
      <point x="521.0823529411765" y="428.9647058823529"/>
      <point x="464.3764705882353" y="500.70588235294116"/>
    </contour>
    <contour>
      <point x="169.9764705882353" y="700.0" type="line"/>
      <point x="72.84705882352941" y="700.0" type="line"/>
      <point x="72.84705882352941" y="23.352941176470587" type="line"/>
      <point x="169.9764705882353" y="19.0" type="line"/>
      <point x="169.10588235294117" y="397.50588235294117" type="line"/>
      <point x="159.14117647058822" y="411.7647058823529" type="line"/>
      <point x="168.36470588235295" y="447.98823529411766"/>
      <point x="169.9764705882353" y="482.3058823529412"/>
      <point x="169.9764705882353" y="524.7882352941176" type="curve" smooth="yes"/>
    </contour>
  </outline>
</glyph>
<glyph name="c" format="2">
  <advance width="491.05882352941177"/>
  <unicode hex="0063"/>
  <anchor x="276.4235294117647" y="-12.0" name="bottom"/>
  <anchor x="266.90588235294115" y="553.6470588235294" name="top"/>
  <outline>
    <contour>
      <point x="285.38823529411764" y="500.70588235294116" type="curve" smooth="yes"/>
      <point x="115.07058823529412" y="500.70588235294116"/>
      <point x="51.588235294117645" y="432.83529411764704"/>
      <point x="51.588235294117645" y="244.35294117647058" type="curve" smooth="yes"/>
      <point x="51.588235294117645" y="55.870588235294115"/>
      <point x="114.2" y="-12.0"/>
      <point x="284.6470588235294" y="-12.0" type="curve" smooth="yes"/>
      <point x="343.09411764705885" y="-12.0"/>
      <point x="405.67058823529413" y="-3.2588235294117647"/>
      <point x="454.8941176470588" y="14.576470588235294" type="curve"/>
      <point x="445.67058823529413" y="79.58823529411765" type="line"/>
      <point x="394.70588235294116" y="71.45882352941176"/>
      <point x="331.3176470588235" y="69.32941176470588"/>
      <point x="301.5764705882353" y="69.32941176470588" type="curve" smooth="yes"/>
      <point x="191.4" y="69.32941176470588"/>
      <point x="153.2" y="108.27058823529411"/>
      <point x="153.2" y="244.35294117647058" type="curve" smooth="yes"/>
      <point x="153.2" y="379.56470588235294"/>
      <point x="191.4" y="418.50588235294117"/>
      <point x="301.5764705882353" y="418.50588235294117" type="curve" smooth="yes"/>
      <point x="336.18823529411765" y="418.50588235294117"/>
      <point x="388.9647058823529" y="417.2470588235294"/>
      <point x="434.4117647058824" y="414.3411764705882" type="curve"/>
      <point x="446.50588235294117" y="475.8705882352941" type="line"/>
      <point x="397.54117647058825" y="494.9647058823529"/>
      <point x="330.09411764705885" y="500.70588235294116"/>
    </contour>
  </outline>
</glyph>
<glyph name="d" format="2">
  <advance width="574.9294117647058"/>
  <unicode hex="0064"/>
  <anchor x="295.5764705882353" y="-12.0" name="bottom"/>
  <anchor x="450.38823529411764" y="706.0" name="top"/>
  <outline>
    <contour>
      <point x="238.90588235294118" y="500.70588235294116" type="curve" smooth="yes"/>
      <point x="114.6470588235294" y="500.70588235294116"/>
      <point x="52.71764705882353" y="437.67058823529413"/>
      <point x="52.71764705882353" y="246.09411764705882" type="curve" smooth="yes"/>
      <point x="52.71764705882353" y="78.02352941176471"/>
      <point x="100.71764705882353" y="-12.0"/>
      <point x="224.10588235294117" y="-12.0" type="curve" smooth="yes"/>
      <point x="304.90588235294115" y="-12.0"/>
      <point x="374.74117647058824" y="29.705882352941178"/>
      <point x="424.84705882352944" y="75.29411764705883" type="curve"/>
      <point x="415.52941176470586" y="142.21176470588236" type="line"/>
      <point x="343.9764705882353" y="92.36470588235294"/>
      <point x="312.4823529411765" y="71.94117647058823"/>
      <point x="257.18823529411765" y="71.94117647058823" type="curve" smooth="yes"/>
      <point x="183.27058823529413" y="71.94117647058823"/>
      <point x="152.58823529411765" y="107.69411764705882"/>
      <point x="152.58823529411765" y="246.96470588235294" type="curve" smooth="yes"/>
      <point x="152.58823529411765" y="386.2352941176471"/>
      <point x="183.27058823529413" y="416.7647058823529"/>
      <point x="263.2823529411765" y="416.7647058823529" type="curve" smooth="yes"/>
      <point x="315.09411764705885" y="416.7647058823529"/>
      <point x="356.16470588235296" y="404.98823529411766"/>
      <point x="414.6588235294118" y="390.2705882352941" type="curve"/>
      <point x="420.7529411764706" y="448.9647058823529" type="line"/>
      <point x="365.4235294117647" y="484.3176470588235"/>
      <point x="302.29411764705884" y="500.70588235294116"/>
    </contour>
    <contour>
      <point x="499.9529411764706" y="700.0" type="line"/>
      <point x="402.8235294117647" y="700.0" type="line"/>
      <point x="402.8235294117647" y="553.2823529411764" type="line" smooth="yes"/>
      <point x="402.8235294117647" y="513.0588235294117"/>
      <point x="404.43529411764706" y="478.74117647058824"/>
      <point x="409.3058823529412" y="440.25882352941176" type="curve"/>
      <point x="402.8235294117647" y="426.0" type="line"/>
      <point x="402.8235294117647" y="93.2235294117647" type="line"/>
      <point x="413.52941176470586" y="84.87058823529412" type="line"/>
      <point x="423.6235294117647" y="0.0" type="line"/>
      <point x="499.9529411764706" y="0.0" type="line"/>
    </contour>
  </outline>
</glyph>
<glyph name="e" format="2">
  <advance width="539.1882352941177"/>
  <unicode hex="0065"/>
  <anchor x="270.83529411764704" y="-10.447058823529412" name="bottom"/>
  <anchor x="479.98823529411766" y="18.188235294117646" name="ogonek"/>
  <anchor x="282.22352941176473" y="552.7764705882353" name="top"/>
  <outline>
    <contour>
      <point x="278.4823529411765" y="500.70588235294116" type="curve" smooth="yes"/>
      <point x="120.03529411764706" y="500.70588235294116"/>
      <point x="51.588235294117645" y="438.18823529411765"/>
      <point x="51.588235294117645" y="245.48235294117646" type="curve" smooth="yes"/>
      <point x="51.588235294117645" y="57.258823529411764"/>
      <point x="117.07058823529412" y="-12.0"/>
      <point x="287.3529411764706" y="-12.0" type="curve" smooth="yes"/>
      <point x="344.5764705882353" y="-12.0"/>
      <point x="432.3176470588235" y="-4.0"/>
      <point x="479.98823529411766" y="17.31764705882353" type="curve"/>
      <point x="470.7647058823529" y="81.45882352941176" type="line"/>
      <point x="418.09411764705885" y="74.58823529411765"/>
      <point x="350.1294117647059" y="69.32941176470588"/>
      <point x="299.9294117647059" y="69.32941176470588" type="curve" smooth="yes"/>
      <point x="192.04705882352943" y="69.32941176470588"/>
      <point x="152.32941176470587" y="97.85882352941177"/>
      <point x="152.32941176470587" y="250.83529411764707" type="curve" smooth="yes"/>
      <point x="152.32941176470587" y="383.7529411764706"/>
      <point x="182.04705882352943" y="419.3764705882353"/>
      <point x="282.9647058823529" y="419.3764705882353" type="curve" smooth="yes"/>
      <point x="366.45882352941175" y="419.3764705882353"/>
      <point x="394.3411764705882" y="395.6941176470588"/>
      <point x="394.6" y="337.45882352941175" type="curve" smooth="yes"/>
      <point x="394.8588235294118" y="306.8941176470588"/>
      <point x="387.78823529411767" y="271.63529411764705"/>
      <point x="347.0705882352941" y="271.63529411764705" type="curve" smooth="yes"/>
      <point x="87.3529411764706" y="271.63529411764705" type="line"/>
      <point x="87.3529411764706" y="197.4" type="line"/>
      <point x="373.18823529411765" y="197.4" type="line" smooth="yes"/>
      <point x="454.67058823529413" y="197.4"/>
      <point x="492.11764705882354" y="249.23529411764707"/>
      <point x="491.8588235294118" y="336.84705882352944" type="curve" smooth="yes"/>
      <point x="491.6" y="444.38823529411764"/>
      <point x="429.6" y="500.70588235294116"/>
    </contour>
  </outline>
</glyph>
<glyph name="f" format="2">
  <advance width="385.3411764705882"/>
  <unicode hex="0066"/>
  <outline>
    <contour>
      <point x="260.05882352941177" y="717.4823529411765" type="curve" smooth="yes"/>
      <point x="153.25882352941176" y="717.4823529411765"/>
      <point x="115.03529411764706" y="663.7764705882353"/>
      <point x="115.03529411764706" y="573.1647058823529" type="curve" smooth="yes"/>
      <point x="115.03529411764706" y="0.0" type="line"/>
      <point x="212.16470588235293" y="0.0" type="line"/>
      <point x="212.16470588235293" y="561.8470588235294" type="line" smooth="yes"/>
      <point x="212.16470588235293" y="616.8588235294118"/>
      <point x="233.32941176470587" y="638.0235294117647"/>
      <point x="294.1764705882353" y="638.0235294117647" type="curve" smooth="yes"/>
      <point x="392.8588235294118" y="638.0235294117647" type="line"/>
      <point x="400.6941176470588" y="710.0" type="line"/>
      <point x="361.47058823529414" y="715.6117647058824"/>
      <point x="292.4117647058824" y="717.4823529411765"/>
    </contour>
    <contour>
      <point x="363.1764705882353" y="487.83529411764704" type="line"/>
      <point x="119.29411764705883" y="487.83529411764704" type="line"/>
      <point x="27.16470588235294" y="482.83529411764704" type="line"/>
      <point x="27.16470588235294" y="412.7294117647059" type="line"/>
      <point x="363.1764705882353" y="412.7294117647059" type="line"/>
    </contour>
  </outline>
</glyph>
<glyph name="g" format="2">
  <advance width="560.6705882352941"/>
  <unicode hex="0067"/>
  <anchor x="272.61176470588236" y="553.6470588235294" name="top"/>
  <outline>
    <contour>
      <point x="271.61176470588236" y="500.70588235294116" type="curve" smooth="yes"/>
      <point x="110.97647058823529" y="500.70588235294116"/>
      <point x="58.71764705882353" y="455.8"/>
      <point x="58.71764705882353" y="343.0" type="curve" smooth="yes"/>
      <point x="58.71764705882353" y="235.2941176470588"/>
      <point x="111.10588235294118" y="188.16470588235293"/>
      <point x="270.74117647058824" y="188.16470588235293" type="curve" smooth="yes"/>
      <point x="430.3764705882353" y="188.16470588235293"/>
      <point x="482.50588235294117" y="235.2941176470588"/>
      <point x="482.50588235294117" y="343.8705882352941" type="curve" smooth="yes"/>
      <point x="482.50588235294117" y="455.8"/>
      <point x="430.50588235294117" y="500.70588235294116"/>
    </contour>
    <contour>
      <point x="270.74117647058824" y="427.3411764705882" type="curve" smooth="yes"/>
      <point x="363.2705882352941" y="427.3411764705882"/>
      <point x="393.21176470588233" y="406.1058823529412"/>
      <point x="393.21176470588233" y="343.8705882352941" type="curve" smooth="yes"/>
      <point x="393.21176470588233" y="284.11764705882354"/>
      <point x="363.1411764705882" y="260.6588235294118"/>
      <point x="270.74117647058824" y="260.6588235294118" type="curve" smooth="yes"/>
      <point x="178.34117647058824" y="260.6588235294118"/>
      <point x="147.14117647058822" y="284.11764705882354"/>
      <point x="147.14117647058822" y="343.8705882352941" type="curve" smooth="yes"/>
      <point x="147.14117647058822" y="406.1058823529412"/>
      <point x="178.21176470588236" y="427.3411764705882"/>
    </contour>
    <contour>
      <point x="540.3764705882353" y="487.83529411764704" type="line"/>
      <point x="373.9294117647059" y="487.83529411764704" type="line"/>
      <point x="408.9294117647059" y="424.0470588235294" type="line"/>
      <point x="534.7647058823529" y="435.88235294117646" type="line"/>
    </contour>
    <contour>
      <point x="132.51764705882354" y="219.5529411764706" type="line"/>
      <point x="67.90588235294118" y="187.35294117647058"/>
      <point x="58.68235294117647" y="57.27058823529412"/>
      <point x="163.68235294117648" y="43.49411764705882" type="curve" smooth="yes"/>
      <point x="334.8235294117647" y="20.68235294117647" type="line" smooth="yes"/>
      <point x="403.3411764705882" y="11.16470588235294"/>
      <point x="418.3411764705882" y="4.8"/>
      <point x="418.3411764705882" y="-41.78823529411765" type="curve" smooth="yes"/>
      <point x="418.3411764705882" y="-105.02352941176471"/>
      <point x="389.84705882352944" y="-118.48235294117647"/>
      <point x="275.74117647058824" y="-118.48235294117647" type="curve" smooth="yes"/>
      <point x="159.98823529411766" y="-118.48235294117647"/>
      <point x="132.36470588235295" y="-107.63529411764706"/>
      <point x="132.36470588235295" y="-41.78823529411765" type="curve" smooth="yes"/>
      <point x="132.36470588235295" y="0.31764705882352917"/>
      <point x="153.5529411764706" y="23.352941176470587"/>
      <point x="192.8470588235294" y="53.96470588235294" type="curve" smooth="yes"/>
      <point x="241.23529411764707" y="92.8" type="line"/>
      <point x="199.69411764705882" y="107.63529411764706" type="line"/>
      <point x="135.9294117647059" y="73.31764705882352" type="line" smooth="yes"/>
      <point x="67.87058823529412" y="38.96470588235294"/>
      <point x="37.84705882352941" y="12.152941176470588"/>
      <point x="37.84705882352941" y="-50.49411764705882" type="curve" smooth="yes"/>
      <point x="37.84705882352941" y="-162.94117647058823"/>
      <point x="96.71764705882353" y="-199.81176470588235"/>
      <point x="276.61176470588236" y="-199.81176470588235" type="curve" smooth="yes"/>
      <point x="454.7294117647059" y="-199.81176470588235"/>
      <point x="512.8588235294118" y="-162.94117647058823"/>
      <point x="512.8588235294118" y="-47.01176470588236" type="curve" smooth="yes"/>
      <point x="512.8588235294118" y="35.08235294117647"/>
      <point x="478.9294117647059" y="78.04705882352941"/>
      <point x="385.3529411764706" y="92.17647058823529" type="curve" smooth="yes"/>
      <point x="205.41176470588235" y="120.08235294117647" type="line" smooth="yes"/>
      <point x="150.45882352941177" y="128.3764705882353"/>
      <point x="156.8470588235294" y="185.7058823529412"/>
      <point x="186.47058823529412" y="211.3294117647059" type="curve"/>
    </contour>
  </outline>
</glyph>
<glyph name="h" format="2">
  <advance width="582.9294117647058"/>
  <unicode hex="0068"/>
  <anchor x="301.05882352941177" y="-10.447058823529412" name="bottom"/>
  <anchor x="292.70588235294116" y="240.0" name="center"/>
  <anchor x="122.41176470588235" y="705.8705882352941" name="top"/>
  <outline>
    <contour>
      <point x="378.6" y="500.70588235294116" type="curve" smooth="yes"/>
      <point x="304.47058823529414" y="500.70588235294116"/>
      <point x="231.08235294117648" y="465.3176470588235"/>
      <point x="156.78823529411764" y="408.54117647058825" type="curve"/>
      <point x="161.14117647058822" y="340.2705882352941" type="line"/>
      <point x="242.08235294117648" y="390.6"/>
      <point x="294.50588235294117" y="418.50588235294117"/>
      <point x="351.83529411764704" y="418.50588235294117" type="curve" smooth="yes"/>
      <point x="397.9764705882353" y="418.50588235294117"/>
      <point x="413.9529411764706" y="400.0470588235294"/>
      <point x="413.9529411764706" y="337.9764705882353" type="curve" smooth="yes"/>
      <point x="413.9529411764706" y="0.0" type="line"/>
      <point x="511.08235294117645" y="0.0" type="line"/>
      <point x="511.08235294117645" y="366.22352941176473" type="line" smooth="yes"/>
      <point x="511.08235294117645" y="453.9647058823529"/>
      <point x="464.47058823529414" y="500.70588235294116"/>
    </contour>
    <contour>
      <point x="171.9764705882353" y="700.0" type="line"/>
      <point x="74.84705882352941" y="700.0" type="line"/>
      <point x="74.84705882352941" y="0.0" type="line"/>
      <point x="171.9764705882353" y="0.0" type="line"/>
      <point x="171.9764705882353" y="379.4823529411765" type="line"/>
      <point x="162.01176470588234" y="394.61176470588236" type="line"/>
      <point x="168.6235294117647" y="423.3529411764706"/>
      <point x="173.10588235294117" y="465.67058823529413"/>
      <point x="173.10588235294117" y="511.11764705882354" type="curve" smooth="yes"/>
    </contour>
  </outline>
</glyph>
<glyph name="i" format="2">
  <advance width="253.95294117647057"/>
  <unicode hex="0069"/>
  <anchor x="128.41176470588235" y="-10.447058823529412" name="bottom"/>
  <anchor x="168.14117647058822" y="0.0" name="ogonek"/>
  <anchor x="128.1529411764706" y="553.6470588235294" name="top"/>
  <outline>
    <contour>
      <point x="175.10588235294117" y="487.83529411764704" type="line"/>
      <point x="78.84705882352941" y="487.83529411764704" type="line"/>
      <point x="78.84705882352941" y="0.0" type="line"/>
      <point x="175.10588235294117" y="0.0" type="line"/>
    </contour>
    <contour>
      <point x="149.8235294117647" y="696.4117647058823" type="curve" smooth="yes"/>
      <point x="104.12941176470588" y="696.4117647058823" type="line" smooth="yes"/>
      <point x="84.81176470588235" y="696.4117647058823"/>
      <point x="75.58823529411765" y="685.4470588235295"/>
      <point x="75.58823529411765" y="667.8705882352941" type="curve" smooth="yes"/>
      <point x="75.58823529411765" y="611.964705882353" type="line" smooth="yes"/>
      <point x="75.58823529411765" y="592.6470588235294"/>
      <point x="84.81176470588235" y="583.4235294117647"/>
      <point x="104.12941176470588" y="583.4235294117647" type="curve" smooth="yes"/>
      <point x="149.8235294117647" y="583.4235294117647" type="line" smooth="yes"/>
      <point x="169.14117647058822" y="583.4235294117647"/>
      <point x="178.36470588235295" y="592.6470588235294"/>
      <point x="178.36470588235295" y="611.964705882353" type="curve" smooth="yes"/>
      <point x="178.36470588235295" y="667.8705882352941" type="line" smooth="yes"/>
      <point x="178.36470588235295" y="685.4470588235295"/>
      <point x="169.14117647058822" y="696.4117647058823"/>
    </contour>
  </outline>
</glyph>
<glyph name="j" format="2">
  <advance width="255.69411764705882"/>
  <unicode hex="006A"/>
  <outline>
    <contour>
      <point x="176.8470588235294" y="487.83529411764704" type="line"/>
      <point x="79.71764705882353" y="487.83529411764704" type="line"/>
      <point x="79.71764705882353" y="-5.082352941176471" type="line" smooth="yes"/>
      <point x="79.71764705882353" y="-67.47058823529412"/>
      <point x="62.2" y="-112.34117647058824"/>
      <point x="23.847058823529412" y="-159.95294117647057" type="curve"/>
      <point x="77.76470588235294" y="-202.16470588235293" type="line"/>
      <point x="138.65882352941176" y="-158.90588235294118"/>
      <point x="176.8470588235294" y="-85.75294117647059"/>
      <point x="176.8470588235294" y="-5.082352941176471" type="curve" smooth="yes"/>
    </contour>
    <contour>
      <point x="151.56470588235294" y="696.4117647058823" type="curve" smooth="yes"/>
      <point x="105.87058823529412" y="696.4117647058823" type="line"/>
      <point x="86.55294117647058" y="696.4117647058823"/>
      <point x="77.32941176470588" y="685.4470588235295"/>
      <point x="77.32941176470588" y="667.8705882352941" type="curve" smooth="yes"/>
      <point x="77.32941176470588" y="611.964705882353" type="line"/>
      <point x="77.32941176470588" y="592.6470588235294"/>
      <point x="86.55294117647058" y="583.4235294117647"/>
      <point x="105.87058823529412" y="583.4235294117647" type="curve" smooth="yes"/>
      <point x="151.56470588235294" y="583.4235294117647" type="line"/>
      <point x="170.88235294117646" y="583.4235294117647"/>
      <point x="180.10588235294117" y="592.6470588235294"/>
      <point x="180.10588235294117" y="611.964705882353" type="curve" smooth="yes"/>
      <point x="180.10588235294117" y="667.8705882352941" type="line"/>
      <point x="180.10588235294117" y="685.4470588235295"/>
      <point x="170.88235294117646" y="696.4117647058823"/>
    </contour>
  </outline>
</glyph>
<glyph name="k" format="2">
  <advance width="516.5294117647059"/>
  <unicode hex="006B"/>
  <anchor x="262.11764705882354" y="0.0" name="bottom"/>
  <outline>
    <contour>
      <point x="485.81176470588235" y="487.83529411764704" type="line"/>
      <point x="373.7176470588235" y="487.83529411764704" type="line"/>
      <point x="202.05882352941177" y="279.4823529411765" type="line"/>
      <point x="389.84705882352944" y="0.0" type="line"/>
      <point x="501.81176470588235" y="0.0" type="line"/>
      <point x="338.7647058823529" y="231.45882352941177" type="line" smooth="yes"/>
      <point x="329.28235294117644" y="247.2941176470588"/>
      <point x="312.18823529411765" y="266.1294117647059"/>
      <point x="302.70588235294116" y="273.0" type="curve"/>
      <point x="302.70588235294116" y="275.0" type="line"/>
      <point x="312.18823529411765" y="281.61176470588236"/>
      <point x="329.28235294117644" y="296.83529411764704"/>
      <point x="338.7647058823529" y="310.67058823529413" type="curve" smooth="yes"/>
    </contour>
    <contour>
      <point x="171.9764705882353" y="700.0" type="line"/>
      <point x="74.84705882352941" y="700.0" type="line"/>
      <point x="74.84705882352941" y="0.0" type="line"/>
      <point x="171.9764705882353" y="0.0" type="line"/>
      <point x="171.9764705882353" y="163.94117647058823" type="line" smooth="yes"/>
      <point x="171.9764705882353" y="198.68235294117648"/>
      <point x="167.6235294117647" y="238.12941176470588"/>
      <point x="162.01176470588234" y="276.74117647058824" type="curve"/>
      <point x="169.49411764705883" y="316.09411764705885"/>
      <point x="173.10588235294117" y="351.2823529411765"/>
      <point x="173.10588235294117" y="393.2470588235294" type="curve" smooth="yes"/>
    </contour>
    <contour>
      <point x="251.95294117647057" y="309.50588235294117" type="line"/>
      <point x="138.69411764705882" y="309.50588235294117" type="line"/>
      <point x="138.69411764705882" y="240.49411764705883" type="line"/>
      <point x="251.95294117647057" y="240.49411764705883" type="line"/>
    </contour>
  </outline>
</glyph>
<glyph name="l" format="2">
  <advance width="302.21176470588233"/>
  <unicode hex="006C"/>
  <anchor x="187.74117647058824" y="-10.447058823529412" name="bottom"/>
  <anchor x="124.54117647058824" y="748.2" name="top"/>
  <outline>
    <contour>
      <point x="172.9764705882353" y="700.0" type="line"/>
      <point x="75.84705882352941" y="700.0" type="line"/>
      <point x="75.84705882352941" y="119.37647058823529" type="line" smooth="yes"/>
      <point x="75.84705882352941" y="36.09411764705882"/>
      <point x="123.68235294117648" y="-9.48235294117647"/>
      <point x="198.61176470588236" y="-9.48235294117647" type="curve" smooth="yes"/>
      <point x="223.57647058823528" y="-9.48235294117647"/>
      <point x="272.2470588235294" y="-4.870588235294117"/>
      <point x="292.21176470588233" y="4.352941176470588" type="curve"/>
      <point x="280.50588235294117" y="78.68235294117648" type="line"/>
      <point x="235.56470588235294" y="78.68235294117648" type="line" smooth="yes"/>
      <point x="194.14117647058822" y="78.68235294117648"/>
      <point x="172.10588235294117" y="99.71764705882353"/>
      <point x="172.10588235294117" y="141.27058823529413" type="curve" smooth="yes"/>
    </contour>
  </outline>
</glyph>
<glyph name="m" format="2">
  <advance width="874.7764705882353"/>
  <unicode hex="006D"/>
  <anchor x="439.38823529411764" y="-10.447058823529412" name="bottom"/>
  <anchor x="450.0" y="558.0" name="top"/>
  <outline>
    <contour>
      <point x="671.964705882353" y="500.70588235294116" type="curve" smooth="yes"/>
      <point x="603.8352941176471" y="500.70588235294116"/>
      <point x="539.0588235294117" y="470.18823529411765"/>
      <point x="470.15294117647056" y="407.67058823529413" type="curve"/>
      <point x="476.2470588235294" y="340.2705882352941" type="line"/>
      <point x="555.2823529411764" y="396.6941176470588"/>
      <point x="587.7764705882353" y="418.50588235294117"/>
      <point x="637.364705882353" y="418.50588235294117" type="curve" smooth="yes"/>
      <point x="688.9529411764706" y="418.50588235294117"/>
      <point x="706.6705882352941" y="394.8235294117647"/>
      <point x="707.5411764705882" y="337.9764705882353" type="curve" smooth="yes"/>
      <point x="707.5411764705882" y="0.0" type="line"/>
      <point x="802.9294117647058" y="0.0" type="line"/>
      <point x="802.9294117647058" y="366.22352941176473" type="line" smooth="yes"/>
      <point x="802.9294117647058" y="453.9647058823529"/>
      <point x="757.1882352941177" y="500.70588235294116"/>
    </contour>
    <contour>
      <point x="154.78823529411764" y="487.83529411764704" type="line"/>
      <point x="74.97647058823529" y="487.83529411764704" type="line"/>
      <point x="74.97647058823529" y="0.0" type="line"/>
      <point x="171.23529411764707" y="0.0" type="line"/>
      <point x="171.23529411764707" y="379.4823529411765" type="line"/>
      <point x="161.27058823529413" y="394.61176470588236" type="line"/>
    </contour>
    <contour>
      <point x="356.11764705882354" y="500.70588235294116" type="curve" smooth="yes"/>
      <point x="286.2470588235294" y="500.70588235294116"/>
      <point x="221.47058823529412" y="468.4470588235294"/>
      <point x="153.43529411764706" y="407.67058823529413" type="curve"/>
      <point x="160.4" y="340.2705882352941" type="line"/>
      <point x="241.1764705882353" y="398.43529411764706"/>
      <point x="274.54117647058825" y="418.50588235294117"/>
      <point x="322.38823529411764" y="418.50588235294117" type="curve" smooth="yes"/>
      <point x="370.49411764705883" y="418.50588235294117"/>
      <point x="393.43529411764706" y="398.3058823529412"/>
      <point x="392.56470588235294" y="337.9764705882353" type="curve" smooth="yes"/>
      <point x="392.56470588235294" y="0.0" type="line"/>
      <point x="486.21176470588233" y="0.0" type="line"/>
      <point x="486.21176470588233" y="366.22352941176473" type="line" smooth="yes"/>
      <point x="485.3411764705882" y="454.83529411764704"/>
      <point x="439.6" y="500.70588235294116"/>
    </contour>
  </outline>
</glyph>
<glyph name="n" format="2">
  <advance width="583.0588235294117"/>
  <unicode hex="006E"/>
  <anchor x="298.9294117647059" y="-10.447058823529412" name="bottom"/>
  <anchor x="305.18823529411765" y="552.7764705882353" name="top"/>
  <outline>
    <contour>
      <point x="378.7294117647059" y="500.70588235294116" type="curve" smooth="yes"/>
      <point x="304.6" y="500.70588235294116"/>
      <point x="231.21176470588236" y="465.83529411764704"/>
      <point x="156.91764705882352" y="408.54117647058825" type="curve"/>
      <point x="161.27058823529413" y="340.2705882352941" type="line"/>
      <point x="242.21176470588236" y="388.8588235294118"/>
      <point x="294.63529411764705" y="418.50588235294117"/>
      <point x="351.9647058823529" y="418.50588235294117" type="curve" smooth="yes"/>
      <point x="398.1058823529412" y="418.50588235294117"/>
      <point x="414.08235294117645" y="400.0470588235294"/>
      <point x="414.08235294117645" y="337.9764705882353" type="curve" smooth="yes"/>
      <point x="414.08235294117645" y="0.0" type="line"/>
      <point x="511.21176470588233" y="0.0" type="line"/>
      <point x="511.21176470588233" y="366.22352941176473" type="line" smooth="yes"/>
      <point x="511.21176470588233" y="453.9647058823529"/>
      <point x="464.6" y="500.70588235294116"/>
    </contour>
    <contour>
      <point x="157.4" y="487.83529411764704" type="line"/>
      <point x="74.97647058823529" y="487.83529411764704" type="line"/>
      <point x="74.97647058823529" y="0.0" type="line"/>
      <point x="172.10588235294117" y="0.0" type="line"/>
      <point x="171.23529411764707" y="379.4823529411765" type="line"/>
      <point x="164.75294117647059" y="394.61176470588236" type="line"/>
    </contour>
  </outline>
</glyph>
<glyph name="o" format="2">
  <advance width="569.5764705882353"/>
  <unicode hex="006F"/>
  <anchor x="282.61176470588236" y="-10.447058823529412" name="bottom"/>
  <anchor x="329.2823529411765" y="2.0" name="ogonek"/>
  <anchor x="286.83529411764704" y="548.4235294117647" name="top"/>
  <outline>
    <contour>
      <point x="285.22352941176473" y="500.70588235294116" type="curve" smooth="yes"/>
      <point x="115.4235294117647" y="500.70588235294116"/>
      <point x="51.71764705882353" y="430.22352941176473"/>
      <point x="51.71764705882353" y="243.48235294117646" type="curve" smooth="yes"/>
      <point x="51.71764705882353" y="56.741176470588236"/>
      <point x="115.4235294117647" y="-12.870588235294118"/>
      <point x="285.22352941176473" y="-12.870588235294118" type="curve" smooth="yes"/>
      <point x="455.0235294117647" y="-12.870588235294118"/>
      <point x="517.8588235294118" y="56.741176470588236"/>
      <point x="517.8588235294118" y="243.48235294117646" type="curve" smooth="yes"/>
      <point x="517.8588235294118" y="430.22352941176473"/>
      <point x="455.0235294117647" y="500.70588235294116"/>
    </contour>
    <contour>
      <point x="285.22352941176473" y="419.3764705882353" type="curve" smooth="yes"/>
      <point x="385.52941176470586" y="419.3764705882353"/>
      <point x="417.11764705882354" y="379.91764705882355"/>
      <point x="417.11764705882354" y="243.48235294117646" type="curve" smooth="yes"/>
      <point x="417.11764705882354" y="107.91764705882353"/>
      <point x="385.52941176470586" y="68.45882352941176"/>
      <point x="285.22352941176473" y="68.45882352941176" type="curve" smooth="yes"/>
      <point x="184.04705882352943" y="68.45882352941176"/>
      <point x="153.32941176470587" y="107.91764705882353"/>
      <point x="153.32941176470587" y="243.48235294117646" type="curve" smooth="yes"/>
      <point x="153.32941176470587" y="379.91764705882355"/>
      <point x="184.04705882352943" y="419.3764705882353"/>
    </contour>
  </outline>
</glyph>
<glyph name="p" format="2">
  <advance width="583.635294117647"/>
  <unicode hex="0070"/>
  <outline>
    <contour>
      <point x="364.7529411764706" y="500.70588235294116" type="curve" smooth="yes"/>
      <point x="291.78823529411767" y="500.70588235294116"/>
      <point x="207.1529411764706" y="463.3529411764706"/>
      <point x="157.04705882352943" y="406.9294117647059" type="curve"/>
      <point x="168.10588235294117" y="343.7529411764706" type="line"/>
      <point x="234.43529411764706" y="391.98823529411766"/>
      <point x="279.8588235294118" y="416.7647058823529"/>
      <point x="331.67058823529413" y="416.7647058823529" type="curve" smooth="yes"/>
      <point x="402.9764705882353" y="416.7647058823529"/>
      <point x="431.0470588235294" y="373.1764705882353"/>
      <point x="431.0470588235294" y="241.74117647058824" type="curve" smooth="yes"/>
      <point x="431.0470588235294" y="103.34117647058824"/>
      <point x="400.36470588235295" y="71.94117647058823"/>
      <point x="319.4823529411765" y="71.94117647058823" type="curve" smooth="yes"/>
      <point x="268.54117647058825" y="71.94117647058823"/>
      <point x="227.47058823529412" y="83.71764705882353"/>
      <point x="168.9764705882353" y="98.43529411764706" type="curve"/>
      <point x="162.88235294117646" y="40.258823529411764" type="line"/>
      <point x="218.21176470588236" y="4.3882352941176475"/>
      <point x="281.3411764705882" y="-12.0"/>
      <point x="344.7294117647059" y="-12.0" type="curve" smooth="yes"/>
      <point x="468.98823529411766" y="-12.0"/>
      <point x="530.9176470588235" y="51.90588235294118"/>
      <point x="530.9176470588235" y="240.87058823529412" type="curve" smooth="yes"/>
      <point x="530.9176470588235" y="408.0705882352941"/>
      <point x="482.91764705882355" y="500.70588235294116"/>
    </contour>
    <contour>
      <point x="154.78823529411764" y="487.83529411764704" type="line"/>
      <point x="74.97647058823529" y="487.83529411764704" type="line"/>
      <point x="74.97647058823529" y="-198.68235294117648" type="line"/>
      <point x="171.23529411764707" y="-198.68235294117648" type="line"/>
      <point x="171.23529411764707" y="-62.31764705882353" type="line" smooth="yes"/>
      <point x="172.10588235294117" y="-22.96470588235294"/>
      <point x="171.36470588235295" y="11.352941176470589"/>
      <point x="167.36470588235295" y="49.83529411764706" type="curve"/>
      <point x="171.23529411764707" y="61.83529411764706" type="line"/>
      <point x="171.23529411764707" y="369.84705882352944" type="line"/>
      <point x="164.88235294117646" y="385.16470588235296" type="line"/>
    </contour>
  </outline>
</glyph>
<glyph name="q" format="2">
  <advance width="572.0588235294117"/>
  <unicode hex="0071"/>
  <outline>
    <contour>
      <point x="274.9647058823529" y="500.70588235294116" type="curve" smooth="yes"/>
      <point x="99.62352941176471" y="500.70588235294116"/>
      <point x="51.71764705882353" y="408.32941176470587"/>
      <point x="51.71764705882353" y="242.61176470588236" type="curve" smooth="yes"/>
      <point x="51.71764705882353" y="64.25882352941177"/>
      <point x="107.55294117647058" y="-12.870588235294118"/>
      <point x="220.0705882352941" y="-12.870588235294118" type="curve" smooth="yes"/>
      <point x="295.32941176470587" y="-12.870588235294118"/>
      <point x="365.77647058823527" y="22.129411764705882"/>
      <point x="425.6235294117647" y="75.68235294117648" type="curve"/>
      <point x="413.6588235294118" y="139.95294117647057" type="line"/>
      <point x="353.29411764705884" y="98.71764705882353"/>
      <point x="311.61176470588236" y="71.94117647058823"/>
      <point x="252.8" y="71.94117647058823" type="curve" smooth="yes"/>
      <point x="170.95294117647057" y="71.94117647058823"/>
      <point x="151.58823529411765" y="124.75294117647059"/>
      <point x="151.58823529411765" y="235.51764705882354" type="curve" smooth="yes"/>
      <point x="151.58823529411765" y="379.0470588235294"/>
      <point x="183.04705882352943" y="416.7647058823529"/>
      <point x="273.74117647058824" y="419.3764705882353" type="curve" smooth="yes"/>
      <point x="316.1294117647059" y="420.2470588235294"/>
      <point x="372.5176470588235" y="414.11764705882354"/>
      <point x="421.49411764705883" y="398.6" type="curve"/>
      <point x="499.08235294117645" y="465.3529411764706" type="line"/>
      <point x="435.0470588235294" y="488.70588235294116"/>
      <point x="337.70588235294116" y="500.70588235294116"/>
    </contour>
    <contour>
      <point x="402.8235294117647" y="469.70588235294116" type="line"/>
      <point x="402.8235294117647" y="88.55294117647058" type="line"/>
      <point x="412.78823529411767" y="74.29411764705883" type="line"/>
      <point x="403.56470588235294" y="38.07058823529412"/>
      <point x="401.9529411764706" y="3.7529411764705887"/>
      <point x="401.9529411764706" y="-38.72941176470588" type="curve" smooth="yes"/>
      <point x="402.8235294117647" y="-198.68235294117648" type="line"/>
      <point x="499.08235294117645" y="-198.68235294117648" type="line"/>
      <point x="499.08235294117645" y="465.3529411764706" type="line"/>
    </contour>
  </outline>
</glyph>
<glyph name="r" format="2">
  <advance width="403.8941176470588"/>
  <unicode hex="0072"/>
  <anchor x="124.54117647058824" y="-10.447058823529412" name="bottom"/>
  <anchor x="220.12941176470588" y="553.6470588235294" name="top"/>
  <outline>
    <contour>
      <point x="150.43529411764706" y="487.83529411764704" type="line"/>
      <point x="74.97647058823529" y="487.83529411764704" type="line"/>
      <point x="74.97647058823529" y="0.0" type="line"/>
      <point x="172.10588235294117" y="0.0" type="line"/>
      <point x="172.10588235294117" y="379.4823529411765" type="line"/>
      <point x="162.14117647058822" y="394.61176470588236" type="line"/>
    </contour>
    <contour>
      <point x="387.8588235294118" y="500.70588235294116" type="line"/>
      <point x="365.3764705882353" y="500.70588235294116" type="line"/>
      <point x="297.7294117647059" y="500.70588235294116"/>
      <point x="223.85882352941175" y="466.3176470588235"/>
      <point x="152.56470588235294" y="407.67058823529413" type="curve"/>
      <point x="161.27058823529413" y="348.9764705882353" type="line"/>
      <point x="241.8235294117647" y="386.8588235294118"/>
      <point x="292.3764705882353" y="409.8"/>
      <point x="346.70588235294116" y="409.8" type="curve" smooth="yes"/>
      <point x="376.7647058823529" y="409.8" type="line"/>
    </contour>
  </outline>
</glyph>
<glyph name="s" format="2">
  <advance width="509.4470588235294"/>
  <unicode hex="0073"/>
  <anchor x="248.87058823529412" y="-11.0" name="bottom"/>
  <anchor x="259.09411764705885" y="553.6470588235294" name="top"/>
  <outline>
    <contour>
      <point x="240.74117647058824" y="500.70588235294116" type="curve" smooth="yes"/>
      <point x="104.58823529411765" y="501.83529411764704"/>
      <point x="48.07058823529412" y="476.4235294117647"/>
      <point x="48.07058823529412" y="365.0" type="curve" smooth="yes"/>
      <point x="48.07058823529412" y="285.4823529411765"/>
      <point x="78.10588235294118" y="247.25882352941176"/>
      <point x="159.03529411764706" y="226.2" type="curve" smooth="yes"/>
      <point x="294.91764705882355" y="192.27058823529413" type="line" smooth="yes"/>
      <point x="341.1764705882353" y="180.1764705882353"/>
      <point x="369.47058823529414" y="174.58823529411765"/>
      <point x="369.47058823529414" y="129.83529411764707" type="curve" smooth="yes"/>
      <point x="369.47058823529414" y="79.97647058823529"/>
      <point x="337.6588235294118" y="70.45882352941176"/>
      <point x="230.71764705882353" y="70.2" type="curve" smooth="yes"/>
      <point x="168.45882352941177" y="70.07058823529411"/>
      <point x="108.65882352941176" y="71.2"/>
      <point x="63.94117647058823" y="74.58823529411765" type="curve"/>
      <point x="57.45882352941177" y="3.4823529411764707" type="line"/>
      <point x="141.7764705882353" y="-10.0"/>
      <point x="218.41176470588235" y="-11.0"/>
      <point x="251.48235294117646" y="-11.0" type="curve" smooth="yes"/>
      <point x="396.8588235294118" y="-11.0"/>
      <point x="463.11764705882354" y="10.447058823529412"/>
      <point x="463.11764705882354" y="129.83529411764707" type="curve" smooth="yes"/>
      <point x="463.11764705882354" y="214.54117647058823"/>
      <point x="427.6" y="246.31764705882352"/>
      <point x="348.8941176470588" y="266.63529411764705" type="curve" smooth="yes"/>
      <point x="211.27058823529413" y="301.43529411764706" type="line" smooth="yes"/>
      <point x="164.6235294117647" y="313.52941176470586"/>
      <point x="141.71764705882353" y="318.3764705882353"/>
      <point x="141.71764705882353" y="365.0" type="curve" smooth="yes"/>
      <point x="141.71764705882353" y="417.63529411764705"/>
      <point x="168.56470588235294" y="418.8941176470588"/>
      <point x="255.54117647058823" y="418.63529411764705" type="curve" smooth="yes"/>
      <point x="317.15294117647056" y="418.50588235294117"/>
      <point x="379.54117647058825" y="416.3764705882353"/>
      <point x="441.15294117647056" y="414.11764705882354" type="curve"/>
      <point x="448.50588235294117" y="484.3529411764706" type="line"/>
      <point x="388.63529411764705" y="493.9647058823529"/>
      <point x="304.83529411764704" y="499.70588235294116"/>
    </contour>
  </outline>
</glyph>
<glyph name="t" format="2">
  <advance width="387.91764705882355"/>
  <unicode hex="0074"/>
  <anchor x="250.0235294117647" y="-9.48235294117647" name="bottom"/>
  <anchor x="164.47058823529412" y="645.3529411764706" name="top"/>
  <outline>
    <contour>
      <point x="210.2941176470588" y="631.0" type="line"/>
      <point x="114.03529411764706" y="631.0" type="line"/>
      <point x="114.03529411764706" y="128.08235294117648" type="line" smooth="yes"/>
      <point x="114.03529411764706" y="39.576470588235296"/>
      <point x="157.87058823529412" y="-9.48235294117647"/>
      <point x="241.4470588235294" y="-9.48235294117647" type="curve" smooth="yes"/>
      <point x="267.15294117647056" y="-9.48235294117647"/>
      <point x="323.8235294117647" y="-4.870588235294117"/>
      <point x="356.0470588235294" y="4.352941176470588" type="curve"/>
      <point x="345.21176470588233" y="78.68235294117648" type="line"/>
      <point x="273.7529411764706" y="78.68235294117648" type="line" smooth="yes"/>
      <point x="227.10588235294117" y="78.68235294117648"/>
      <point x="210.2941176470588" y="95.23529411764706"/>
      <point x="210.2941176470588" y="141.27058823529413" type="curve" smooth="yes"/>
    </contour>
    <contour>
      <point x="361.3058823529412" y="487.83529411764704" type="line"/>
      <point x="121.7764705882353" y="487.83529411764704" type="line"/>
      <point x="25.294117647058822" y="482.83529411764704" type="line"/>
      <point x="25.294117647058822" y="412.7294117647059" type="line"/>
      <point x="361.3058823529412" y="412.7294117647059" type="line"/>
    </contour>
  </outline>
</glyph>
<glyph name="u" format="2">
  <advance width="572.1882352941177"/>
  <unicode hex="0075"/>
  <anchor x="276.0" y="-11.0" name="bottom"/>
  <anchor x="499.8235294117647" y="0.0" name="ogonek"/>
  <anchor x="286.09411764705885" y="557.1294117647059" name="top"/>
  <outline>
    <contour>
      <point x="168.9764705882353" y="487.83529411764704" type="line"/>
      <point x="71.84705882352941" y="487.83529411764704" type="line"/>
      <point x="71.84705882352941" y="121.61176470588235" type="line" smooth="yes"/>
      <point x="71.84705882352941" y="33.0"/>
      <point x="117.58823529411765" y="-12.870588235294118"/>
      <point x="205.2" y="-12.870588235294118" type="curve" smooth="yes"/>
      <point x="278.94117647058823" y="-12.870588235294118"/>
      <point x="348.45882352941175" y="16.776470588235295"/>
      <point x="423.9764705882353" y="75.81176470588235" type="curve"/>
      <point x="410.91764705882355" y="141.47058823529412" type="line"/>
      <point x="337.45882352941175" y="95.49411764705883"/>
      <point x="289.77647058823527" y="70.2"/>
      <point x="238.9294117647059" y="70.2" type="curve" smooth="yes"/>
      <point x="186.69411764705882" y="70.2"/>
      <point x="168.10588235294117" y="90.4"/>
      <point x="168.9764705882353" y="149.85882352941175" type="curve" smooth="yes"/>
    </contour>
    <contour>
      <point x="497.21176470588233" y="487.83529411764704" type="line"/>
      <point x="400.9529411764706" y="487.83529411764704" type="line"/>
      <point x="400.9529411764706" y="107.48235294117647" type="line"/>
      <point x="410.0470588235294" y="93.2235294117647" type="line"/>
      <point x="420.01176470588234" y="0.0" type="line"/>
      <point x="497.21176470588233" y="0.0" type="line"/>
    </contour>
  </outline>
</glyph>
<glyph name="v" format="2">
  <advance width="533.9882352941177"/>
  <unicode hex="0076"/>
  <outline>
    <contour>
      <point x="517.9176470588235" y="487.83529411764704" type="line"/>
      <point x="415.3058823529412" y="487.83529411764704" type="line"/>
      <point x="301.61176470588236" y="152.30588235294118" type="line" smooth="yes"/>
      <point x="292.09411764705885" y="124.78823529411764"/>
      <point x="282.5764705882353" y="95.65882352941176"/>
      <point x="273.05882352941177" y="68.14117647058823" type="curve"/>
      <point x="260.05882352941177" y="68.14117647058823" type="line"/>
      <point x="251.41176470588235" y="95.52941176470588"/>
      <point x="242.0235294117647" y="124.78823529411764"/>
      <point x="232.50588235294117" y="152.1764705882353" type="curve" smooth="yes"/>
      <point x="118.68235294117648" y="487.83529411764704" type="line"/>
      <point x="16.070588235294117" y="487.83529411764704" type="line"/>
      <point x="190.43529411764706" y="23.67058823529412" type="line" smooth="yes"/>
      <point x="195.1764705882353" y="9.094117647058823"/>
      <point x="207.88235294117646" y="0.0"/>
      <point x="223.45882352941177" y="0.0" type="curve" smooth="yes"/>
      <point x="309.6588235294118" y="0.0" type="line" smooth="yes"/>
      <point x="326.1058823529412" y="0.0"/>
      <point x="337.94117647058823" y="9.094117647058823"/>
      <point x="343.5529411764706" y="23.67058823529412" type="curve" smooth="yes"/>
    </contour>
  </outline>
</glyph>
<glyph name="w" format="2">
  <advance width="825.9294117647058"/>
  <unicode hex="0077"/>
  <anchor x="413.83529411764704" y="553.6470588235294" name="top"/>
  <outline>
    <contour>
      <point x="803.2470588235294" y="487.83529411764704" type="line"/>
      <point x="703.2470588235294" y="487.83529411764704" type="line"/>
      <point x="608.7764705882353" y="135.75294117647059" type="line" smooth="yes"/>
      <point x="601.6470588235294" y="110.27058823529411"/>
      <point x="598.2588235294118" y="86.65882352941176"/>
      <point x="593.7411764705882" y="61.17647058823529" type="curve"/>
      <point x="580.6117647058824" y="61.17647058823529" type="line"/>
      <point x="575.3529411764706" y="86.65882352941176"/>
      <point x="569.2235294117647" y="111.14117647058823"/>
      <point x="563.964705882353" y="135.75294117647059" type="curve" smooth="yes"/>
      <point x="492.81176470588235" y="457.0705882352941" type="line" smooth="yes"/>
      <point x="489.0705882352941" y="476.0"/>
      <point x="475.36470588235295" y="487.83529411764704"/>
      <point x="457.1764705882353" y="487.83529411764704" type="curve" smooth="yes"/>
      <point x="369.6235294117647" y="487.83529411764704" type="line" smooth="yes"/>
      <point x="350.56470588235294" y="487.83529411764704"/>
      <point x="337.7294117647059" y="476.0"/>
      <point x="333.98823529411766" y="457.94117647058823" type="curve" smooth="yes"/>
      <point x="261.9647058823529" y="135.75294117647059" type="line" smooth="yes"/>
      <point x="256.70588235294116" y="111.14117647058823"/>
      <point x="250.57647058823528" y="85.78823529411764"/>
      <point x="245.31764705882352" y="61.17647058823529" type="curve"/>
      <point x="232.18823529411765" y="61.17647058823529" type="line"/>
      <point x="228.54117647058823" y="85.65882352941176"/>
      <point x="223.41176470588235" y="111.14117647058823"/>
      <point x="217.1529411764706" y="135.6235294117647" type="curve" smooth="yes"/>
      <point x="122.68235294117648" y="487.83529411764704" type="line"/>
      <point x="22.68235294117647" y="487.83529411764704" type="line"/>
      <point x="160.95294117647057" y="27.28235294117647" type="line" smooth="yes"/>
      <point x="164.69411764705882" y="9.964705882352941"/>
      <point x="179.27058823529413" y="0.0"/>
      <point x="197.45882352941177" y="0.0" type="curve" smooth="yes"/>
      <point x="282.6588235294118" y="0.0" type="line" smooth="yes"/>
      <point x="301.7176470588235" y="0.0"/>
      <point x="317.16470588235296" y="11.83529411764706"/>
      <point x="320.90588235294115" y="30.764705882352942" type="curve" smooth="yes"/>
      <point x="390.9294117647059" y="352.0470588235294" type="line" smooth="yes"/>
      <point x="396.3176470588235" y="377.78823529411767"/>
      <point x="401.70588235294116" y="403.52941176470586"/>
      <point x="407.09411764705885" y="430.1411764705882" type="curve"/>
      <point x="418.83529411764704" y="430.1411764705882" type="line"/>
      <point x="425.09411764705885" y="403.52941176470586"/>
      <point x="428.61176470588236" y="377.78823529411767"/>
      <point x="434.0" y="352.0470588235294" type="curve" smooth="yes"/>
      <point x="505.0235294117647" y="30.764705882352942" type="line" smooth="yes"/>
      <point x="508.7647058823529" y="11.83529411764706"/>
      <point x="524.2117647058824" y="0.0"/>
      <point x="542.4" y="0.0" type="curve" smooth="yes"/>
      <point x="629.3411764705883" y="0.0" type="line" smooth="yes"/>
      <point x="647.5294117647059" y="0.0"/>
      <point x="661.2352941176471" y="9.964705882352941"/>
      <point x="665.8470588235294" y="27.28235294117647" type="curve" smooth="yes"/>
    </contour>
  </outline>
</glyph>
<glyph name="x" format="2">
  <advance width="532.8588235294118"/>
  <unicode hex="0078"/>
  <outline>
    <contour>
      <point x="500.4" y="487.83529411764704" type="line"/>
      <point x="396.4" y="487.83529411764704" type="line"/>
      <point x="253.51764705882354" y="251.74117647058824" type="line"/>
      <point x="407.6588235294118" y="0.0" type="line"/>
      <point x="512.5294117647059" y="0.0" type="line"/>
      <point x="353.16470588235296" y="251.74117647058824" type="line"/>
    </contour>
    <contour>
      <point x="136.45882352941177" y="487.83529411764704" type="line"/>
      <point x="32.45882352941177" y="487.83529411764704" type="line"/>
      <point x="179.69411764705882" y="251.74117647058824" type="line"/>
      <point x="20.32941176470588" y="0.0" type="line"/>
      <point x="125.2" y="0.0" type="line"/>
      <point x="279.3411764705882" y="251.74117647058824" type="line"/>
    </contour>
    <contour>
      <point x="324.1411764705882" y="290.7294117647059" type="line"/>
      <point x="209.45882352941177" y="290.7294117647059" type="line"/>
      <point x="209.45882352941177" y="215.6235294117647" type="line"/>
      <point x="324.1411764705882" y="215.6235294117647" type="line"/>
    </contour>
  </outline>
</glyph>
<glyph name="y" format="2">
  <advance width="532.9882352941177"/>
  <unicode hex="0079"/>
  <anchor x="439.2705882352941" y="-11.0" name="bottom"/>
  <anchor x="269.05882352941177" y="553.6470588235294" name="top"/>
  <outline>
    <contour>
      <point x="516.1764705882352" y="487.83529411764704" type="line"/>
      <point x="411.8235294117647" y="487.83529411764704" type="line"/>
      <point x="292.4470588235294" y="133.45882352941177" type="line" smooth="yes"/>
      <point x="283.4470588235294" y="106.23529411764706"/>
      <point x="271.70588235294116" y="69.17647058823529"/>
      <point x="260.9647058823529" y="42.95294117647059" type="curve" smooth="yes"/>
      <point x="235.87058823529412" y="-17.976470588235294" type="line" smooth="yes"/>
      <point x="211.48235294117646" y="-76.65882352941176"/>
      <point x="172.38823529411764" y="-117.11764705882354"/>
      <point x="93.25882352941177" y="-141.1529411764706" type="curve"/>
      <point x="102.74117647058823" y="-204.7764705882353" type="line"/>
      <point x="230.52941176470588" y="-203.28235294117647"/>
      <point x="294.25882352941176" y="-110.32941176470588"/>
      <point x="326.5176470588235" y="-23.494117647058825" type="curve" smooth="yes"/>
    </contour>
    <contour>
      <point x="119.55294117647058" y="487.83529411764704" type="line"/>
      <point x="16.070588235294117" y="487.83529411764704" type="line"/>
      <point x="188.69411764705882" y="24.541176470588233" type="line" smooth="yes"/>
      <point x="193.43529411764706" y="9.094117647058823"/>
      <point x="206.14117647058825" y="0.0"/>
      <point x="222.58823529411765" y="0.0" type="curve" smooth="yes"/>
      <point x="249.90588235294118" y="0.0" type="line"/>
      <point x="281.67058823529413" y="73.36470588235294" type="line"/>
      <point x="258.3176470588235" y="73.36470588235294" type="line"/>
      <point x="253.9294117647059" y="93.84705882352941"/>
      <point x="247.6705882352941" y="113.58823529411765"/>
      <point x="240.6705882352941" y="133.2" type="curve" smooth="yes"/>
    </contour>
  </outline>
</glyph>
<glyph name="z" format="2">
  <advance width="512.0588235294117"/>
  <unicode hex="007A"/>
  <anchor x="259.3529411764706" y="-11.0" name="bottom"/>
  <anchor x="256.3176470588235" y="553.6470588235294" name="top"/>
  <outline>
    <contour>
      <point x="353.8" y="410.2470588235294" type="line"/>
      <point x="47.77647058823529" y="78.58823529411765" type="line"/>
      <point x="155.25882352941176" y="77.58823529411765" type="line"/>
      <point x="460.4117647058824" y="409.2470588235294" type="line"/>
    </contour>
    <contour>
      <point x="464.2823529411765" y="78.58823529411765" type="line"/>
      <point x="47.77647058823529" y="78.58823529411765" type="line"/>
      <point x="47.77647058823529" y="0.0" type="line"/>
      <point x="464.2823529411765" y="0.0" type="line"/>
    </contour>
    <contour>
      <point x="460.4117647058824" y="487.83529411764704" type="line"/>
      <point x="51.64705882352941" y="487.83529411764704" type="line"/>
      <point x="51.64705882352941" y="409.2470588235294" type="line"/>
      <point x="460.4117647058824" y="409.2470588235294" type="line"/>
    </contour>
  </outline>
</glyph>
<glyph name="braceleft" format="2">
  <advance width="323.2470588235294"/>
  <unicode hex="007B"/>
  <outline>
    <contour>
      <point x="281.08235294117645" y="768.0" type="line"/>
      <point x="152.51764705882354" y="779.3176470588236"/>
      <point x="100.97647058823529" y="728.3882352941176"/>
      <point x="100.97647058823529" y="634.1647058823529" type="curve" smooth="yes"/>
      <point x="100.97647058823529" y="438.3176470588235" type="line" smooth="yes"/>
      <point x="100.97647058823529" y="377.2823529411765"/>
      <point x="90.71764705882353" y="377.2823529411765"/>
      <point x="43.811764705882354" y="362.15294117647056" type="curve"/>
      <point x="43.811764705882354" y="293.84705882352944" type="line"/>
      <point x="87.58823529411765" y="276.7176470588235"/>
      <point x="104.97647058823529" y="272.5882352941176"/>
      <point x="104.97647058823529" y="221.68235294117648" type="curve" smooth="yes"/>
      <point x="104.97647058823529" y="-31.16470588235294" type="line" smooth="yes"/>
      <point x="104.97647058823529" y="-125.38823529411765"/>
      <point x="156.51764705882354" y="-176.31764705882352"/>
      <point x="285.08235294117645" y="-165.0" type="curve"/>
      <point x="285.08235294117645" y="-104.34117647058824" type="line"/>
      <point x="217.27058823529413" y="-104.34117647058824"/>
      <point x="197.75294117647059" y="-82.88235294117646"/>
      <point x="197.75294117647059" y="-24.2" type="curve" smooth="yes"/>
      <point x="197.75294117647059" y="207.3294117647059" type="line" smooth="yes"/>
      <point x="196.88235294117646" y="277.32941176470587"/>
      <point x="177.27058823529413" y="305.1294117647059"/>
      <point x="102.08235294117647" y="328.0" type="curve"/>
      <point x="175.14117647058822" y="342.0"/>
      <point x="194.6235294117647" y="369.9294117647059"/>
      <point x="193.75294117647059" y="452.67058823529413" type="curve" smooth="yes"/>
      <point x="193.75294117647059" y="626.3294117647059" type="line" smooth="yes"/>
      <point x="193.75294117647059" y="685.1411764705882"/>
      <point x="213.27058823529413" y="707.3411764705883"/>
      <point x="281.08235294117645" y="707.3411764705883" type="curve"/>
    </contour>
  </outline>
</glyph>
<glyph name="bar" format="2">
  <advance width="248.8"/>
  <unicode hex="007C"/>
  <outline>
    <contour>
      <point x="159.34117647058824" y="781.0" type="line"/>
      <point x="89.45882352941176" y="781.0" type="line"/>
      <point x="89.45882352941176" y="-169.0" type="line"/>
      <point x="159.34117647058824" y="-169.0" type="line"/>
    </contour>
  </outline>
</glyph>
<glyph name="braceright" format="2">
  <advance width="324.11764705882354"/>
  <unicode hex="007D"/>
  <outline>
    <contour>
      <point x="43.03529411764706" y="768.0" type="curve"/>
      <point x="43.03529411764706" y="707.3411764705883" type="line"/>
      <point x="110.84705882352941" y="707.3411764705883"/>
      <point x="130.36470588235295" y="685.1411764705882"/>
      <point x="130.36470588235295" y="626.3294117647059" type="curve" smooth="yes"/>
      <point x="130.36470588235295" y="452.67058823529413" type="line" smooth="yes"/>
      <point x="129.49411764705883" y="369.9294117647059"/>
      <point x="148.9764705882353" y="342.0"/>
      <point x="222.03529411764706" y="328.0" type="curve"/>
      <point x="146.8470588235294" y="305.1294117647059"/>
      <point x="127.23529411764706" y="277.32941176470587"/>
      <point x="126.36470588235294" y="207.3294117647059" type="curve" smooth="yes"/>
      <point x="126.36470588235294" y="-24.2" type="line" smooth="yes"/>
      <point x="126.36470588235294" y="-82.88235294117646"/>
      <point x="106.84705882352941" y="-104.34117647058824"/>
      <point x="39.03529411764706" y="-104.34117647058824" type="curve"/>
      <point x="39.03529411764706" y="-165.0" type="line"/>
      <point x="167.6" y="-176.31764705882352"/>
      <point x="219.14117647058822" y="-125.38823529411765"/>
      <point x="219.14117647058822" y="-31.16470588235294" type="curve" smooth="yes"/>
      <point x="219.14117647058822" y="221.68235294117648" type="line" smooth="yes"/>
      <point x="219.14117647058822" y="272.5882352941176"/>
      <point x="236.52941176470588" y="276.7176470588235"/>
      <point x="280.3058823529412" y="293.84705882352944" type="curve"/>
      <point x="280.3058823529412" y="362.15294117647056" type="line"/>
      <point x="233.4" y="377.2823529411765"/>
      <point x="223.14117647058822" y="377.2823529411765"/>
      <point x="223.14117647058822" y="438.3176470588235" type="curve" smooth="yes"/>
      <point x="223.14117647058822" y="634.1647058823529" type="line" smooth="yes"/>
      <point x="223.14117647058822" y="728.3882352941176"/>
      <point x="171.6" y="779.3176470588236"/>
    </contour>
  </outline>
</glyph>
<glyph name="asciitilde" format="2">
  <advance width="523.4235294117647"/>
  <unicode hex="007E"/>
  <outline>
    <contour>
      <point x="152.42352941176472" y="350.8941176470588" type="curve" smooth="yes"/>
      <point x="101.94117647058823" y="353.15294117647056"/>
      <point x="64.10588235294118" y="313.3176470588235"/>
      <point x="74.81176470588235" y="225.3294117647059" type="curve"/>
      <point x="124.02352941176471" y="225.3294117647059" type="line"/>
      <point x="124.02352941176471" y="266.49411764705883"/>
      <point x="131.4470588235294" y="283.2705882352941"/>
      <point x="166.35294117647058" y="279.2705882352941" type="curve" smooth="yes"/>
      <point x="221.71764705882353" y="273.4"/>
      <point x="296.98823529411766" y="225.8470588235294"/>
      <point x="372.0" y="222.58823529411765" type="curve" smooth="yes"/>
      <point x="425.09411764705885" y="219.45882352941177"/>
      <point x="460.3176470588235" y="261.77647058823527"/>
      <point x="449.61176470588236" y="345.8941176470588" type="curve"/>
      <point x="400.4" y="345.8941176470588" type="line"/>
      <point x="400.4" y="305.8588235294118"/>
      <point x="392.1058823529412" y="290.3411764705882"/>
      <point x="357.2" y="294.21176470588233" type="curve" smooth="yes"/>
      <point x="299.8" y="300.08235294117645"/>
      <point x="219.4" y="347.63529411764705"/>
    </contour>
  </outline>
</glyph>
<glyph name="exclamdown" format="2">
  <advance width="260.8588235294118"/>
  <unicode hex="00A1"/>
  <outline>
    <contour>
      <point x="168.78823529411764" y="283.09411764705885" type="line"/>
      <point x="92.07058823529412" y="283.09411764705885" type="line"/>
      <point x="82.23529411764706" y="99.88235294117646" type="line"/>
      <point x="82.23529411764706" y="-193.68235294117648" type="line"/>
      <point x="178.6235294117647" y="-193.68235294117648" type="line"/>
      <point x="178.6235294117647" y="99.88235294117646" type="line"/>
    </contour>
    <contour>
      <point x="142.89411764705883" y="495.67058823529413" type="curve" smooth="yes"/>
      <point x="118.96470588235294" y="495.67058823529413" type="line" smooth="yes"/>
      <point x="92.68235294117648" y="495.67058823529413"/>
      <point x="83.45882352941176" y="486.4470588235294"/>
      <point x="83.45882352941176" y="460.16470588235296" type="curve" smooth="yes"/>
      <point x="83.45882352941176" y="406.0" type="line" smooth="yes"/>
      <point x="83.45882352941176" y="379.7176470588235"/>
      <point x="92.68235294117648" y="371.36470588235295"/>
      <point x="118.96470588235294" y="371.36470588235295" type="curve" smooth="yes"/>
      <point x="142.89411764705883" y="371.36470588235295" type="line" smooth="yes"/>
      <point x="169.1764705882353" y="371.36470588235295"/>
      <point x="178.4" y="379.7176470588235"/>
      <point x="178.4" y="406.0" type="curve" smooth="yes"/>
      <point x="178.4" y="460.16470588235296" type="line" smooth="yes"/>
      <point x="178.4" y="486.4470588235294"/>
      <point x="169.1764705882353" y="495.67058823529413"/>
    </contour>
  </outline>
</glyph>
<glyph name="cent" format="2">
  <advance width="508.3529411764706"/>
  <unicode hex="00A2"/>
  <outline>
    <contour>
      <point x="284.5176470588235" y="605.4823529411765" type="curve" smooth="yes"/>
      <point x="114.2" y="605.4823529411765"/>
      <point x="50.71764705882353" y="536.7411764705882"/>
      <point x="50.71764705882353" y="349.1294117647059" type="curve" smooth="yes"/>
      <point x="50.71764705882353" y="160.64705882352942"/>
      <point x="113.32941176470588" y="92.7764705882353"/>
      <point x="283.77647058823527" y="92.7764705882353" type="curve" smooth="yes"/>
      <point x="342.22352941176473" y="92.7764705882353"/>
      <point x="404.8" y="101.51764705882353"/>
      <point x="454.0235294117647" y="119.3529411764706" type="curve"/>
      <point x="444.8" y="184.36470588235295" type="line"/>
      <point x="393.83529411764704" y="176.23529411764707"/>
      <point x="330.4470588235294" y="174.10588235294117"/>
      <point x="300.70588235294116" y="174.10588235294117" type="curve" smooth="yes"/>
      <point x="186.1764705882353" y="174.10588235294117"/>
      <point x="147.10588235294117" y="213.04705882352943"/>
      <point x="147.10588235294117" y="349.1294117647059" type="curve" smooth="yes"/>
      <point x="147.10588235294117" y="484.3411764705882"/>
      <point x="186.1764705882353" y="523.2823529411764"/>
      <point x="300.70588235294116" y="523.2823529411764" type="curve" smooth="yes"/>
      <point x="336.18823529411765" y="523.2823529411764"/>
      <point x="388.09411764705885" y="521.1529411764706"/>
      <point x="433.54117647058825" y="515.635294117647" type="curve"/>
      <point x="445.63529411764705" y="580.6470588235294" type="line"/>
      <point x="396.67058823529413" y="599.7411764705882"/>
      <point x="329.22352941176473" y="605.4823529411765"/>
    </contour>
    <contour>
      <point x="300.6" y="137.3764705882353" type="line"/>
      <point x="250.87058823529412" y="137.3764705882353" type="line"/>
      <point x="237.64705882352942" y="0.0" type="line"/>
      <point x="287.3764705882353" y="0.0" type="line"/>
    </contour>
    <contour>
      <point x="337.08235294117645" y="550.6941176470589" type="line"/>
      <point x="286.4823529411765" y="550.6941176470589" type="line"/>
      <point x="251.74117647058824" y="135.24705882352941" type="line"/>
      <point x="301.47058823529414" y="135.24705882352941" type="line"/>
    </contour>
    <contour>
      <point x="351.0470588235294" y="690.0" type="line"/>
      <point x="301.3176470588235" y="690.0" type="line"/>
      <point x="287.3529411764706" y="548.564705882353" type="line"/>
      <point x="337.9529411764706" y="548.564705882353" type="line"/>
    </contour>
  </outline>
</glyph>
<glyph name="currency" format="2">
  <advance width="592.4235294117647"/>
  <unicode hex="00A4"/>
  <outline>
    <contour>
      <point x="295.6470588235294" y="491.6588235294118" type="curve" smooth="yes"/>
      <point x="370.36470588235295" y="491.6588235294118"/>
      <point x="433.3058823529412" y="429.45882352941175"/>
      <point x="433.3058823529412" y="352.0" type="curve" smooth="yes"/>
      <point x="433.3058823529412" y="274.54117647058825"/>
      <point x="370.36470588235295" y="211.47058823529412"/>
      <point x="295.6470588235294" y="212.47058823529412" type="curve" smooth="yes"/>
      <point x="219.05882352941177" y="211.47058823529412"/>
      <point x="156.11764705882354" y="274.54117647058825"/>
      <point x="156.11764705882354" y="352.0" type="curve" smooth="yes"/>
      <point x="156.11764705882354" y="429.45882352941175"/>
      <point x="219.05882352941177" y="491.6588235294118"/>
    </contour>
    <contour>
      <point x="107.5764705882353" y="582.0588235294117" type="line"/>
      <point x="65.71764705882353" y="540.0705882352942" type="line"/>
      <point x="149.3294117647059" y="456.45882352941175" type="line"/>
      <point x="191.31764705882352" y="497.4470588235294" type="line"/>
    </contour>
    <contour>
      <point x="485.5882352941176" y="582.0588235294117" type="line"/>
      <point x="403.84705882352944" y="500.3176470588235" type="line"/>
      <point x="444.83529411764704" y="458.45882352941175" type="line"/>
      <point x="527.4470588235295" y="540.0705882352942" type="line"/>
    </contour>
    <contour>
      <point x="152.45882352941177" y="255.0235294117647" type="line"/>
      <point x="62.976470588235294" y="165.54117647058823" type="line"/>
      <point x="107.5764705882353" y="121.07058823529412" type="line"/>
      <point x="196.9294117647059" y="210.5529411764706" type="line"/>
    </contour>
    <contour>
      <point x="439.09411764705885" y="249.54117647058823" type="line"/>
      <point x="397.2352941176471" y="207.68235294117648" type="line"/>
      <point x="484.7176470588235" y="120.2" type="line"/>
      <point x="527.5764705882353" y="162.05882352941177" type="line"/>
    </contour>
    <contour>
      <point x="295.6470588235294" y="549.0941176470589" type="curve" smooth="yes"/>
      <point x="186.16470588235293" y="549.0941176470589"/>
      <point x="97.68235294117648" y="460.61176470588236"/>
      <point x="97.68235294117648" y="351.1294117647059" type="curve" smooth="yes"/>
      <point x="97.68235294117648" y="242.64705882352942"/>
      <point x="186.16470588235293" y="154.16470588235293"/>
      <point x="295.6470588235294" y="154.16470588235293" type="curve" smooth="yes"/>
      <point x="404.1294117647059" y="154.16470588235293"/>
      <point x="492.61176470588236" y="242.64705882352942"/>
      <point x="492.61176470588236" y="351.1294117647059" type="curve" smooth="yes"/>
      <point x="492.61176470588236" y="460.61176470588236"/>
      <point x="405.1294117647059" y="549.0941176470589"/>
    </contour>
  </outline>
</glyph>
<glyph name="yen" format="2">
  <advance width="621.1529411764706"/>
  <unicode hex="00A5"/>
  <outline>
    <contour>
      <point x="588.0470588235294" y="690.0" type="line"/>
      <point x="484.3058823529412" y="690.0" type="line"/>
      <point x="346.4823529411765" y="419.9529411764706" type="line" smooth="yes"/>
      <point x="335.3529411764706" y="395.47058823529414"/>
      <point x="324.70588235294116" y="366.11764705882354"/>
      <point x="315.18823529411765" y="340.63529411764705" type="curve"/>
      <point x="307.5764705882353" y="340.63529411764705" type="line"/>
      <point x="297.18823529411765" y="366.11764705882354"/>
      <point x="287.4117647058824" y="395.47058823529414"/>
      <point x="275.2823529411765" y="420.08235294117645" type="curve" smooth="yes"/>
      <point x="136.58823529411765" y="690.0" type="line"/>
      <point x="32.84705882352941" y="690.0" type="line"/>
      <point x="265.01176470588234" y="250.4" type="line"/>
      <point x="356.88235294117646" y="250.4" type="line"/>
    </contour>
    <contour>
      <point x="360.88235294117646" y="317.9647058823529" type="line"/>
      <point x="261.01176470588234" y="317.9647058823529" type="line"/>
      <point x="261.01176470588234" y="0.0" type="line"/>
      <point x="360.88235294117646" y="0.0" type="line"/>
    </contour>
    <contour>
      <point x="535.3764705882353" y="212.54117647058823" type="line"/>
      <point x="90.6470588235294" y="212.54117647058823" type="line"/>
      <point x="91.51764705882353" y="155.9764705882353" type="line"/>
      <point x="535.3764705882353" y="155.9764705882353" type="line"/>
    </contour>
    <contour>
      <point x="535.3764705882353" y="326.0235294117647" type="line"/>
      <point x="89.7764705882353" y="326.0235294117647" type="line"/>
      <point x="91.51764705882353" y="268.5882352941176" type="line"/>
      <point x="535.3764705882353" y="268.5882352941176" type="line"/>
    </contour>
  </outline>
</glyph>
<glyph name="brokenbar" format="2">
  <advance width="250.8"/>
  <unicode hex="00A6"/>
  <outline>
    <contour>
      <point x="160.34117647058824" y="781.0" type="line"/>
      <point x="90.45882352941176" y="781.0" type="line"/>
      <point x="90.45882352941176" y="381.0" type="line"/>
      <point x="160.34117647058824" y="381.0" type="line"/>
    </contour>
    <contour>
      <point x="160.34117647058824" y="231.0" type="line"/>
      <point x="90.45882352941176" y="231.0" type="line"/>
      <point x="90.45882352941176" y="-169.0" type="line"/>
      <point x="160.34117647058824" y="-169.0" type="line"/>
    </contour>
  </outline>
</glyph>
<glyph name="section" format="2">
  <advance width="544.7411764705882"/>
  <unicode hex="00A7"/>
  <outline>
    <contour>
      <point x="146.30588235294118" y="382.91764705882355" type="curve"/>
      <point x="76.4235294117647" y="382.91764705882355" type="line"/>
      <point x="52.36470588235294" y="270.9529411764706"/>
      <point x="65.49411764705883" y="198.11764705882354"/>
      <point x="164.42352941176472" y="145.76470588235293" type="curve" smooth="yes"/>
      <point x="320.6" y="58.65882352941176" type="line" smooth="yes"/>
      <point x="356.0235294117647" y="38.88235294117647"/>
      <point x="384.8" y="16.811764705882354"/>
      <point x="382.18823529411765" y="-28.51764705882353" type="curve" smooth="yes"/>
      <point x="381.3176470588235" y="-82.08235294117647"/>
      <point x="334.47058823529414" y="-83.82352941176471"/>
      <point x="259.78823529411767" y="-83.69411764705882" type="curve" smooth="yes"/>
      <point x="186.43529411764706" y="-82.69411764705882"/>
      <point x="138.71764705882353" y="-81.43529411764706"/>
      <point x="73.7764705882353" y="-77.43529411764706" type="curve"/>
      <point x="66.4235294117647" y="-152.89411764705883" type="line"/>
      <point x="140.0705882352941" y="-160.76470588235293"/>
      <point x="226.2235294117647" y="-163.89411764705883"/>
      <point x="285.0352941176471" y="-164.89411764705883" type="curve" smooth="yes"/>
      <point x="406.54117647058825" y="-165.0235294117647"/>
      <point x="485.54117647058825" y="-149.83529411764707"/>
      <point x="485.54117647058825" y="-32.0" type="curve" smooth="yes"/>
      <point x="485.54117647058825" y="53.76470588235294"/>
      <point x="443.74117647058824" y="90.54117647058824"/>
      <point x="385.15294117647056" y="124.83529411764705" type="curve" smooth="yes"/>
      <point x="216.52941176470588" y="220.7764705882353" type="line" smooth="yes"/>
      <point x="152.65882352941176" y="256.77647058823527"/>
      <point x="139.65882352941176" y="297.7529411764706"/>
    </contour>
    <contour>
      <point x="261.4470588235294" y="702.8705882352941" type="curve" smooth="yes"/>
      <point x="132.42352941176472" y="703.0"/>
      <point x="60.07058823529412" y="681.1647058823529"/>
      <point x="60.07058823529412" y="571.2352941176471" type="curve" smooth="yes"/>
      <point x="60.07058823529412" y="486.47058823529414"/>
      <point x="100.74117647058823" y="450.8235294117647"/>
      <point x="160.58823529411765" y="416.2705882352941" type="curve" smooth="yes"/>
      <point x="329.08235294117645" y="319.32941176470587" type="line" smooth="yes"/>
      <point x="391.6941176470588" y="283.5882352941176"/>
      <point x="405.9529411764706" y="240.2235294117647"/>
      <point x="399.3058823529412" y="155.9294117647059" type="curve"/>
      <point x="469.18823529411765" y="155.9294117647059" type="line"/>
      <point x="494.11764705882354" y="267.0235294117647"/>
      <point x="482.11764705882354" y="340.98823529411766"/>
      <point x="383.05882352941177" y="394.3411764705882" type="curve" smooth="yes"/>
      <point x="226.75294117647059" y="481.5764705882353" type="line" smooth="yes"/>
      <point x="189.32941176470587" y="502.4823529411765"/>
      <point x="161.68235294117648" y="523.4235294117647"/>
      <point x="163.42352941176472" y="568.6235294117647" type="curve" smooth="yes"/>
      <point x="165.16470588235293" y="619.6705882352941"/>
      <point x="211.75294117647059" y="621.8"/>
      <point x="287.56470588235294" y="620.8" type="curve" smooth="yes"/>
      <point x="379.7647058823529" y="620.6705882352941"/>
      <point x="414.54117647058825" y="619.4117647058823"/>
      <point x="472.70588235294116" y="615.4117647058823" type="curve"/>
      <point x="479.18823529411765" y="690.8705882352941" type="line"/>
      <point x="413.5764705882353" y="697.8705882352941"/>
      <point x="321.6470588235294" y="701.8705882352941"/>
    </contour>
  </outline>
</glyph>
<glyph name="dieresis" format="2">
  <advance width="413.41084705882355"/>
  <unicode hex="00A8"/>
  <anchor x="207.78915294117647" y="557.0687764705882" name="_top"/>
  <outline>
    <contour>
      <point x="312.15294117647056" y="696.5058823529412" type="curve" smooth="yes"/>
      <point x="280.38823529411764" y="696.5058823529412" type="line" smooth="yes"/>
      <point x="262.0705882352941" y="696.5058823529412"/>
      <point x="253.8470588235294" y="686.4117647058823"/>
      <point x="253.8470588235294" y="669.8352941176471" type="curve" smooth="yes"/>
      <point x="253.8470588235294" y="615.5764705882353" type="line" smooth="yes"/>
      <point x="253.8470588235294" y="597.2588235294118"/>
      <point x="262.0705882352941" y="588.9058823529411"/>
      <point x="280.38823529411764" y="588.9058823529411" type="curve" smooth="yes"/>
      <point x="312.15294117647056" y="588.9058823529411" type="line" smooth="yes"/>
      <point x="328.7294117647059" y="588.9058823529411"/>
      <point x="338.6941176470588" y="597.2588235294118"/>
      <point x="338.6941176470588" y="615.5764705882353" type="curve" smooth="yes"/>
      <point x="338.6941176470588" y="669.8352941176471" type="line" smooth="yes"/>
      <point x="338.6941176470588" y="686.4117647058823"/>
      <point x="328.7294117647059" y="696.5058823529412"/>
    </contour>
    <contour>
      <point x="135.1529411764706" y="696.5058823529412" type="curve" smooth="yes"/>
      <point x="102.51764705882353" y="696.5058823529412" type="line" smooth="yes"/>
      <point x="85.07058823529412" y="696.5058823529412"/>
      <point x="76.84705882352941" y="686.4117647058823"/>
      <point x="76.84705882352941" y="669.8352941176471" type="curve" smooth="yes"/>
      <point x="76.84705882352941" y="615.5764705882353" type="line" smooth="yes"/>
      <point x="76.84705882352941" y="597.2588235294118"/>
      <point x="85.07058823529412" y="588.9058823529411"/>
      <point x="102.51764705882353" y="588.9058823529411" type="curve" smooth="yes"/>
      <point x="135.1529411764706" y="588.9058823529411" type="line" smooth="yes"/>
      <point x="152.6" y="588.9058823529411"/>
      <point x="160.8235294117647" y="597.2588235294118"/>
      <point x="160.8235294117647" y="615.5764705882353" type="curve" smooth="yes"/>
      <point x="160.8235294117647" y="669.8352941176471" type="line" smooth="yes"/>
      <point x="160.8235294117647" y="686.4117647058823"/>
      <point x="152.6" y="696.5058823529412"/>
    </contour>
  </outline>
</glyph>
<glyph name="copyright" format="2">
  <advance width="831.8823529411765"/>
  <unicode hex="00A9"/>
  <outline>
    <contour>
      <point x="415.94117647058823" y="702.8705882352941" type="curve" smooth="yes"/>
      <point x="216.3294117647059" y="702.8705882352941"/>
      <point x="56.32941176470588" y="552.8705882352941"/>
      <point x="56.32941176470588" y="345.0" type="curve" smooth="yes"/>
      <point x="56.32941176470588" y="137.12941176470588"/>
      <point x="216.3294117647059" y="-12.870588235294118"/>
      <point x="415.94117647058823" y="-12.870588235294118" type="curve" smooth="yes"/>
      <point x="616.5529411764705" y="-12.870588235294118"/>
      <point x="775.5529411764705" y="137.12941176470588"/>
      <point x="775.5529411764705" y="345.0" type="curve" smooth="yes"/>
      <point x="775.5529411764705" y="552.8705882352941"/>
      <point x="616.5529411764705" y="702.8705882352941"/>
    </contour>
    <contour>
      <point x="420.94117647058823" y="565.2" type="curve" smooth="yes"/>
      <point x="277.81176470588235" y="565.2"/>
      <point x="225.94117647058823" y="506.6823529411765"/>
      <point x="225.94117647058823" y="347.1294117647059" type="curve" smooth="yes"/>
      <point x="225.94117647058823" y="186.7058823529412"/>
      <point x="277.81176470588235" y="129.05882352941177"/>
      <point x="420.94117647058823" y="129.05882352941177" type="curve" smooth="yes"/>
      <point x="485.94117647058823" y="129.05882352941177"/>
      <point x="524.9411764705883" y="133.9294117647059"/>
      <point x="565.8117647058823" y="144.54117647058823" type="curve"/>
      <point x="559.2" y="199.71764705882353" type="line"/>
      <point x="518.3294117647059" y="195.45882352941177"/>
      <point x="481.2" y="194.32941176470587"/>
      <point x="420.0705882352941" y="194.32941176470587" type="curve" smooth="yes"/>
      <point x="329.50588235294117" y="194.32941176470587"/>
      <point x="301.0470588235294" y="231.04705882352943"/>
      <point x="301.0470588235294" y="347.1294117647059" type="curve" smooth="yes"/>
      <point x="301.0470588235294" y="463.21176470588233"/>
      <point x="329.50588235294117" y="499.8"/>
      <point x="420.0705882352941" y="499.8" type="curve" smooth="yes"/>
      <point x="477.0705882352941" y="499.8"/>
      <point x="505.0705882352941" y="498.8"/>
      <point x="548.0705882352942" y="496.4117647058824" type="curve"/>
      <point x="555.6823529411764" y="551.4588235294118" type="line"/>
      <point x="515.8117647058823" y="561.3294117647059"/>
      <point x="483.6823529411765" y="565.2"/>
    </contour>
    <contour>
      <point x="415.94117647058823" y="652.2705882352941" type="curve" smooth="yes"/>
      <point x="585.2705882352941" y="652.2705882352941"/>
      <point x="723.2117647058824" y="522.4588235294118"/>
      <point x="723.2117647058824" y="345.0" type="curve" smooth="yes"/>
      <point x="723.2117647058824" y="167.54117647058823"/>
      <point x="585.2705882352941" y="37.72941176470588"/>
      <point x="415.94117647058823" y="37.72941176470588" type="curve" smooth="yes"/>
      <point x="247.61176470588236" y="37.72941176470588"/>
      <point x="108.67058823529412" y="167.54117647058823"/>
      <point x="108.67058823529412" y="345.0" type="curve" smooth="yes"/>
      <point x="108.67058823529412" y="522.4588235294118"/>
      <point x="247.61176470588236" y="652.2705882352941"/>
    </contour>
  </outline>
</glyph>
<glyph name="ordfeminine" format="2">
  <advance width="440.5176470588235"/>
  <unicode hex="00AA"/>
  <outline>
    <contour>
      <point x="252.7764705882353" y="608.7058823529412" type="curve" smooth="yes"/>
      <point x="189.61176470588236" y="608.7058823529412"/>
      <point x="124.2" y="600.7058823529412"/>
      <point x="76.45882352941176" y="593.8352941176471" type="curve"/>
      <point x="83.81176470588235" y="540.4" type="line"/>
      <point x="136.42352941176472" y="543.7882352941176"/>
      <point x="192.81176470588235" y="547.7882352941176"/>
      <point x="237.71764705882353" y="547.7882352941176" type="curve" smooth="yes"/>
      <point x="283.6588235294118" y="547.7882352941176"/>
      <point x="298.1764705882353" y="528.8470588235294"/>
      <point x="298.1764705882353" y="498.4235294117647" type="curve" smooth="yes"/>
      <point x="298.1764705882353" y="352.9647058823529" type="line"/>
      <point x="302.52941176470586" y="344.4823529411765" type="line"/>
      <point x="312.7529411764706" y="272.61176470588236" type="line"/>
      <point x="370.67058823529413" y="272.61176470588236" type="line"/>
      <point x="370.67058823529413" y="497.5529411764706" type="line" smooth="yes"/>
      <point x="370.67058823529413" y="581.0941176470589"/>
      <point x="327.5764705882353" y="608.7058823529412"/>
    </contour>
    <contour>
      <point x="339.1294117647059" y="472.83529411764704" type="line"/>
      <point x="156.03529411764706" y="472.83529411764704" type="line" smooth="yes"/>
      <point x="95.94117647058823" y="472.83529411764704"/>
      <point x="60.71764705882353" y="442.22352941176473"/>
      <point x="60.71764705882353" y="391.61176470588236" type="curve" smooth="yes"/>
      <point x="60.71764705882353" y="354.09411764705885" type="line" smooth="yes"/>
      <point x="60.71764705882353" y="296.74117647058824"/>
      <point x="101.55294117647058" y="266.0"/>
      <point x="161.16470588235293" y="266.0" type="curve" smooth="yes"/>
      <point x="240.61176470588236" y="266.0"/>
      <point x="298.81176470588235" y="321.9294117647059"/>
      <point x="319.7176470588235" y="351.8" type="curve"/>
      <point x="319.7176470588235" y="393.3058823529412" type="line"/>
      <point x="288.6823529411765" y="360.6588235294118"/>
      <point x="229.61176470588236" y="327.6588235294118"/>
      <point x="184.18823529411765" y="327.78823529411767" type="curve" smooth="yes"/>
      <point x="149.50588235294117" y="327.91764705882355"/>
      <point x="131.6" y="337.6"/>
      <point x="131.6" y="369.8941176470588" type="curve" smooth="yes"/>
      <point x="131.6" y="384.6470588235294" type="line" smooth="yes"/>
      <point x="131.6" y="407.5882352941176"/>
      <point x="143.0235294117647" y="421.49411764705883"/>
      <point x="178.9294117647059" y="423.36470588235295" type="curve" smooth="yes"/>
      <point x="338.1294117647059" y="435.0705882352941" type="line"/>
    </contour>
  </outline>
</glyph>
<glyph name="logicalnot" format="2">
  <advance width="589.5176470588235"/>
  <unicode hex="00AC"/>
  <outline>
    <contour>
      <point x="513.4470588235295" y="333.98823529411766" type="line"/>
      <point x="71.2" y="333.98823529411766" type="line"/>
      <point x="71.2" y="261.49411764705883" type="line"/>
      <point x="513.4470588235295" y="261.49411764705883" type="line"/>
    </contour>
    <contour>
      <point x="513.4470588235295" y="326.21176470588233" type="line"/>
      <point x="439.9529411764706" y="326.21176470588233" type="line"/>
      <point x="439.9529411764706" y="132.48235294117646" type="line"/>
      <point x="513.4470588235295" y="132.48235294117646" type="line"/>
    </contour>
  </outline>
</glyph>
<glyph name="registered" format="2">
  <advance width="547.9176470588235"/>
  <unicode hex="00AE"/>
  <outline>
    <contour>
      <point x="274.45882352941175" y="701.8705882352941" type="curve" smooth="yes"/>
      <point x="150.45882352941177" y="701.8705882352941"/>
      <point x="51.45882352941177" y="602.8705882352941"/>
      <point x="51.45882352941177" y="479.8705882352941" type="curve" smooth="yes"/>
      <point x="51.45882352941177" y="355.8705882352941"/>
      <point x="150.45882352941177" y="256.8705882352941"/>
      <point x="274.45882352941175" y="256.8705882352941" type="curve" smooth="yes"/>
      <point x="397.45882352941175" y="256.8705882352941"/>
      <point x="496.45882352941175" y="355.8705882352941"/>
      <point x="496.45882352941175" y="479.8705882352941" type="curve" smooth="yes"/>
      <point x="496.45882352941175" y="602.8705882352941"/>
      <point x="397.45882352941175" y="701.8705882352941"/>
    </contour>
    <contour>
      <point x="218.4470588235294" y="607.6823529411764" type="line"/>
      <point x="174.3294117647059" y="607.6823529411764" type="line"/>
      <point x="174.3294117647059" y="354.2823529411765" type="line"/>
      <point x="218.4470588235294" y="354.2823529411765" type="line"/>
    </contour>
    <contour>
      <point x="274.45882352941175" y="670.2" type="curve" smooth="yes"/>
      <point x="377.7529411764706" y="670.2"/>
      <point x="462.78823529411767" y="585.1647058823529"/>
      <point x="462.78823529411767" y="479.8705882352941" type="curve" smooth="yes"/>
      <point x="462.78823529411767" y="374.4470588235294"/>
      <point x="377.7529411764706" y="289.4117647058824"/>
      <point x="274.45882352941175" y="289.4117647058824" type="curve" smooth="yes"/>
      <point x="170.16470588235293" y="289.4117647058824"/>
      <point x="85.12941176470588" y="374.4470588235294"/>
      <point x="85.12941176470588" y="479.8705882352941" type="curve" smooth="yes"/>
      <point x="85.12941176470588" y="585.1647058823529"/>
      <point x="170.16470588235293" y="670.2"/>
    </contour>
    <contour>
      <point x="282.84705882352944" y="610.6823529411764" type="curve" smooth="yes"/>
      <point x="231.71764705882353" y="610.6823529411764"/>
      <point x="208.58823529411765" y="610.6823529411764"/>
      <point x="174.3294117647059" y="607.6823529411764" type="curve"/>
      <point x="181.3294117647059" y="575.4" type="line"/>
      <point x="194.45882352941177" y="576.4"/>
      <point x="232.71764705882353" y="576.4"/>
      <point x="281.9764705882353" y="576.4" type="curve" smooth="yes"/>
      <point x="326.43529411764706" y="576.4"/>
      <point x="341.6" y="568.7529411764706"/>
      <point x="340.7294117647059" y="533.1647058823529" type="curve" smooth="yes"/>
      <point x="341.6" y="500.4470588235294"/>
      <point x="326.43529411764706" y="490.8"/>
      <point x="281.9764705882353" y="489.8" type="curve" smooth="yes"/>
      <point x="180.3294117647059" y="489.8" type="line"/>
      <point x="179.3294117647059" y="458.6470588235294" type="line"/>
      <point x="196.5529411764706" y="457.6470588235294"/>
      <point x="226.10588235294117" y="457.5176470588235"/>
      <point x="283.36470588235295" y="457.5176470588235" type="curve" smooth="yes"/>
      <point x="303.1411764705882" y="457.5176470588235"/>
      <point x="315.0470588235294" y="451.0"/>
      <point x="322.56470588235294" y="431.83529411764704" type="curve" smooth="yes"/>
      <point x="348.98823529411766" y="354.2823529411765" type="line"/>
      <point x="395.9764705882353" y="354.2823529411765" type="line"/>
      <point x="366.81176470588235" y="433.83529411764704" type="line" smooth="yes"/>
      <point x="359.6823529411765" y="459.18823529411765"/>
      <point x="343.94117647058823" y="469.83529411764704"/>
      <point x="327.81176470588235" y="471.9647058823529" type="curve"/>
      <point x="327.81176470588235" y="473.9647058823529" type="line"/>
      <point x="370.2" y="479.09411764705885"/>
      <point x="385.7176470588235" y="499.9647058823529"/>
      <point x="385.7176470588235" y="537.6470588235294" type="curve" smooth="yes"/>
      <point x="385.7176470588235" y="594.4235294117647"/>
      <point x="355.9764705882353" y="610.6823529411764"/>
    </contour>
  </outline>
</glyph>
<glyph name="macron" format="2">
  <advance width="400.0"/>
  <unicode hex="00AF"/>
  <anchor x="200.0" y="556.6470588235294" name="_top"/>
  <outline>
    <contour>
      <point x="341.3176470588235" y="676.7294117647059" type="line"/>
      <point x="58.68235294117647" y="676.7294117647059" type="line"/>
      <point x="58.68235294117647" y="605.8470588235294" type="line"/>
      <point x="341.3176470588235" y="605.8470588235294" type="line"/>
    </contour>
  </outline>
</glyph>
<glyph name="degree" format="2">
  <advance width="359.49411764705883"/>
  <unicode hex="00B0"/>
  <outline>
    <contour>
      <point x="179.81176470588235" y="702.8705882352941" type="curve" smooth="yes"/>
      <point x="107.45882352941176" y="702.8705882352941"/>
      <point x="48.84705882352941" y="645.1294117647059"/>
      <point x="48.84705882352941" y="575.5176470588235" type="curve" smooth="yes"/>
      <point x="48.84705882352941" y="504.90588235294115"/>
      <point x="108.32941176470588" y="446.29411764705884"/>
      <point x="179.81176470588235" y="446.29411764705884" type="curve" smooth="yes"/>
      <point x="251.16470588235293" y="446.29411764705884"/>
      <point x="310.6470588235294" y="504.90588235294115"/>
      <point x="310.6470588235294" y="575.5176470588235" type="curve" smooth="yes"/>
      <point x="310.6470588235294" y="646.0"/>
      <point x="250.2941176470588" y="702.8705882352941"/>
    </contour>
    <contour>
      <point x="179.81176470588235" y="644.564705882353" type="curve" smooth="yes"/>
      <point x="218.52941176470588" y="644.564705882353"/>
      <point x="249.72941176470587" y="616.8470588235294"/>
      <point x="249.72941176470587" y="575.5176470588235" type="curve" smooth="yes"/>
      <point x="249.72941176470587" y="534.4470588235295"/>
      <point x="217.65882352941176" y="504.6"/>
      <point x="179.81176470588235" y="504.6" type="curve" smooth="yes"/>
      <point x="140.96470588235294" y="504.6"/>
      <point x="109.76470588235294" y="534.4470588235295"/>
      <point x="109.76470588235294" y="575.5176470588235" type="curve" smooth="yes"/>
      <point x="109.76470588235294" y="616.8470588235294"/>
      <point x="140.96470588235294" y="644.564705882353"/>
    </contour>
  </outline>
</glyph>
<glyph name="plusminus" format="2">
  <advance width="585.9411764705883"/>
  <unicode hex="00B1"/>
  <outline>
    <contour>
      <point x="514.0941176470589" y="397.1764705882353" type="line"/>
      <point x="71.84705882352941" y="397.1764705882353" type="line"/>
      <point x="71.84705882352941" y="324.6823529411765" type="line"/>
      <point x="514.0941176470589" y="324.6823529411765" type="line"/>
    </contour>
    <contour>
      <point x="514.0941176470589" y="136.89411764705883" type="line"/>
      <point x="71.84705882352941" y="136.89411764705883" type="line"/>
      <point x="71.84705882352941" y="65.27058823529411" type="line"/>
      <point x="514.0941176470589" y="65.27058823529411" type="line"/>
    </contour>
    <contour>
      <point x="330.15294117647056" y="527.635294117647" type="line"/>
      <point x="255.78823529411764" y="527.635294117647" type="line"/>
      <point x="255.91764705882352" y="194.2235294117647" type="line"/>
      <point x="329.15294117647056" y="194.2235294117647" type="line"/>
    </contour>
  </outline>
</glyph>
<glyph name="twosuperior" format="2">
  <advance width="424.0705882352941"/>
  <unicode hex="00B2"/>
  <outline>
    <contour>
      <point x="202.31764705882352" y="777.3764705882353" type="curve" smooth="yes"/>
      <point x="169.4470588235294" y="777.3764705882353"/>
      <point x="123.96470588235294" y="775.1176470588235"/>
      <point x="61.51764705882353" y="762.7294117647059" type="curve"/>
      <point x="65.51764705882353" y="705.5529411764705" type="line"/>
      <point x="122.2235294117647" y="711.4588235294118"/>
      <point x="155.25882352941176" y="712.9764705882353"/>
      <point x="197.48235294117646" y="712.9764705882353" type="curve" smooth="yes"/>
      <point x="243.51764705882354" y="712.9764705882353"/>
      <point x="272.0352941176471" y="707.5529411764705"/>
      <point x="270.5529411764706" y="671.8352941176471" type="curve" smooth="yes"/>
      <point x="269.0705882352941" y="637.5058823529412"/>
      <point x="242.8470588235294" y="601.0588235294117"/>
      <point x="190.45882352941177" y="550.635294117647" type="curve" smooth="yes"/>
      <point x="68.83529411764705" y="432.6823529411765" type="line" smooth="yes"/>
      <point x="59.870588235294115" y="423.7176470588235"/>
      <point x="57.0" y="413.88235294117646"/>
      <point x="57.0" y="401.1764705882353" type="curve" smooth="yes"/>
      <point x="57.0" y="359.3529411764706" type="line"/>
      <point x="368.78823529411767" y="359.3529411764706" type="line"/>
      <point x="369.6588235294118" y="426.1058823529412" type="line"/>
      <point x="219.68235294117648" y="426.9764705882353" type="line" smooth="yes"/>
      <point x="195.81176470588235" y="426.9764705882353"/>
      <point x="178.68235294117648" y="426.9764705882353"/>
      <point x="154.81176470588235" y="424.36470588235295" type="curve"/>
      <point x="273.7176470588235" y="540.2117647058824" type="line" smooth="yes"/>
      <point x="327.1058823529412" y="593.3764705882353"/>
      <point x="353.1411764705882" y="635.9882352941177"/>
      <point x="353.1411764705882" y="679.9294117647058" type="curve" smooth="yes"/>
      <point x="353.1411764705882" y="760.4705882352941"/>
      <point x="301.0470588235294" y="777.3764705882353"/>
    </contour>
  </outline>
</glyph>
<glyph name="threesuperior" format="2">
  <advance width="410.50588235294117"/>
  <unicode hex="00B3"/>
  <outline>
    <contour>
      <point x="197.50588235294117" y="778.2470588235294" type="curve" smooth="yes"/>
      <point x="153.05882352941177" y="778.2470588235294"/>
      <point x="108.5764705882353" y="773.8588235294118"/>
      <point x="63.0" y="766.3411764705883" type="curve"/>
      <point x="67.12941176470588" y="711.035294117647" type="line"/>
      <point x="98.3529411764706" y="713.6823529411764"/>
      <point x="142.48235294117646" y="715.5882352941177"/>
      <point x="186.31764705882352" y="715.5882352941177" type="curve" smooth="yes"/>
      <point x="250.61176470588236" y="715.5882352941177"/>
      <point x="269.38823529411764" y="705.0705882352942"/>
      <point x="269.6470588235294" y="664.6117647058824" type="curve" smooth="yes"/>
      <point x="269.77647058823527" y="634.5764705882353"/>
      <point x="263.77647058823527" y="601.7294117647059"/>
      <point x="196.96470588235294" y="601.4705882352941" type="curve" smooth="yes"/>
      <point x="112.2235294117647" y="601.2117647058824" type="line"/>
      <point x="112.2235294117647" y="544.9058823529411" type="line"/>
      <point x="196.96470588235294" y="544.7764705882353" type="line" smooth="yes"/>
      <point x="265.0352941176471" y="544.6470588235294"/>
      <point x="277.0352941176471" y="516.964705882353"/>
      <point x="277.0352941176471" y="483.0235294117647" type="curve" smooth="yes"/>
      <point x="277.0352941176471" y="431.3058823529412"/>
      <point x="254.0" y="414.1411764705882"/>
      <point x="185.74117647058824" y="414.1411764705882" type="curve" smooth="yes"/>
      <point x="143.12941176470588" y="414.1411764705882"/>
      <point x="107.44705882352942" y="415.6588235294118"/>
      <point x="59.77647058823529" y="419.3058823529412" type="curve"/>
      <point x="55.38823529411765" y="363.1294117647059" type="line"/>
      <point x="101.5764705882353" y="356.74117647058824"/>
      <point x="152.9294117647059" y="351.3529411764706"/>
      <point x="204.1529411764706" y="351.3529411764706" type="curve" smooth="yes"/>
      <point x="315.52941176470586" y="351.3529411764706"/>
      <point x="356.1411764705882" y="388.61176470588236"/>
      <point x="354.2705882352941" y="473.4470588235294" type="curve" smooth="yes"/>
      <point x="353.2705882352941" y="532.6705882352941"/>
      <point x="333.4" y="567.4117647058823"/>
      <point x="269.7294117647059" y="576.8" type="curve"/>
      <point x="269.7294117647059" y="578.8" type="line"/>
      <point x="328.01176470588234" y="588.3176470588236"/>
      <point x="343.4" y="627.6705882352941"/>
      <point x="343.4" y="683.0235294117647" type="curve" smooth="yes"/>
      <point x="343.4" y="755.2470588235294"/>
      <point x="305.2705882352941" y="778.2470588235294"/>
    </contour>
  </outline>
</glyph>
<glyph name="acute" format="2">
  <advance width="321.4"/>
  <unicode hex="00B4"/>
  <anchor x="122.8" y="541.9266823529412" name="_top"/>
  <outline>
    <contour>
      <point x="223.8" y="734.9882352941177" type="line"/>
      <point x="46.94117647058823" y="588.2470588235294" type="line"/>
      <point x="79.2235294117647" y="543.9058823529411" type="line"/>
      <point x="278.36470588235295" y="660.5294117647059" type="line"/>
    </contour>
  </outline>
</glyph>
<glyph name="micro" format="2">
  <advance width="578.0941176470589"/>
  <unicode hex="00B5"/>
  <outline>
    <contour>
      <point x="171.10588235294117" y="487.83529411764704" type="line"/>
      <point x="74.97647058823529" y="487.83529411764704" type="line"/>
      <point x="74.97647058823529" y="135.54117647058823" type="line"/>
      <point x="74.97647058823529" y="36.09411764705882"/>
      <point x="143.74117647058824" y="-12.0"/>
      <point x="229.12941176470588" y="-12.0" type="curve" smooth="yes"/>
      <point x="314.22352941176473" y="-12.0"/>
      <point x="373.43529411764706" y="39.35294117647059"/>
      <point x="403.50588235294117" y="93.98823529411764" type="curve"/>
      <point x="400.50588235294117" y="273.77647058823527" type="line"/>
      <point x="399.2470588235294" y="166.7764705882353"/>
      <point x="332.16470588235296" y="76.29411764705883"/>
      <point x="245.54117647058823" y="76.29411764705883" type="curve" smooth="yes"/>
      <point x="195.91764705882352" y="76.29411764705883"/>
      <point x="171.10588235294117" y="92.14117647058823"/>
      <point x="171.10588235294117" y="160.30588235294118" type="curve" smooth="yes"/>
    </contour>
    <contour>
      <point x="170.23529411764707" y="84.74117647058823" type="line"/>
      <point x="74.97647058823529" y="190.45882352941177" type="line"/>
      <point x="74.97647058823529" y="-198.68235294117648" type="line"/>
      <point x="158.14117647058822" y="-198.68235294117648" type="line"/>
      <point x="169.36470588235295" y="-70.17647058823529" type="line"/>
    </contour>
    <contour>
      <point x="497.63529411764705" y="487.83529411764704" type="line"/>
      <point x="400.50588235294117" y="487.83529411764704" type="line"/>
      <point x="400.50588235294117" y="109.98823529411764" type="line"/>
      <point x="403.50588235294117" y="93.98823529411764" type="line"/>
      <point x="403.50588235294117" y="76.16470588235295" type="line" smooth="yes"/>
      <point x="403.50588235294117" y="14.847058823529412"/>
      <point x="433.01176470588234" y="-10.352941176470589"/>
      <point x="479.7529411764706" y="-10.352941176470589" type="curve" smooth="yes"/>
      <point x="504.7176470588235" y="-10.352941176470589"/>
      <point x="532.9058823529411" y="-4.870588235294117"/>
      <point x="561.5764705882353" y="4.352941176470588" type="curve"/>
      <point x="555.0941176470589" y="62.88235294117647" type="line"/>
      <point x="523.9294117647058" y="62.88235294117647" type="line" smooth="yes"/>
      <point x="500.98823529411766" y="62.88235294117647"/>
      <point x="497.63529411764705" y="79.11764705882354"/>
      <point x="497.63529411764705" y="111.76470588235294" type="curve" smooth="yes"/>
    </contour>
  </outline>
</glyph>
<glyph name="paragraph" format="2">
  <advance width="592.6470588235294"/>
  <unicode hex="00B6"/>
  <outline>
    <contour>
      <point x="344.29411764705884" y="702.0" type="curve" smooth="yes"/>
      <point x="124.07058823529412" y="702.0"/>
      <point x="37.45882352941177" y="635.0"/>
      <point x="37.45882352941177" y="450.0" type="curve" smooth="yes"/>
      <point x="37.45882352941177" y="284.0"/>
      <point x="105.58823529411765" y="213.0"/>
      <point x="275.9764705882353" y="200.0" type="curve"/>
      <point x="325.0235294117647" y="639.8235294117648" type="line"/>
      <point x="368.2823529411765" y="639.8235294117648"/>
      <point x="445.05882352941177" y="636.8235294117648"/>
      <point x="492.4470588235294" y="627.8235294117648" type="curve"/>
      <point x="498.4470588235294" y="685.0" type="line"/>
      <point x="451.22352941176473" y="698.0"/>
      <point x="386.38823529411764" y="702.0"/>
    </contour>
    <contour>
      <point x="337.98823529411766" y="685.0" type="line"/>
      <point x="265.9764705882353" y="685.0" type="line"/>
      <point x="265.9764705882353" y="-210.0" type="line"/>
      <point x="337.98823529411766" y="-210.0" type="line"/>
    </contour>
    <contour>
      <point x="498.4470588235294" y="685.0" type="line"/>
      <point x="425.56470588235294" y="685.0" type="line"/>
      <point x="425.56470588235294" y="0.0" type="line"/>
      <point x="498.4470588235294" y="0.0" type="line"/>
    </contour>
  </outline>
</glyph>
<glyph name="cedilla" format="2">
  <advance width="236.41176470588235"/>
  <unicode hex="00B8"/>
  <guideline x="53.49411764705882" y="-104.7764705882353" angle="56.408199999999965"/>
  <anchor x="132.87058823529412" y="0.0" name="_bottom"/>
  <outline>
    <contour>
      <point x="87.32941176470588" y="-42.03529411764706" type="curve"/>
      <point x="77.36470588235294" y="-87.37647058823529" type="line"/>
      <point x="125.71764705882353" y="-87.50588235294117"/>
      <point x="137.23529411764707" y="-93.54117647058824"/>
      <point x="136.36470588235295" y="-114.87058823529412" type="curve" smooth="yes"/>
      <point x="134.6235294117647" y="-154.42352941176472"/>
      <point x="98.71764705882353" y="-181.75294117647059"/>
      <point x="47.741176470588236" y="-180.49411764705883" type="curve"/>
      <point x="32.423529411764704" y="-231.18823529411765" type="line"/>
      <point x="129.61176470588236" y="-243.9294117647059"/>
      <point x="202.63529411764705" y="-194.9294117647059"/>
      <point x="205.3764705882353" y="-107.03529411764706" type="curve" smooth="yes"/>
      <point x="207.24705882352941" y="-44.23529411764706"/>
      <point x="169.6705882352941" y="-33.811764705882354"/>
    </contour>
  </outline>
</glyph>
<glyph name="onesuperior" format="2">
  <advance width="295.70588235294116"/>
  <unicode hex="00B9"/>
  <outline>
    <contour>
      <point x="218.36470588235295" y="770.5058823529412" type="line"/>
      <point x="143.25882352941176" y="770.5058823529412" type="line"/>
      <point x="29.51764705882353" y="728.5058823529412" type="line"/>
      <point x="38.741176470588236" y="676.0705882352942" type="line"/>
      <point x="146.12941176470588" y="703.364705882353" type="line"/>
      <point x="143.38823529411764" y="689.1411764705882"/>
      <point x="143.25882352941176" y="675.7882352941176"/>
      <point x="143.25882352941176" y="662.564705882353" type="curve" smooth="yes"/>
      <point x="143.25882352941176" y="359.3529411764706" type="line"/>
      <point x="218.36470588235295" y="359.3529411764706" type="line"/>
    </contour>
  </outline>
</glyph>
<glyph name="ordmasculine" format="2">
  <advance width="442.90588235294115"/>
  <unicode hex="00BA"/>
  <outline>
    <contour>
      <point x="221.38823529411764" y="608.7058823529412" type="curve" smooth="yes"/>
      <point x="99.2" y="608.7058823529412"/>
      <point x="55.84705882352941" y="562.8352941176471"/>
      <point x="55.84705882352941" y="436.22352941176473" type="curve" smooth="yes"/>
      <point x="55.84705882352941" y="310.4823529411765"/>
      <point x="99.2" y="264.61176470588236"/>
      <point x="221.38823529411764" y="264.61176470588236" type="curve" smooth="yes"/>
      <point x="343.70588235294116" y="264.61176470588236"/>
      <point x="387.05882352941177" y="310.4823529411765"/>
      <point x="387.05882352941177" y="436.22352941176473" type="curve" smooth="yes"/>
      <point x="387.05882352941177" y="562.8352941176471"/>
      <point x="343.70588235294116" y="608.7058823529412"/>
    </contour>
    <contour>
      <point x="221.38823529411764" y="548.7882352941176" type="curve" smooth="yes"/>
      <point x="289.1411764705882" y="548.7882352941176"/>
      <point x="310.8235294117647" y="524.1058823529412"/>
      <point x="310.8235294117647" y="436.22352941176473" type="curve" smooth="yes"/>
      <point x="310.8235294117647" y="349.3411764705882"/>
      <point x="289.1411764705882" y="324.6588235294118"/>
      <point x="221.38823529411764" y="324.6588235294118" type="curve" smooth="yes"/>
      <point x="153.63529411764705" y="324.6588235294118"/>
      <point x="131.95294117647057" y="349.3411764705882"/>
      <point x="131.08235294117648" y="436.22352941176473" type="curve" smooth="yes"/>
      <point x="131.95294117647057" y="524.1058823529412"/>
      <point x="153.63529411764705" y="548.7882352941176"/>
    </contour>
  </outline>
</glyph>
<glyph name="onequarter" format="2">
  <advance width="866.9882352941177"/>
  <unicode hex="00BC"/>
  <outline>
    <contour>
      <point x="648.2823529411764" y="690.0" type="line"/>
      <point x="579.8823529411765" y="690.0" type="line"/>
      <point x="139.05882352941177" y="0.0" type="line"/>
      <point x="207.45882352941177" y="0.0" type="line"/>
    </contour>
    <contour>
      <point x="225.3764705882353" y="690.0" type="line"/>
      <point x="150.4" y="690.0" type="line"/>
      <point x="34.84705882352941" y="647.7411764705882" type="line"/>
      <point x="44.07058823529412" y="595.435294117647" type="line"/>
      <point x="154.14117647058825" y="622.8588235294118" type="line"/>
      <point x="151.27058823529413" y="608.5058823529412"/>
      <point x="150.4" y="595.0235294117647"/>
      <point x="150.4" y="581.5411764705882" type="curve" smooth="yes"/>
      <point x="150.4" y="276.0" type="line"/>
      <point x="225.3764705882353" y="276.0" type="line"/>
    </contour>
    <contour>
      <point x="673.9176470588235" y="414.0" type="line"/>
      <point x="601.2941176470588" y="414.0" type="line"/>
      <point x="478.54117647058825" y="162.12941176470588" type="line" smooth="yes"/>
      <point x="457.70588235294116" y="119.10588235294118"/>
      <point x="485.15294117647056" y="94.10588235294118"/>
      <point x="519.2470588235294" y="94.10588235294118" type="curve" smooth="yes"/>
      <point x="771.0117647058823" y="94.10588235294118" type="line"/>
      <point x="827.1764705882352" y="100.58823529411765" type="line"/>
      <point x="827.1764705882352" y="153.0235294117647" type="line"/>
      <point x="573.6470588235294" y="153.0235294117647" type="line" smooth="yes"/>
      <point x="559.1294117647059" y="153.0235294117647"/>
      <point x="551.7411764705882" y="162.8"/>
      <point x="557.1294117647059" y="174.18823529411765" type="curve" smooth="yes"/>
    </contour>
    <contour>
      <point x="778.6941176470589" y="334.25882352941176" type="line"/>
      <point x="720.9058823529411" y="334.25882352941176" type="line"/>
      <point x="708.0705882352942" y="267.74117647058824" type="line"/>
      <point x="708.0705882352942" y="0.0" type="line"/>
      <point x="778.6941176470589" y="0.0" type="line"/>
    </contour>
  </outline>
</glyph>
